<?xml version="1.0" encoding="utf-8"?>
<!-- Generator: Adobe Illustrator 24.3.0, SVG Export Plug-In . SVG Version: 6.00 Build 0)  -->
<svg version="1.1" id="Layer_1" xmlns="http://www.w3.org/2000/svg" xmlns:xlink="http://www.w3.org/1999/xlink" x="0px" y="0px"
	 viewBox="0 0 16 16" style="enable-background:new 0 0 16 16;" xml:space="preserve">
<style type="text/css">
	.st0{fill:#FFFFFF;}
</style>
<g>
	<g>
		<path class="st0" d="M8,3.3C5.3,3.3,3.3,5.4,3.3,8c0,1.2,0.4,2.2,1.1,3.1l3.4-6.9l3.6,7c0.8-0.8,1.2-1.9,1.2-3.1
			C12.7,5.4,10.6,3.3,8,3.3z"/>
		<path class="st0" d="M7,9.7L7,9.7l-0.9,1.7l0,0l-0.3,0.8c0.7,0.3,1.4,0.6,2.2,0.6s1.4-0.2,2.1-0.6L7.9,7.9L7,9.7z"/>
	</g>
	<path class="st0" d="M8,0.1C3.6,0.1,0.1,3.7,0.1,8s3.6,7.9,7.9,7.9s7.9-3.6,7.9-7.9S12.3,0.1,8,0.1z M8,14.3
		c-3.6,0-6.3-2.9-6.3-6.3S4.4,1.7,8,1.7s6.3,2.9,6.3,6.3S11.4,14.3,8,14.3z"/>
</g>
</svg>
