<svg id="regular" enable-background="new 0 0 24 24" height="512" viewBox="0 0 24 24" width="512" xmlns="http://www.w3.org/2000/svg"><path d="m21.25 15.25v1c0 1.105-.895 2-2 2h-16.5c-1.105 0-2-.895-2-2v-9.5c0-1.105.895-2 2-2h16.5c1.105 0 2 .895 2 2v1h1c.552 0 1 .448 1 1v5.5c0 .552-.448 1-1 1z" fill="#fafafa"/><path d="m.75 24c-.192 0-.384-.073-.53-.22-.293-.293-.293-.768 0-1.061l22.5-22.5c.293-.293.768-.293 1.061 0s.293.768 0 1.061l-22.5 22.5c-.147.147-.339.22-.531.22z"/><path d="m19.25 19h-13.5c-.414 0-.75-.336-.75-.75s.336-.75.75-.75h13.5c.689 0 1.25-.561 1.25-1.25v-1c0-.414.336-.75.75-.75h.991c.138 0 .25-.112.25-.25v-5.5c0-.138-.112-.25-.25-.25h-.991c-.414 0-.75-.336-.75-.75v-1c0-.689-.561-1.25-1.25-1.25-.414 0-.75-.336-.75-.75s.336-.75.75-.75c1.517 0 2.75 1.233 2.75 2.75v.25h.241c.965 0 1.75.785 1.75 1.75v5.5c0 .965-.785 1.75-1.75 1.75h-.241v.25c0 1.517-1.233 2.75-2.75 2.75z"/><path d="m2.75 19c-1.517 0-2.75-1.233-2.75-2.75v-9.5c0-1.517 1.233-2.75 2.75-2.75h12.5c.414 0 .75.336.75.75s-.336.75-.75.75h-12.5c-.689 0-1.25.561-1.25 1.25v9.5c0 .689.561 1.25 1.25 1.25.414 0 .75.336.75.75s-.336.75-.75.75z"/></svg>