<svg id="regular" enable-background="new 0 0 24 24" height="512" viewBox="0 0 24 24" width="512" xmlns="http://www.w3.org/2000/svg"><path d="m21.25 15.25v1c0 1.105-.895 2-2 2h-16.5c-1.105 0-2-.895-2-2v-9.5c0-1.105.895-2 2-2h16.5c1.105 0 2 .895 2 2v1h1c.552 0 1 .448 1 1v5.5c0 .552-.448 1-1 1z" fill="#fafafa"/><path d="m19.25 19h-16.5c-1.516 0-2.75-1.233-2.75-2.75v-9.5c0-1.517 1.234-2.75 2.75-2.75h16.5c1.516 0 2.75 1.233 2.75 2.75v.25h.241c.965 0 1.75.785 1.75 1.75v5.5c0 .965-.785 1.75-1.75 1.75h-.241v.25c0 1.517-1.234 2.75-2.75 2.75zm-16.5-13.5c-.689 0-1.25.561-1.25 1.25v9.5c0 .689.561 1.25 1.25 1.25h16.5c.689 0 1.25-.561 1.25-1.25v-1c0-.414.336-.75.75-.75h.991c.138 0 .25-.112.25-.25v-5.5c0-.138-.112-.25-.25-.25h-.991c-.414 0-.75-.336-.75-.75v-1c0-.689-.561-1.25-1.25-1.25z"/><path d="m10 16.75c-.146 0-.293-.042-.423-.131-.213-.145-.327-.38-.327-.619 0-.146.042-.293.131-.423l2.444-3.577-3.08-.002c-.287 0-.548-.164-.674-.422s-.093-.564.084-.791l3.326-4.249c.254-.326.727-.383 1.053-.128s.383.727.128 1.053l-2.377 3.039 2.952.002c.159-.009.297.04.428.128h.001c.001 0 .001.001.001.001.001 0 .002.001.003.002.001.001.002.001.004.002 0 0 .001 0 .002.001h.001c.146.104.245.25.29.411.01.036.018.073.022.109.021.173-.017.354-.121.51-.001.001 0 .001-.001.002 0 0 0 0-.001.001s-.001.001-.001.002l-3.246 4.749c-.145.216-.38.33-.619.33z"/></svg>