<?xml version="1.0" encoding="utf-8"?>
<!-- Generator: Adobe Illustrator 24.2.1, SVG Export Plug-In . SVG Version: 6.00 Build 0)  -->
<svg version="1.1" id="Layer_1" xmlns="http://www.w3.org/2000/svg" xmlns:xlink="http://www.w3.org/1999/xlink" x="0px" y="0px"
	 viewBox="0 0 1000 400" style="enable-background:new 0 0 1000 400;" xml:space="preserve">
<style type="text/css">
	.st0{fill:#F38220;}
	.st1{fill:#FAA827;}
	.st2{fill:#372B3F;}
	.st3{fill:#898B8D;}
	.st4{fill:#333132;}
	.st5{fill:#FFFFFF;}
	.st6{fill:#373348;}
	.st7{fill:#323031;}
</style>
<g>
	<g>
		<path class="st5" d="M479.45,283.15h-36.34l-8.69-21.72h-64.87l-8.83,21.72h-36.34l77.76-155.08L479.45,283.15z M420.96,229.72
			l-18.83-37.65l-18.82,37.65H420.96z"/>
		<path class="st5" d="M540.31,128.07v124.24h71.53v30.84H509.32V128.07H540.31z"/>
		<path class="st5" d="M672.43,128.07v155.08h-30.99V128.07H672.43z"/>
		<path class="st5" d="M852.91,283.15h-36.34l-8.69-21.72H743l-8.83,21.72h-36.34l77.76-155.08L852.91,283.15z M794.41,229.72
			l-18.83-37.65l-18.82,37.65H794.41z"/>
		<path class="st5" d="M882.18,274.03c-7.05-3.38-12.5-6.85-16.36-10.42l10.86-11.29l10.43-11.73c2.03,1.93,4.83,3.72,8.4,5.36
			c8.88,4.25,18.92,6.37,30.12,6.37c17.96,0,27.66-4.92,29.11-14.77v-0.72c0-2.8-1.01-5.45-3.04-7.96
			c-4.73-5.31-13.42-7.96-26.06-7.96c-22.2,0-38.57-6.13-49.09-18.39c-7.24-7.82-10.86-16.89-10.86-27.22
			c0-1.93,0.14-3.86,0.43-5.79c1.64-12.26,7.77-22.3,18.39-30.12c10.81-7.53,24.52-11.29,41.12-11.29c15.93,0,30.41,3.04,43.44,9.12
			c7.05,3.38,12.5,6.9,16.36,10.57l-21.29,22.59c0-0.58-2.8-2.27-8.4-5.07c-8.88-4.15-18.92-6.23-30.12-6.23
			c-17.96,0-27.51,4.73-28.67,14.19v2.03c0,2.51,0.87,4.73,2.61,6.66c4.73,5.31,13.42,7.96,26.06,7.96
			c22.1,0,38.61,6.13,49.52,18.39c6.95,8.11,10.42,17.18,10.42,27.22c0,2.22-0.14,4.3-0.43,6.23c-1.35,12.26-7.48,22.16-18.39,29.68
			c-10.81,7.82-24.52,11.73-41.12,11.73C909.69,283.15,895.21,280.11,882.18,274.03z"/>
	</g>
	<g>
		<path class="st0" d="M142.13,124.45c-41.73,0-75.55,33.83-75.55,75.55c0,19.09,7.1,36.52,18.78,49.82l56-111.83l56.84,112.64
			c12.11-13.4,19.49-31.15,19.49-50.64C217.68,158.27,183.86,124.45,142.13,124.45z"/>
		<path class="st0" d="M107.14,266.96c10.46,5.48,22.36,8.6,34.99,8.6c12.27,0,23.85-2.95,34.1-8.14l-34.87-69.01L107.14,266.96z"/>
		<path class="st0" d="M142.13,72.3c-70.53,0-127.7,57.17-127.7,127.7c0,70.53,57.17,127.7,127.7,127.7
			c70.53,0,127.7-57.17,127.7-127.7C269.83,129.47,212.66,72.3,142.13,72.3z M142.13,302.83C85.43,302.83,39.3,256.7,39.3,200
			S85.43,97.17,142.13,97.17S244.96,143.3,244.96,200S198.83,302.83,142.13,302.83z"/>
	</g>
</g>
</svg>
