<?xml version="1.0" encoding="utf-8"?>
<!-- Generator: Adobe Illustrator 24.2.1, SVG Export Plug-In . SVG Version: 6.00 Build 0)  -->
<svg version="1.1" id="Layer_1" xmlns="http://www.w3.org/2000/svg" xmlns:xlink="http://www.w3.org/1999/xlink" x="0px" y="0px"
	 viewBox="0 0 1000 1000" style="enable-background:new 0 0 1000 1000;" xml:space="preserve">
<style type="text/css">
	.st0{fill:#F38220;}
	.st1{fill:#FAA827;}
	.st2{fill:#372B3F;}
	.st3{fill:#898B8D;}
	.st4{fill:#333132;}
	.st5{fill:#FFFFFF;}
	.st6{fill:#373348;}
	.st7{fill:#323031;}
</style>
<g>
	<g>
		<path class="st5" d="M293.65,977.04H251.2l-10.15-25.37h-75.77l-10.32,25.37h-42.45l90.82-181.15L293.65,977.04z M225.32,914.63
			l-21.99-43.97l-21.99,43.97H225.32z"/>
		<path class="st5" d="M364.73,795.89v145.12h83.55v36.03H328.54V795.89H364.73z"/>
		<path class="st5" d="M519.06,795.89v181.15h-36.19V795.89H519.06z"/>
		<path class="st5" d="M729.86,977.04h-42.45l-10.15-25.37h-75.77l-10.32,25.37h-42.45l90.82-181.15L729.86,977.04z M661.53,914.63
			l-21.99-43.97l-21.99,43.97H661.53z"/>
		<path class="st5" d="M766.73,966.38c-8.23-3.95-14.61-8-19.11-12.18l12.68-13.19l12.18-13.7c2.37,2.26,5.64,4.34,9.81,6.26
			c10.37,4.96,22.1,7.44,35.18,7.44c20.97,0,32.31-5.75,34-17.25v-0.85c0-3.27-1.18-6.37-3.55-9.3c-5.53-6.2-15.67-9.3-30.44-9.3
			c-25.93,0-45.05-7.16-57.34-21.48c-8.46-9.13-12.68-19.73-12.68-31.8c0-2.25,0.17-4.51,0.51-6.76
			c1.91-14.32,9.07-26.05,21.48-35.18c12.63-8.8,28.64-13.19,48.03-13.19c18.6,0,35.52,3.55,50.74,10.66
			c8.23,3.95,14.6,8.06,19.11,12.35l-24.86,26.39c0-0.68-3.27-2.65-9.81-5.92c-10.38-4.85-22.1-7.27-35.18-7.27
			c-20.97,0-32.13,5.53-33.49,16.58v2.37c0,2.93,1.01,5.53,3.04,7.78c5.52,6.2,15.67,9.3,30.44,9.3c25.82,0,45.1,7.16,57.85,21.48
			c8.12,9.47,12.18,20.07,12.18,31.8c0,2.59-0.17,5.02-0.51,7.27c-1.58,14.32-8.74,25.88-21.48,34.67
			c-12.63,9.13-28.64,13.7-48.03,13.7C798.87,977.04,781.95,973.49,766.73,966.38z"/>
	</g>
	<g>
		<path class="st0" d="M500.96,154.73c-105.44,0-190.92,85.48-190.92,190.92c0,48.25,17.94,92.28,47.45,125.89l141.51-282.57
			L642.64,473.6c30.6-33.86,49.24-78.73,49.24-127.95C691.88,240.21,606.4,154.73,500.96,154.73z"/>
		<path class="st0" d="M412.53,514.84c26.44,13.85,56.51,21.72,88.43,21.72c31.02,0,60.28-7.44,86.17-20.57l-88.12-174.38
			L412.53,514.84z"/>
		<path class="st0" d="M500.96,22.96c-178.21,0-322.69,144.47-322.69,322.69c0,178.21,144.47,322.69,322.69,322.69
			c178.21,0,322.69-144.47,322.69-322.69C823.65,167.43,679.18,22.96,500.96,22.96z M500.96,605.5
			c-143.28,0-259.85-116.57-259.85-259.85S357.68,85.8,500.96,85.8s259.85,116.57,259.85,259.85S644.24,605.5,500.96,605.5z"/>
	</g>
</g>
</svg>
