<?xml version="1.0" encoding="utf-8"?>
<!-- Generator: Adobe Illustrator 24.2.1, SVG Export Plug-In . SVG Version: 6.00 Build 0)  -->
<svg version="1.1" id="Layer_1" xmlns="http://www.w3.org/2000/svg" xmlns:xlink="http://www.w3.org/1999/xlink" x="0px" y="0px"
	 viewBox="0 0 1000 1000" style="enable-background:new 0 0 1000 1000;" xml:space="preserve">
<style type="text/css">
	.st0{fill:#F38220;}
	.st1{fill:#FAA827;}
	.st2{fill:#372B3F;}
	.st3{fill:#898B8D;}
	.st4{fill:#333132;}
	.st5{fill:#FFFFFF;}
	.st6{fill:#373348;}
	.st7{fill:#323031;}
</style>
<g>
	<g>
		<path class="st5" d="M241.63,838.32h-53.25l-12.73-31.82H80.62l-12.94,31.82H14.43l113.92-227.21L241.63,838.32z M155.93,760.04
			l-27.58-55.16l-27.58,55.16H155.93z"/>
		<path class="st5" d="M330.79,611.11v182.02h104.8v45.19h-150.2V611.11H330.79z"/>
		<path class="st5" d="M524.36,611.11v227.21h-45.4V611.11H524.36z"/>
		<path class="st5" d="M788.77,838.32h-53.25l-12.73-31.82h-95.04l-12.94,31.82h-53.25l113.92-227.21L788.77,838.32z M703.06,760.04
			l-27.58-55.16l-27.58,55.16H703.06z"/>
		<path class="st5" d="M834.1,824.96c-10.33-4.95-18.32-10.04-23.97-15.27l15.91-16.55l15.28-17.18c2.97,2.83,7.07,5.45,12.3,7.85
			c13.01,6.23,27.72,9.34,44.13,9.34c26.31,0,40.52-7.21,42.64-21.64v-1.06c0-4.1-1.48-7.99-4.45-11.67
			c-6.93-7.78-19.66-11.67-38.19-11.67c-32.53,0-56.5-8.98-71.92-26.94c-10.61-11.45-15.91-24.75-15.91-39.88
			c0-2.83,0.21-5.66,0.64-8.48c2.4-17.96,11.38-32.67,26.94-44.13c15.84-11.03,35.92-16.55,60.25-16.55
			c23.34,0,44.55,4.45,63.64,13.37c10.32,4.95,18.31,10.11,23.97,15.48l-31.18,33.1c0-0.85-4.1-3.32-12.31-7.42
			c-13.01-6.08-27.72-9.12-44.13-9.12c-26.31,0-40.31,6.93-42,20.79v2.97c0,3.68,1.27,6.93,3.82,9.76
			c6.93,7.78,19.66,11.67,38.18,11.67c32.38,0,56.57,8.98,72.55,26.94c10.18,11.88,15.27,25.17,15.27,39.88
			c0,3.25-0.21,6.29-0.64,9.12c-1.98,17.96-10.96,32.46-26.94,43.49c-15.84,11.46-35.93,17.18-60.25,17.18
			C874.41,838.32,853.19,833.87,834.1,824.96z"/>
	</g>
	<g>
		<path class="st0" d="M499.43,232.36c-56.56,0-102.41,45.85-102.41,102.41c0,25.88,9.62,49.5,25.46,67.53l75.91-151.58
			l77.04,152.68c16.41-18.16,26.41-42.23,26.41-68.64C601.85,278.21,555.99,232.36,499.43,232.36z"/>
		<path class="st0" d="M452,425.53c14.18,7.43,30.31,11.65,47.44,11.65c16.64,0,32.33-3.99,46.22-11.03l-47.27-93.54L452,425.53z"/>
		<path class="st0" d="M499.43,161.68c-95.6,0-173.1,77.5-173.1,173.1c0,95.6,77.5,173.1,173.1,173.1c95.6,0,173.1-77.5,173.1-173.1
			C672.53,239.18,595.03,161.68,499.43,161.68z M499.43,474.16c-76.86,0-139.39-62.53-139.39-139.39s62.53-139.39,139.39-139.39
			s139.39,62.53,139.39,139.39S576.29,474.16,499.43,474.16z"/>
	</g>
</g>
</svg>
