<?xml version="1.0" encoding="utf-8"?>
<!-- Generator: Adobe Illustrator 24.2.3, SVG Export Plug-In . SVG Version: 6.00 Build 0)  -->
<svg version="1.1" id="Layer_1" xmlns="http://www.w3.org/2000/svg" xmlns:xlink="http://www.w3.org/1999/xlink" x="0px" y="0px"
	 viewBox="0 0 64 64" style="enable-background:new 0 0 64 64;" xml:space="preserve">
<style type="text/css">
	.st0{opacity:0.3;}
	.st1{fill:#F38220;}
	.st2{fill:none;stroke:#F38220;stroke-width:6;stroke-miterlimit:10;}
</style>
<g class="st0">
	<g>
		<path class="st1" d="M15.2,21.7c1.6-2.5,3.7-4.6,6.1-6.1l-6-10.4C11,7.8,7.4,11.4,4.8,15.7L15.2,21.7z"/>
	</g>
</g>
<g class="st0">
	<g>
		<path class="st1" d="M32.8,12.5c3,0.1,5.9,0.9,8.4,2.2l6-10.4C42.9,2,38,0.6,32.8,0.5V12.5z"/>
	</g>
</g>
<g class="st0">
	<g>
		<path class="st1" d="M22.7,14.7c2.5-1.3,5.4-2.1,8.4-2.1l0.1-12C26,0.7,21.1,2,16.8,4.3L22.7,14.7z"/>
	</g>
</g>
<g class="st0">
	<g>
		<path class="st1" d="M48.8,43c-1.6,2.5-3.7,4.6-6.1,6.1l6,10.4c4.3-2.6,7.9-6.2,10.5-10.5L48.8,43z"/>
	</g>
</g>
<g class="st0">
	<g>
		<path class="st1" d="M15.2,43L4.8,49c2.6,4.3,6.2,7.9,10.5,10.5l6-10.4C18.9,47.5,16.8,45.4,15.2,43z"/>
	</g>
</g>
<g class="st0">
	<g>
		<path class="st1" d="M48.8,21.7l10.4-6C56.6,11.4,53,7.8,48.7,5.2l-6,10.4C45.1,17.1,47.2,19.2,48.8,21.7z"/>
	</g>
</g>
<g class="st0">
	<g>
		<path class="st1" d="M12.2,31.5c0.1-3,0.9-5.9,2.2-8.4L4,17.1c-2.3,4.3-3.7,9.2-3.9,14.4H12.2z"/>
	</g>
</g>
<g class="st0">
	<g>
		<path class="st1" d="M51.8,33.2c-0.1,3-0.9,5.9-2.2,8.4l10.4,6c2.3-4.3,3.7-9.2,3.9-14.4C63.9,33.2,51.8,33.2,51.8,33.2z"/>
	</g>
</g>
<g class="st0">
	<g>
		<path class="st1" d="M49.6,23.1c1.3,2.5,2.1,5.4,2.2,8.4h12c-0.1-5.2-1.5-10.1-3.9-14.4L49.6,23.1z"/>
	</g>
</g>
<g class="st0">
	<g>
		<path class="st1" d="M41.2,49.9c-2.5,1.3-5.4,2.1-8.4,2.2v12c5.2-0.1,10.1-1.5,14.4-3.9L41.2,49.9z"/>
	</g>
</g>
<g class="st0">
	<g>
		<path class="st1" d="M14.4,41.5c-1.3-2.5-2.1-5.4-2.2-8.4h-12C0.3,38.4,1.6,43.3,4,47.6L14.4,41.5z"/>
	</g>
</g>
<g class="st0">
	<g>
		<path class="st1" d="M31.2,52.2c-3-0.1-5.9-0.9-8.4-2.2l-6,10.4c4.3,2.3,9.2,3.7,14.4,3.9V52.2z"/>
	</g>
</g>
<line class="st2" x1="21.2" y1="21.8" x2="42.3" y2="43"/>
</svg>
