<?xml version="1.0" encoding="utf-8"?>
<!-- Generator: Adobe Illustrator 24.2.1, SVG Export Plug-In . SVG Version: 6.00 Build 0)  -->
<svg version="1.1" id="Layer_1" xmlns="http://www.w3.org/2000/svg" xmlns:xlink="http://www.w3.org/1999/xlink" x="0px" y="0px"
	 viewBox="0 0 64 64" style="enable-background:new 0 0 64 64;" xml:space="preserve">
<style type="text/css">
	.st0{fill:#231F20;}
	.st1{fill:#F39347;}
	.st2{fill:#FFFFFF;}
	.st3{fill:#F38220;}
	.st4{opacity:0.3;}
	.st5{opacity:0.5;}
	.st6{opacity:0.36;}
	.st7{fill:none;stroke:#F38220;stroke-width:0.75;stroke-linecap:round;stroke-miterlimit:10;}
</style>
<path class="st3" d="M55.7,60.2c0,2.1-1.7,3.8-3.8,3.8H11.6c-2.1,0-3.8-1.7-3.8-3.8V32.3c0-2.1,1.7-3.8,3.8-3.8H52
	c2.1,0,3.8,1.7,3.8,3.8V60.2z"/>
<g>
	<g>
		<path class="st3" d="M43.2,13.1c1,1.8,1.7,3.8,2.2,6.3c1.3,0,2.6,0,3.9,0c-0.3-1.6-0.7-3.2-1.2-4.8c-1.2-3.5-2.8-6.3-4.8-8.4
			c-1.4-1.4-3.1-2.6-4.9-3.5c-1.9-0.9-4-1.3-6.3-1.3c-2.5,0-4.8,0.4-6.8,1.3c-2,0.9-3.7,2.1-5.1,3.7c-2.1,2.2-3.6,5-4.7,8.5
			c-1.1,3.4-1.6,16.7-1.6,21.2v1c0.9,0.1,1.7,0.1,2.4,0.2c0.7,0.1,1.2,0.1,1.3,0.1c0-0.3,0-0.5,0-0.8v-0.5c0-2.4,0.2-14.2,0.7-16.6
			c0.5-2.4,1.3-4.6,2.4-6.6c1.3-2.4,2.9-4.1,4.9-5.2C27.4,6.5,29.6,6,31.9,6c2.3,0,4.4,0.6,6.4,1.8S41.9,10.8,43.2,13.1z"/>
		<path class="st3" d="M18.5,38.4l-1.1-0.1c-0.2,0-0.6-0.1-1.3-0.1c-0.7-0.1-1.5-0.2-2.4-0.2l-0.9-0.1V36c0-3.9,0.5-17.7,1.7-21.4
			c1.1-3.6,2.8-6.5,4.9-8.8c1.5-1.6,3.3-2.9,5.4-3.9c2.1-0.9,4.5-1.4,7.2-1.4c2.4,0,4.7,0.5,6.7,1.4c2,0.9,3.7,2.2,5.2,3.7
			c2.1,2.2,3.8,5.1,5.1,8.7c0.6,1.6,1,3.2,1.3,5l0.2,1.1l-1.1,0c-1.5,0-2.8,0-3.9,0l-0.8,0l-0.2-0.8c-0.5-2.3-1.2-4.3-2.1-6
			c-1.2-2.1-2.7-3.8-4.5-4.9C36,7.5,34,6.9,31.9,6.9c-2.2,0-4.2,0.5-6,1.5c-1.8,1-3.3,2.7-4.5,4.9c-1,1.9-1.8,4-2.3,6.3
			c-0.5,2.2-0.7,13.7-0.7,16.4v0.5c0,0.2,0,0.4,0,0.7L18.5,38.4z M14.7,36.1c0.5,0,1.1,0.1,1.6,0.2c0.1,0,0.2,0,0.3,0v-0.2
			c0-1.9,0.2-14.1,0.8-16.8c0.5-2.5,1.3-4.8,2.5-6.8C21.1,9.9,22.9,8,25,6.8C27.1,5.6,29.4,5,31.9,5c2.5,0,4.8,0.7,6.9,2
			c2.1,1.3,3.8,3.2,5.2,5.6l0,0c0.9,1.6,1.6,3.6,2.1,5.8c0.6,0,1.3,0,2,0c-0.3-1.2-0.6-2.4-1-3.6c-1.1-3.4-2.7-6.1-4.6-8
			c-1.3-1.3-2.9-2.4-4.7-3.3c-1.8-0.8-3.7-1.2-5.9-1.2c-2.4,0-4.6,0.4-6.4,1.3c-1.9,0.8-3.5,2-4.8,3.4c-2,2.1-3.5,4.8-4.5,8.1
			C15.3,18.4,14.7,31.4,14.7,36.1L14.7,36.1z"/>
	</g>
</g>
<circle class="st2" cx="31.9" cy="41.5" r="4"/>
<path class="st2" d="M33.9,54.4h-4c-0.3,0-0.6-0.3-0.6-0.6V41.8c0-0.3,0.3-0.6,0.6-0.6h4c0.3,0,0.6,0.3,0.6,0.6v11.9
	C34.5,54.1,34.3,54.4,33.9,54.4z"/>
</svg>
