<?xml version="1.0" encoding="utf-8"?>
<!-- Generator: Adobe Illustrator 24.2.1, SVG Export Plug-In . SVG Version: 6.00 Build 0)  -->
<svg version="1.1" id="Layer_1" xmlns="http://www.w3.org/2000/svg" xmlns:xlink="http://www.w3.org/1999/xlink" x="0px" y="0px"
	 viewBox="0 0 64 64" style="enable-background:new 0 0 64 64;" xml:space="preserve">
<style type="text/css">
	.st0{fill:#231F20;}
	.st1{fill:#F39347;}
	.st2{fill:#FFFFFF;}
	.st3{fill:#F38220;}
	.st4{opacity:0.3;}
	.st5{opacity:0.5;}
	.st6{opacity:0.36;}
	.st7{fill:none;stroke:#F38220;stroke-width:0.75;stroke-linecap:round;stroke-miterlimit:10;}
</style>
<path class="st3" d="M55.7,60.2c0,2.1-1.7,3.8-3.8,3.8H11.6c-2.1,0-3.8-1.7-3.8-3.8V32.3c0-2.1,1.7-3.8,3.8-3.8H52
	c2.1,0,3.8,1.7,3.8,3.8V60.2z"/>
<circle class="st2" cx="31.9" cy="41.5" r="4"/>
<path class="st2" d="M33.9,54.4h-4c-0.3,0-0.6-0.3-0.6-0.6V41.8c0-0.3,0.3-0.6,0.6-0.6h4c0.3,0,0.6,0.3,0.6,0.6v11.9
	C34.5,54.1,34.3,54.4,33.9,54.4z"/>
<g>
	<g>
		<path class="st3" d="M17.4,28.9c-0.2,0-0.6-0.1-1.4-0.2c-0.8-0.1-1.6-0.2-2.5-0.2c0-0.1,0-0.3,0-0.5c0-0.2,0-0.3,0-0.5
			c0-4.6,0.6-8.6,1.7-12.2c1.1-3.6,2.7-6.5,4.9-8.7c1.5-1.6,3.2-2.8,5.3-3.8s4.4-1.4,7-1.4c2.4,0,4.5,0.5,6.5,1.4
			C40.8,3.8,42.5,5,44,6.4c2.1,2.1,3.8,5,5,8.7c1.2,3.6,1.9,7.5,1.9,11.6c0,0.2,0,0.4,0,0.7c0,0.3,0,0.4,0,0.6
			c-0.3,0-0.8,0.1-1.6,0.1c-0.7,0.1-1.5,0.1-2.3,0.2c0-0.2,0-0.3,0-0.5s0-0.3,0-0.5c0-2.3-0.2-4.8-0.7-7.3c-0.5-2.5-1.2-4.7-2.2-6.5
			c-1.3-2.4-3-4.2-5-5.4c-2-1.3-4.2-1.9-6.6-1.9c-2.4,0-4.7,0.6-6.7,1.7c-2,1.1-3.7,2.9-5,5.4c-1.1,2-1.9,4.3-2.4,6.8
			c-0.5,2.5-0.8,5-0.8,7.5c0,0.1,0,0.3,0,0.5C17.4,28.4,17.4,28.6,17.4,28.9z"/>
		<path class="st3" d="M18.5,30l-1.2-0.1c-0.2,0-0.6-0.1-1.4-0.2c-0.8-0.1-1.6-0.2-2.4-0.2l-0.9-0.1v-1.9c0-4.6,0.6-8.8,1.7-12.5
			c1.2-3.7,2.9-6.7,5.1-9.1c1.5-1.7,3.4-3,5.6-4c2.2-1,4.7-1.5,7.4-1.5c2.5,0,4.8,0.5,6.9,1.5c2,1,3.9,2.2,5.4,3.8
			c2.2,2.2,4,5.3,5.2,9c1.3,3.7,1.9,7.7,1.9,11.9v2.2L50.9,29c-0.3,0-0.8,0.1-1.5,0.1c-0.7,0.1-1.5,0.1-2.3,0.2L46,29.4v-2
			c0-2.3-0.2-4.6-0.7-7.1c-0.5-2.4-1.2-4.5-2.1-6.2c-1.2-2.2-2.8-3.9-4.7-5.1c-1.9-1.2-3.9-1.8-6.1-1.8c-2.3,0-4.4,0.5-6.2,1.6
			c-1.8,1-3.4,2.7-4.7,5c-1.1,1.9-1.9,4.1-2.3,6.5c-0.5,2.4-0.7,4.9-0.7,7.3v0.5c0,0.2,0,0.5,0,0.7L18.5,30z M14.6,27.6
			c0.6,0.1,1.1,0.1,1.6,0.2c0.1,0,0.2,0,0.3,0v-0.2c0-2.5,0.3-5.1,0.8-7.6c0.5-2.6,1.4-5,2.6-7.1c1.4-2.6,3.3-4.6,5.4-5.8
			c2.1-1.2,4.6-1.8,7.2-1.8c2.5,0,4.9,0.7,7.1,2.1c2.2,1.4,4,3.3,5.4,5.8c1,1.9,1.8,4.2,2.3,6.8c0.5,2.5,0.8,5,0.8,7.4
			c0.4,0,0.9-0.1,1.3-0.1c0.2,0,0.5,0,0.7-0.1v-0.4c0-4-0.6-7.8-1.8-11.3c-1.2-3.5-2.8-6.3-4.8-8.3c-1.4-1.4-3-2.5-4.8-3.4
			c-1.8-0.9-3.8-1.3-6.1-1.3c-2.5,0-4.7,0.4-6.6,1.3c-1.9,0.9-3.6,2.1-5,3.5c-2,2.2-3.6,5-4.6,8.4C15.1,19.1,14.6,23.1,14.6,27.6
			L14.6,27.6z"/>
	</g>
</g>
</svg>
