<?xml version="1.0" encoding="utf-8"?>
<!-- Generator: Adobe Illustrator 24.2.1, SVG Export Plug-In . SVG Version: 6.00 Build 0)  -->
<svg version="1.1" id="Layer_1" xmlns="http://www.w3.org/2000/svg" xmlns:xlink="http://www.w3.org/1999/xlink" x="0px" y="0px"
	 viewBox="0 0 64 64" style="enable-background:new 0 0 64 64;" xml:space="preserve">
<style type="text/css">
	.st0{fill:#231F20;}
	.st1{fill:#F39347;}
	.st2{fill:#FFFFFF;}
	.st3{fill:#F38220;}
	.st4{opacity:0.3;}
	.st5{opacity:0.5;}
	.st6{fill:none;}
	.st7{opacity:0.36;}
	.st8{fill:none;stroke:#F38220;stroke-width:0.75;stroke-linecap:round;stroke-miterlimit:10;}
</style>
<g class="st5">
	<path class="st3" d="M35.5,8c-7.2-0.1-13.6,2.3-14.2,5.5c-0.3,1.5,0.7,2.8,2.5,3.9L35.2,9l8.1,8.8c2.3-1,3.8-2.3,4.1-3.8
		C48.1,10.8,42.7,8.1,35.5,8z"/>
	<path class="st3" d="M27.3,18.7c1.7,0.5,3.7,0.7,5.9,0.8c2.1,0,4.2-0.1,6-0.5l-5-5.4L27.3,18.7z"/>
	<path class="st3" d="M36.3,4c-12.2-0.2-22.9,3.9-24,9.3c-1.1,5.4,8,9.9,20.2,10.2c12.2,0.2,22.9-3.9,24-9.3
		C57.5,8.8,48.5,4.2,36.3,4z M32.8,21.6c-9.8-0.2-17.1-3.9-16.2-8.2c0.9-4.3,9.5-7.7,19.3-7.5S53,9.8,52.1,14.1
		C51.3,18.4,42.6,21.7,32.8,21.6z"/>
</g>
<g class="st5">
	<path class="st6" d="M49.4,44v-6.8c-1.1,0.7-2.3,1.3-3.6,1.9v7C47.1,45.5,48.4,44.8,49.4,44z"/>
	<path class="st6" d="M44,46.9v-7c-1.1,0.4-2.4,0.8-3.6,1.1V48C41.7,47.7,42.9,47.3,44,46.9z"/>
	<path class="st6" d="M51.1,42.5c1.5-1.5,2.3-3.2,2.3-4.9v-3.8c-0.7,0.8-1.5,1.6-2.5,2.3h0.2V42.5z"/>
	<path class="st6" d="M6.6,36.2c-0.9-0.8-1.7-1.6-2.3-2.4v3.9c0,1.7,0.8,3.4,2.3,4.9L6.6,36.2L6.6,36.2z"/>
	<path class="st6" d="M34.2,2.2C20.9,2.2,9.6,7.7,9.6,14.1s11.3,11.9,24.6,11.9c13.3,0,24.6-5.4,24.6-11.9S47.5,2.2,34.2,2.2z"/>
	<path class="st6" d="M8.3,37.4V44c1,0.8,2.3,1.5,3.6,2.1v-6.8C10.6,38.7,9.4,38.1,8.3,37.4z"/>
	<path class="st6" d="M22.6,49.1v-7c-1.2-0.2-2.4-0.3-3.6-0.6v7C20.2,48.7,21.4,48.9,22.6,49.1z"/>
	<path class="st6" d="M39.6,48.2h-0.9v-6.9c-1.2,0.3-2.4,0.5-3.6,0.6l0,7.1C36.6,48.9,38.1,48.6,39.6,48.2z"/>
	<path class="st6" d="M28,49.5v-7.1c-1.2,0-2.4-0.1-3.6-0.2v7C25.5,49.4,26.7,49.4,28,49.5z"/>
	<path class="st6" d="M33.3,49.3v-7.1c-1.2,0.1-2.4,0.2-3.6,0.2v7.1C30.9,49.4,32.1,49.4,33.3,49.3z"/>
	<path class="st6" d="M9.6,19v0.2c0,0,0.1,0,0.1,0C9.7,19.1,9.6,19.1,9.6,19z"/>
	<path class="st6" d="M24.3,26.7v7c1.2,0.3,2.5,0.5,3.7,0.6l-0.1-7C26.7,27.2,25.5,27,24.3,26.7z"/>
	<path class="st6" d="M29.7,27.5v7c1.2,0.1,2.4,0.2,3.6,0.2v-7.1C32.1,27.7,30.9,27.6,29.7,27.5z"/>
	<path class="st6" d="M19,25.3v6.9c1.1,0.4,2.3,0.8,3.6,1.2v-7C21.3,26,20.1,25.7,19,25.3z"/>
	<path class="st6" d="M56.4,21.5L56.4,21.5l0.1,6.3c1.5-1.5,2.3-3.2,2.3-4.9V19C58.1,19.9,57.3,20.7,56.4,21.5z"/>
	<path class="st6" d="M13.6,22.7v6.6c1,0.7,2.2,1.4,3.5,2.1l0.1-6.8C15.9,24,14.7,23.4,13.6,22.7z"/>
	<path class="st6" d="M11.9,21.5c-0.3-0.3-0.6-0.5-0.9-0.8c-0.5,0.3-1,0.5-1.4,0.8v1.4c0,1.7,0.8,3.4,2.3,4.9L11.9,21.5L11.9,21.5z"
		/>
	<path class="st6" d="M45.8,26.3v7c1.3-0.3,2.5-0.7,3.6-1.2v-6.9C48.2,25.7,47,26,45.8,26.3z"/>
	<path class="st6" d="M51.1,24.6v6.8c1.4-0.6,2.6-1.3,3.6-2.1v-6.6C53.7,23.4,52.4,24,51.1,24.6z"/>
	<path class="st6" d="M35.1,27.7v7.1c1.2,0,2.4-0.1,3.6-0.2v-7C37.5,27.6,36.3,27.7,35.1,27.7z"/>
	<path class="st6" d="M40.4,27.3l-0.1,7c1.3-0.2,2.5-0.4,3.7-0.6l0-7C42.9,27,41.6,27.2,40.4,27.3z"/>
	<path class="st6" d="M17.3,48v-7c-1.3-0.3-2.5-0.7-3.6-1.1v6.9C14.8,47.3,16,47.7,17.3,48z"/>
	<path class="st6" d="M4.3,28.8c0,6.4,11.3,11.9,24.6,11.9c9.6,0,19-3.5,23.1-7.8c-4.7,2.2-10.9,3.6-17.8,3.6
		c-14.5,0-26.3-6.1-26.3-13.6v-0.2C5.6,24.6,4.3,26.7,4.3,28.8z"/>
	<path class="st3" d="M9.7,19.2C9.7,19.2,9.6,19.2,9.7,19.2l-0.1,2.3c0.4-0.3,0.9-0.6,1.4-0.8C10.5,20.2,10.1,19.7,9.7,19.2z"/>
	<path class="st3" d="M4.3,28.8c0-2.1,1.3-4.2,3.6-6.1v-2.5c-3.4,2.2-5.1,5-5.3,7.9h1.7V28.8z"/>
	<path class="st3" d="M28.8,40.7c-13.3,0-24.6-5.4-24.6-11.9v4.9c0.6,0.9,1.4,1.7,2.3,2.4h1.7v1.2c1.1,0.7,2.3,1.3,3.6,1.9v-0.4h1.7
		V40c1.1,0.4,2.3,0.8,3.6,1.1v-0.9H19v1.3c1.2,0.2,2.4,0.4,3.6,0.6v-0.5h1.7v0.7c1.2,0.1,2.4,0.2,3.6,0.2v-0.9h1.7v0.9
		c1.2,0,2.4-0.1,3.6-0.2v-0.6h1.7l0,0.5c1.2-0.2,2.4-0.4,3.6-0.6v-1.2h1.7V41c1.3-0.3,2.5-0.7,3.6-1.1v-1h1.7v0.3
		c1.3-0.6,2.5-1.2,3.6-1.9v-1.1h1.5c1-0.7,1.8-1.5,2.5-2.3v-1.3c-0.1-0.1-0.2-0.1-0.4-0.2c-0.3,0.2-0.7,0.4-1.1,0.5
		C47.8,37.2,38.5,40.7,28.8,40.7z"/>
	<path class="st3" d="M28.8,49.5c0.3,0,0.6,0,0.9,0v-7.1c-0.3,0-0.6,0-0.9,0c-0.3,0-0.6,0-0.9,0v7.1C28.3,49.5,28.5,49.5,28.8,49.5z
		"/>
	<path class="st3" d="M29.7,42.4v-0.9H28v0.9c0.3,0,0.6,0,0.9,0C29.1,42.4,29.4,42.4,29.7,42.4z"/>
	<path class="st3" d="M35,49.1l0-7.1c-0.6,0.1-1.2,0.1-1.7,0.2v7.1C33.9,49.2,34.5,49.2,35,49.1z"/>
	<path class="st3" d="M35.1,41.6h-1.7v0.6c0.6-0.1,1.2-0.1,1.7-0.2L35.1,41.6z"/>
	<path class="st3" d="M39.6,48.2c0.3-0.1,0.6-0.1,0.9-0.2V41c-0.6,0.1-1.2,0.3-1.7,0.4l0.1,7.6L39.6,48.2z"/>
	<path class="st3" d="M40.4,40.2h-1.7v1.2c0.6-0.1,1.2-0.3,1.7-0.4V40.2z"/>
	<path class="st3" d="M45.8,46.1v-7c-0.6,0.2-1.1,0.5-1.7,0.7v7C44.6,46.6,45.2,46.4,45.8,46.1z"/>
	<path class="st3" d="M45.8,38.9H44v1c0.6-0.2,1.2-0.5,1.7-0.7V38.9z"/>
	<path class="st3" d="M51.1,42.5v-6.3h-0.2c-0.5,0.4-1,0.7-1.5,1.1V44C50,43.5,50.6,43,51.1,42.5z"/>
	<path class="st3" d="M49.4,36.2v1.1c0.5-0.3,1.1-0.7,1.5-1.1H49.4z"/>
	<path class="st3" d="M19,48.4v-7c-0.6-0.1-1.2-0.2-1.7-0.4v7C17.8,48.2,18.4,48.3,19,48.4z"/>
	<path class="st3" d="M19,40.2h-1.7v0.9c0.6,0.1,1.2,0.3,1.7,0.4V40.2z"/>
	<path class="st3" d="M24.4,49.3v-7c-0.6-0.1-1.2-0.1-1.7-0.2v7C23.2,49.2,23.8,49.2,24.4,49.3z"/>
	<path class="st3" d="M24.4,41.6h-1.7V42c0.6,0.1,1.2,0.1,1.7,0.2V41.6z"/>
	<path class="st3" d="M6.6,36.2L6.6,36.2l-0.1,6.3C7,43,7.6,43.5,8.3,44v-6.6C7.7,37,7.1,36.6,6.6,36.2z"/>
	<path class="st3" d="M8.3,36.2H6.6c0.5,0.4,1.1,0.8,1.7,1.2V36.2z"/>
	<path class="st3" d="M13.6,40c-0.6-0.2-1.2-0.4-1.7-0.7l0,7.3c0.6,0.3,1.2,0,1.8,0.2V40z"/>
	<path class="st3" d="M13.6,38.9h-1.7v0.4c0.6,0.2,1.1,0.5,1.7,0.7V38.9z"/>
	<path class="st6" d="M28.8,51.2c-1.1,0-2.1,0-3.1-0.1c2.7,0.4,5.6,0.6,8.5,0.6c13.3,0,24.6-5.4,24.6-11.8c0-2.2-1.3-4.3-3.6-6.1
		v3.9C55.2,45.1,43.4,51.2,28.8,51.2z"/>
	<path class="st6" d="M56.4,47.2L56.4,47.2l0.1,6.3c1.5-1.5,2.3-3.2,2.3-4.9v-3.9C58.1,45.7,57.3,46.5,56.4,47.2z"/>
	<path class="st6" d="M51.1,50.3v6.8c1.4-0.6,2.6-1.3,3.6-2.1v-6.6C53.7,49.1,52.4,49.8,51.1,50.3z"/>
	<path class="st6" d="M40.4,53.1l-0.1,7c1.3-0.2,2.6-0.4,3.8-0.7l-0.1-7C42.9,52.8,41.7,53,40.4,53.1z"/>
	<path class="st6" d="M45.8,52.1v7c1.3-0.3,2.5-0.7,3.6-1.2V51C48.2,51.5,47,51.8,45.8,52.1z"/>
	<path class="st6" d="M35.1,53.5v7.1c1.2,0,2.4-0.1,3.6-0.2v-7C37.5,53.4,36.3,53.4,35.1,53.5z"/>
	<path class="st6" d="M19,51v6.9c1.1,0.4,2.3,0.8,3.6,1.2v-7C21.3,51.8,20.1,51.4,19,51z"/>
	<path class="st6" d="M24.3,52.5v7c1.1,0.2,2.2,0.4,3.4,0.6l0.2-7C26.7,52.9,25.5,52.7,24.3,52.5z"/>
	<path class="st6" d="M14.8,49.1c-0.4-0.1-0.8-0.3-1.2-0.4v6.4c1,0.7,2.2,1.4,3.5,2l0.1-6.8C16.4,49.9,15.6,49.5,14.8,49.1z"/>
	<path class="st6" d="M29.7,53.3v7.1c1.2,0.1,2.4,0.2,3.6,0.2v-7.1C32.1,53.4,30.9,53.4,29.7,53.3z"/>
	<path class="st3" d="M34.2,53.5c-0.3,0-0.6,0-0.9,0v7.1c0.3,0,0.6,0,0.9,0c0.3,0,0.6,0,0.9,0v-7.1C34.8,53.5,34.5,53.5,34.2,53.5z"
		/>
	<path class="st3" d="M38.7,53.3v7c0.5-0.1,1.1-0.1,1.6-0.2l0.1-7C39.8,53.2,39.3,53.2,38.7,53.3z"/>
	<path class="st3" d="M44,52.5l0.1,7c0.6-0.1,1.1-0.3,1.7-0.4v-7C45.2,52.3,44.6,52.4,44,52.5z"/>
	<path class="st3" d="M49.4,51v6.9c0.6-0.2,1.2-0.5,1.7-0.7v-6.8C50.6,50.6,50,50.8,49.4,51z"/>
	<path class="st3" d="M56.4,47.2c-0.5,0.4-1.1,0.8-1.7,1.2v6.6c0.7-0.5,1.2-1,1.7-1.5L56.4,47.2L56.4,47.2z"/>
	<path class="st3" d="M22.6,52.1v7c0.6,0.2,1.2,0.3,1.7,0.4v-7C23.7,52.4,23.2,52.2,22.6,52.1z"/>
	<path class="st3" d="M27.9,53.1l-0.2,7c0.6,0.1,1.3,0.2,1.9,0.2v-7.1C29.1,53.2,28.5,53.2,27.9,53.1z"/>
	<path class="st6" d="M9.6,46.9v1.8c0,1.7,0.8,3.4,2.3,4.9V48C11.1,47.7,10.3,47.3,9.6,46.9z"/>
	<path class="st3" d="M13.6,48.7c0.4,0.1,0.8,0.3,1.2,0.4c-0.4-0.2-0.8-0.5-1.2-0.7V48.7z"/>
	<path class="st3" d="M14.1,47.3c0.9,0.6,2,1.1,3.1,1.6V48c-1.3-0.3-2.5-0.7-3.6-1.2v1.4h0v0.2L14.1,47.3z"/>
	<path class="st3" d="M22.6,50.5v-1.5c-1.2-0.2-2.4-0.4-3.6-0.6v1.1C20.1,49.9,21.3,50.3,22.6,50.5z"/>
	<path class="st3" d="M9.6,46.9c0.7,0.4,1.5,0.8,2.3,1.1v-0.8h0v-1.1c-1.4-0.6-2.6-1.3-3.6-2.1v0.2H6.5v-1.7
		c-1.5-1.5-2.3-3.2-2.3-4.9v-3.9c-1.1-1.5-1.7-3.2-1.7-4.9v8.8c0,3.1,2,6,5.5,8.3h1.6V46.9z"/>
	<path class="st3" d="M2.5,28.2v0.7C2.5,28.6,2.5,28.4,2.5,28.2L2.5,28.2z"/>
	<path class="st3" d="M54.1,33c-0.2,0.3-0.4,0.6-0.6,0.8v3.8c0,1.7-0.8,3.4-2.3,4.9v1.7h-1.7V44c-1,0.8-2.3,1.5-3.6,2.1v0.8H44v0
		c-1.1,0.4-2.3,0.8-3.6,1.2v0.2h-0.9c-1.4,0.3-3,0.6-4.5,0.8l0,1.2l-1.7,0.6v-1.7c-1.2,0.1-2.4,0.2-3.6,0.2v1.5H28v-1.5
		c-1.2,0-2.4-0.1-3.6-0.2v1.6c0.4,0.1,0.9,0.2,1.4,0.2c1,0.1,2.1,0.1,3.1,0.1c14.5,0,26.3-6.1,26.3-13.6v-3.9
		C54.8,33.5,54.4,33.2,54.1,33L54.1,33z"/>
	<path class="st3" d="M4.3,28.8v-0.7H2.5c0,0.2,0,0.4,0,0.7c0,1.8,0.6,3.4,1.7,4.9V28.8z"/>
	<path class="st3" d="M54,33c-0.2-0.1-0.4-0.3-0.6-0.4v1.3C53.6,33.6,53.9,33.3,54,33L54,33z"/>
	<path class="st3" d="M28,49.5v1.5h1.7v-1.5c-0.3,0-0.6,0-0.9,0S28.3,49.5,28,49.5z"/>
	<path class="st3" d="M33.3,50.9l1.7-0.6l0-1.2c-0.6,0.1-1.1,0.1-1.7,0.2V50.9z"/>
	<path class="st3" d="M40.4,48.2V48c-0.3,0.1-0.6,0.1-0.9,0.2H40.4z"/>
	<path class="st3" d="M44,46.9h1.7v-0.8C45.2,46.4,44.6,46.6,44,46.9L44,46.9z"/>
	<path class="st3" d="M49.4,44v0.2h1.7v-1.7C50.6,43,50,43.5,49.4,44z"/>
	<path class="st3" d="M19,49.5v-1.1c-0.6-0.1-1.2-0.3-1.7-0.4v0.9C17.8,49.1,18.4,49.3,19,49.5z"/>
	<path class="st3" d="M22.6,50.5c0.6,0.1,1.2,0.2,1.7,0.3v-1.6c-0.6-0.1-1.2-0.1-1.7-0.2V50.5z"/>
	<path class="st3" d="M6.5,42.5v1.7h1.7V44C7.6,43.5,7,43,6.5,42.5z"/>
	<path class="st3" d="M13.6,48.2L13.6,48.2l0-1.4c-0.6-0.2-1.2-0.5-1.7-0.7v1.1h1.7V48.2z"/>
	<path class="st3" d="M53.5,32.2h1.6v1.6c2.3,1.8,3.6,4,3.6,6.1v-0.7h1.7c-0.3-2.9-2.3-5.6-5.7-7.9C54.4,31.6,53.9,31.9,53.5,32.2
		L53.5,32.2z"/>
	<path class="st3" d="M53.4,32.6v-0.4h0.1l0-0.1c-0.1,0.1-0.3,0.2-0.4,0.2C53.2,32.4,53.3,32.5,53.4,32.6z"/>
	<path class="st3" d="M17.7,49.9c-1-0.2-2-0.5-2.9-0.8c0.8,0.4,1.6,0.8,2.4,1.2l0-0.4H17.7z"/>
	<path class="st3" d="M34.2,51.7c-2.9,0-5.8-0.2-8.5-0.6c-0.7,0-1.5-0.1-2.2-0.2h-0.9v-0.1c-1.3-0.2-2.5-0.4-3.6-0.6V51
		c1.1,0.4,2.4,0.8,3.6,1.1v-0.8h1.7v1.2c1.2,0.2,2.4,0.4,3.6,0.6l0-0.5h1.7v0.7c1.2,0.1,2.4,0.2,3.6,0.2v-0.8h1.7v0.9
		c1.2,0,2.4-0.1,3.6-0.2v-0.7h1.7l0,0.5c1.3-0.2,2.5-0.3,3.6-0.6l0-1.3h1.7v0.9c1.3-0.3,2.5-0.7,3.6-1.1v-1.1h1.7v0.4
		c1.3-0.6,2.5-1.2,3.6-1.9v-1.2h1.7c0.9-0.8,1.7-1.6,2.4-2.4v-4.9C58.8,46.3,47.5,51.7,34.2,51.7z"/>
	<path class="st3" d="M22.6,50.9h0.9C23.2,50.9,22.9,50.9,22.6,50.9L22.6,50.9z"/>
	<path class="st3" d="M35.1,53.5v-0.9h-1.7v0.8c0.3,0,0.6,0,0.9,0C34.5,53.5,34.8,53.5,35.1,53.5z"/>
	<path class="st3" d="M40.4,52.6h-1.7v0.7c0.6,0,1.2-0.1,1.7-0.2L40.4,52.6z"/>
	<path class="st3" d="M45.8,51.3H44l0,1.3c0.6-0.1,1.2-0.3,1.7-0.4V51.3z"/>
	<path class="st3" d="M51.1,49.9h-1.7V51c0.6-0.2,1.2-0.5,1.7-0.7V49.9z"/>
	<path class="st3" d="M54.7,47.2v1.2c0.6-0.4,1.1-0.8,1.7-1.2H54.7z"/>
	<path class="st3" d="M24.3,51.3h-1.7v0.8c0.6,0.1,1.2,0.3,1.7,0.4V51.3z"/>
	<path class="st3" d="M29.7,52.6H28l0,0.5c0.6,0.1,1.2,0.1,1.8,0.2V52.6z"/>
	<path class="st3" d="M55.2,33.8v-1.6h-1.6L54,33C54.4,33.2,54.8,33.5,55.2,33.8z"/>
	<path class="st3" d="M53.4,32.6c0.2,0.1,0.4,0.3,0.6,0.4l-0.5-0.8h-0.1V32.6z"/>
	<path class="st3" d="M23.5,50.9c0.7,0.1,1.5,0.2,2.2,0.2c-0.5-0.1-0.9-0.1-1.4-0.2v0H23.5z"/>
	<path class="st3" d="M19,49.5L19,49.5l-1.7,0v-0.7c-1.1-0.5-2.2-1-3.1-1.6l-0.5,1.1v0c0.4,0.2,0.8,0.5,1.2,0.7
		c0.9,0.3,1.9,0.6,2.9,0.8H19v0.3c1.2,0.2,2.4,0.5,3.6,0.6v-0.3C21.3,50.3,20.1,49.9,19,49.5z"/>
	<path class="st3" d="M17.3,49.6H19v0c-0.6-0.2-1.2-0.4-1.7-0.7V49.6z"/>
	<path class="st3" d="M22.6,50.8c0.3,0,0.6,0.1,0.9,0.1h0.8v0c-0.6-0.1-1.2-0.2-1.7-0.3V50.8z"/>
	<path class="st3" d="M60.5,39.2L60.5,39.2c0,0.2,0,0.4,0,0.7V39.2z"/>
	<path class="st3" d="M58.8,48.7c0,1.7-0.8,3.4-2.3,4.9v1.7h-1.7v-0.2c-1,0.8-2.3,1.5-3.6,2.1V58h-1.7v0c-1.1,0.4-2.3,0.8-3.6,1.2
		v0.2l-1.6,0.9l0-0.7c-1.2,0.3-2.5,0.5-3.8,0.7l0,0.7L38.7,62v-1.7c-1.2,0.1-2.4,0.2-3.6,0.2V62h-1.7v-1.5c-1.2,0-2.4-0.1-3.6-0.2
		V62l-2-0.8l0-1.1c-1.2-0.2-2.3-0.4-3.4-0.6v1.1h-1.7v-1.6c-1.3-0.3-2.5-0.7-3.6-1.2v1.4l-1.9-0.9l0-1.3c-1.3-0.6-2.5-1.3-3.5-2v0.2
		h-1.7v-1.7c-1.5-1.5-2.3-3.2-2.3-4.9v-1.8c-0.6-0.3-1.1-0.6-1.6-1H7.9v2.8c0,7.5,11.8,13.6,26.3,13.6c14.5,0,26.3-6.1,26.3-13.6
		v-8.8c0,1.8-0.6,3.4-1.7,4.9V48.7z"/>
	<path class="st3" d="M33.3,60.5V62h1.7v-1.5c-0.3,0-0.6,0-0.9,0C33.9,60.5,33.6,60.5,33.3,60.5z"/>
	<path class="st3" d="M38.7,62l1.6-1.1l0-0.7c-0.5,0.1-1.1,0.1-1.6,0.2V62z"/>
	<path class="st3" d="M44.1,60.2l1.6-0.9v-0.2c-0.5,0.1-1.1,0.3-1.7,0.4L44.1,60.2z"/>
	<path class="st3" d="M49.4,58h1.7v-0.8C50.6,57.4,50,57.7,49.4,58L49.4,58z"/>
	<path class="st3" d="M54.7,55.1v0.2h1.7v-1.7C56,54.1,55.4,54.6,54.7,55.1z"/>
	<path class="st3" d="M22.6,60.6h1.7v-1.1c-0.6-0.1-1.2-0.3-1.7-0.4V60.6z"/>
	<path class="st3" d="M27.7,61.2l2,0.8v-1.7c-0.7-0.1-1.3-0.1-1.9-0.2L27.7,61.2z"/>
	<path class="st3" d="M9.6,45.9H8c0.5,0.3,1.1,0.7,1.6,1V45.9z"/>
	<path class="st3" d="M58.8,39.9v4.9c1.1-1.5,1.7-3.2,1.7-4.9c0-0.2,0-0.4,0-0.7h-1.7V39.9z"/>
	<path class="st3" d="M12.5,48.2h-0.6V48c0,0,0,0,0,0v5.6c0.5,0.5,1.1,1,1.7,1.5v-6.4C13.2,48.6,12.8,48.4,12.5,48.2z"/>
	<path class="st3" d="M11.9,48.2h0.6c-0.2-0.1-0.4-0.1-0.6-0.2V48.2z"/>
	<path class="st3" d="M11.9,47.2L11.9,47.2l0,0.8c0,0,0,0,0,0V47.2z"/>
	<path class="st3" d="M13.6,48.4L13.6,48.4l0-0.2h-1.2c0.4,0.2,0.8,0.3,1.2,0.5L13.6,48.4C13.6,48.4,13.6,48.4,13.6,48.4z"/>
	<path class="st3" d="M12.5,48.2h1.2v-1h-1.7V48C12.1,48.1,12.3,48.2,12.5,48.2z"/>
	<polygon class="st3" points="13.6,48.4 13.6,48.4 13.6,48.4 	"/>
	<path class="st3" d="M11.9,55.3h1.7v-0.2c-0.7-0.5-1.2-1-1.7-1.5V55.3z"/>
	<path class="st3" d="M17.2,50.3l-0.1,6.8c0.6,0.3,1.2,0.5,1.8,0.8V51C18.4,50.8,17.8,50.6,17.2,50.3z"/>
	<path class="st3" d="M17.2,49.9l0,0.4c0.6,0.2,1.1,0.5,1.7,0.7v-0.8c-0.4-0.1-0.9-0.2-1.3-0.3H17.2z"/>
	<path class="st3" d="M17.7,49.9c0.4,0.1,0.9,0.2,1.3,0.3v-0.3H17.7z"/>
	<path class="st3" d="M17.1,58.4l1.9,0.9v-1.4c-0.6-0.2-1.3-0.5-1.8-0.8L17.1,58.4z"/>
	<path class="st3" d="M9.6,14.1c0-6.4,11.3-11.9,24.6-11.9c13.3,0,24.6,5.4,24.6,11.9v-0.7h1.7c-0.7-7.3-12-12.9-26.3-12.9
		C19.9,0.5,8.5,6.1,7.9,13.4h1.7V14.1z"/>
	<path class="st3" d="M34.2,25.9c-13.3,0-24.6-5.4-24.6-11.9V19c0,0,0.1,0.1,0.1,0.1c0.3-0.2,0.6-0.3,1-0.5l1.3,1.5
		c-0.3,0.2-0.6,0.3-0.9,0.5c0.3,0.3,0.6,0.5,0.9,0.8h1.7v1.2c1.1,0.7,2.3,1.3,3.6,1.9l0-0.4H19v1.1c1.1,0.4,2.3,0.8,3.6,1.1v-0.9
		h1.7v1.3c1.2,0.2,2.4,0.4,3.6,0.6l0-0.5h1.7v0.7c1.2,0.1,2.4,0.2,3.6,0.2v-0.9h1.7v0.9c1.2,0,2.4-0.1,3.6-0.2v-0.7h1.7l0,0.5
		c1.2-0.2,2.5-0.3,3.6-0.6l0-1.3h1.7v0.9c1.3-0.3,2.5-0.7,3.6-1.1v-1.1h1.7v0.4c1.3-0.6,2.5-1.2,3.6-1.9v-1.2h1.7
		c0.9-0.8,1.7-1.6,2.3-2.4v-4.9C58.8,20.5,47.5,25.9,34.2,25.9z"/>
	<path class="st3" d="M11,20.7c0.3-0.2,0.6-0.3,0.9-0.5l-1.3-1.5c-0.3,0.2-0.6,0.3-1,0.5C10.1,19.7,10.5,20.2,11,20.7z"/>
	<path class="st3" d="M58.8,22.9c0,1.7-0.8,3.4-2.3,4.9v1.7h-1.7v-0.2c-1,0.8-2.3,1.5-3.6,2.1v0.8h-1.7v0c-1.1,0.4-2.3,0.8-3.6,1.2
		v0.2L44,34.2l0-0.5c-1.2,0.3-2.4,0.5-3.7,0.6l0,1.2l-1.6,0.6v-1.7c-1.2,0.1-2.4,0.2-3.6,0.2v1.5h-1.7v-1.5c-1.2,0-2.4-0.1-3.6-0.2
		v1.7l-1.6-1l0-0.8c-1.3-0.2-2.5-0.4-3.7-0.6v1.1h-1.7v-1.6c-1.3-0.3-2.5-0.7-3.6-1.2v1.4l-1.9-1l0-1.1c-1.3-0.6-2.5-1.3-3.5-2.1
		v0.2h-1.7v-1.7c-1.5-1.5-2.3-3.2-2.3-4.9v-1.4c-0.6,0.4-1.2,0.8-1.7,1.2v0.2c0,7.5,11.8,13.6,26.3,13.6c6.9,0,13.1-1.4,17.8-3.6
		c0.2-0.3,0.5-0.5,0.7-0.8c-0.1-0.1-0.2-0.1-0.3-0.2l0.8-1.5c0.6,0.3,1.1,0.6,1.6,0.9c3.6-2.3,5.7-5.3,5.7-8.5v-8.8
		c0,1.8-0.6,3.4-1.7,4.9V22.9z"/>
	<path class="st3" d="M60.5,13.4c0,0.2,0,0.4,0,0.7L60.5,13.4L60.5,13.4z"/>
	<path class="st3" d="M7.9,13.4v0.7C7.9,13.9,7.9,13.6,7.9,13.4L7.9,13.4z"/>
	<path class="st3" d="M9.6,19c-1.1-1.5-1.7-3.2-1.7-4.9v6.2c0.5-0.4,1.1-0.7,1.7-1V19z"/>
	<path class="st3" d="M52.7,32.1c-0.2,0.3-0.4,0.5-0.7,0.8c0.4-0.2,0.7-0.4,1.1-0.5C52.9,32.3,52.8,32.2,52.7,32.1z"/>
	<path class="st3" d="M9.6,21.5v-2.3c-0.6,0.3-1.2,0.7-1.7,1v2.5C8.4,22.3,9,21.9,9.6,21.5z"/>
	<path class="st3" d="M52.3,31.9c0.1,0.1,0.2,0.1,0.3,0.2c0.2-0.2,0.3-0.4,0.5-0.6l0.4,0.6c0.4-0.2,0.9-0.5,1.3-0.8
		c-0.5-0.3-1-0.6-1.6-0.9L52.3,31.9z"/>
	<path class="st3" d="M53.5,32.1l-0.4-0.6c-0.1,0.2-0.3,0.4-0.5,0.6c0.1,0.1,0.3,0.2,0.4,0.2C53.2,32.3,53.3,32.2,53.5,32.1z"/>
	<path class="st3" d="M58.8,13.4v0.7V19c1.1-1.5,1.7-3.2,1.7-4.9c0-0.2,0-0.4,0-0.7H58.8z"/>
	<path class="st3" d="M9.6,14.1v-0.7H7.9c0,0.2,0,0.4,0,0.7c0,1.8,0.6,3.4,1.7,4.9V14.1z"/>
	<path class="st3" d="M34.2,27.7c-0.3,0-0.6,0-0.9,0v7.1c0.3,0,0.6,0,0.9,0s0.6,0,0.9,0v-7.1C34.8,27.7,34.5,27.7,34.2,27.7z"/>
	<path class="st3" d="M35.1,27.7v-0.9h-1.7v0.9c0.3,0,0.6,0,0.9,0C34.5,27.7,34.8,27.7,35.1,27.7z"/>
	<path class="st3" d="M33.3,34.7v1.5h1.7v-1.5c-0.3,0-0.6,0-0.9,0S33.6,34.7,33.3,34.7z"/>
	<path class="st3" d="M38.7,27.5v7c0.5-0.1,1.1-0.1,1.6-0.2l0.1-7C39.8,27.4,39.3,27.4,38.7,27.5z"/>
	<path class="st3" d="M40.4,26.8h-1.7v0.7c0.6-0.1,1.2-0.1,1.7-0.2L40.4,26.8z"/>
	<path class="st3" d="M38.7,36.2l1.6-0.6l0-1.2c-0.5,0.1-1.1,0.1-1.6,0.2V36.2z"/>
	<path class="st3" d="M44,26.7l0,7c0.6-0.1,1.2-0.3,1.7-0.4v-7C45.2,26.5,44.6,26.6,44,26.7z"/>
	<path class="st3" d="M45.8,25.5H44l0,1.3c0.6-0.1,1.2-0.2,1.7-0.4V25.5z"/>
	<path class="st3" d="M44,34.2l1.7-0.7v-0.2c-0.6,0.2-1.1,0.3-1.7,0.4L44,34.2z"/>
	<path class="st3" d="M49.4,25.3v6.9c0.6-0.2,1.2-0.5,1.7-0.7v-6.8C50.6,24.8,50,25,49.4,25.3z"/>
	<path class="st3" d="M51.1,24.1h-1.7v1.1c0.6-0.2,1.2-0.4,1.7-0.7V24.1z"/>
	<path class="st3" d="M49.4,32.2h1.7v-0.8C50.6,31.7,50,31.9,49.4,32.2L49.4,32.2z"/>
	<path class="st3" d="M56.4,21.5c-0.5,0.4-1.1,0.8-1.7,1.2v6.6c0.7-0.5,1.2-1,1.7-1.5L56.4,21.5L56.4,21.5z"/>
	<path class="st3" d="M54.7,21.5v1.2c0.6-0.4,1.2-0.8,1.7-1.2H54.7z"/>
	<path class="st3" d="M54.7,29.3v0.2h1.7v-1.7C56,28.3,55.4,28.8,54.7,29.3z"/>
	<path class="st3" d="M22.6,26.3v7c0.6,0.2,1.2,0.3,1.7,0.4v-7C23.7,26.6,23.2,26.5,22.6,26.3z"/>
	<path class="st3" d="M24.3,25.5h-1.7v0.9c0.6,0.1,1.2,0.3,1.7,0.4V25.5z"/>
	<path class="st3" d="M22.6,34.9h1.7v-1.1c-0.6-0.1-1.2-0.3-1.7-0.4V34.9z"/>
	<path class="st3" d="M28,27.3l0.1,7c0.5,0.1,1.1,0.1,1.6,0.2v-7C29.1,27.4,28.5,27.4,28,27.3z"/>
	<path class="st3" d="M29.7,26.8H28l0,0.5c0.6,0.1,1.1,0.1,1.7,0.2V26.8z"/>
	<path class="st3" d="M28.1,35.2l1.6,1v-1.7c-0.5-0.1-1.1-0.1-1.6-0.2L28.1,35.2z"/>
	<path class="st3" d="M11.9,21.5L11.9,21.5l-0.1,6.3c0.5,0.5,1.1,1,1.7,1.5v-6.6C13,22.3,12.5,21.9,11.9,21.5z"/>
	<path class="st3" d="M13.6,21.5h-1.7c0.5,0.4,1.1,0.8,1.7,1.2V21.5z"/>
	<path class="st3" d="M11.9,27.8v1.7h1.7v-0.2C13,28.8,12.4,28.3,11.9,27.8z"/>
	<path class="st3" d="M17.2,24.6l-0.1,6.8c0.6,0.3,1.2,0.5,1.8,0.8v-6.9C18.4,25,17.8,24.8,17.2,24.6z"/>
	<path class="st3" d="M19,24.1h-1.7l0,0.4c0.6,0.2,1.1,0.5,1.7,0.7V24.1z"/>
	<path class="st3" d="M17.1,32.5l1.9,1v-1.4c-0.6-0.2-1.3-0.5-1.8-0.8L17.1,32.5z"/>
</g>
</svg>
