<?xml version="1.0" encoding="utf-8"?>
<!-- Generator: Adobe Illustrator 24.2.3, SVG Export Plug-In . SVG Version: 6.00 Build 0)  -->
<svg version="1.1" id="Layer_1" xmlns="http://www.w3.org/2000/svg" xmlns:xlink="http://www.w3.org/1999/xlink" x="0px" y="0px"
	 viewBox="0 0 64 64" style="enable-background:new 0 0 64 64;" xml:space="preserve">
<style type="text/css">
	.st0{enable-background:new    ;}
	.st1{fill:#F38220;}
</style>
<g class="st0">
	<g>
		<path class="st1" d="M40,7.4L41.8,2c-3.3-1.1-6.3-1.5-9.8-1.5v5.7C34.8,6.2,37.5,6.6,40,7.4z"/>
	</g>
	<g>
		<path class="st1" d="M47.2,11.1l3.4-4.6C45,2.4,39,0.5,32,0.5v5.7C37.7,6.2,42.9,8,47.2,11.1z"/>
	</g>
	<g>
		<path class="st1" d="M52.9,16.8l4.6-3.4c-6.1-8.4-15-13-25.5-13v5.7C40.6,6.2,48.2,10.4,52.9,16.8z"/>
	</g>
	<g>
		<path class="st1" d="M56.6,24l5.5-1.8C57.7,9,46,0.4,32,0.4v5.7C43.5,6.2,53.2,13.7,56.6,24z"/>
	</g>
	<g>
		<path class="st1" d="M57.9,32h5.7C63.6,14.6,49.4,0.4,32,0.4v5.7C46.3,6.2,57.9,17.7,57.9,32z"/>
	</g>
	<g>
		<path class="st1" d="M32,0.4v5.7c14.3,0,25.8,11.6,25.8,25.9c0,2.8-0.4,5.5-1.3,8l5.5,1.8c1.1-3.3,1.5-6.3,1.5-9.8
			C63.6,14.6,49.4,0.4,32,0.4z"/>
	</g>
</g>
<g class="st0">
	<g>
		<path class="st1" d="M32,0.4v5.7c14.3,0,25.9,11.6,25.9,25.9c0,5.7-1.8,10.9-4.9,15.2l4.6,3.4c4.1-5.6,6-11.6,6-18.6
			C63.6,14.6,49.4,0.4,32,0.4z"/>
	</g>
	<g>
		<path class="st1" d="M32,0.4v5.7c14.3,0,25.9,11.6,25.9,25.9c0,8.6-4.2,16.2-10.7,20.9l3.4,4.6c8.5-6.2,13-15.1,13-25.6
			C63.6,14.6,49.4,0.4,32,0.4z"/>
	</g>
	<g>
		<path class="st1" d="M32,0.4v5.7c14.3,0,25.8,11.6,25.8,25.9c0,11.5-7.5,21.2-17.9,24.6l1.8,5.5C55,57.7,63.6,46,63.6,32
			C63.6,14.6,49.4,0.4,32,0.4z"/>
	</g>
	<g>
		<path class="st1" d="M32,0.4v5.7c14.3,0,25.9,11.6,25.9,25.9S46.3,57.9,32,57.9v5.7c17.4,0,31.6-14.1,31.6-31.6
			C63.6,14.6,49.4,0.4,32,0.4z"/>
	</g>
	<g>
		<path class="st1" d="M32,57.9c14.3,0,25.9-11.6,25.9-25.9C57.8,17.7,46.3,6.2,32,6.2l0,0V0.4c3.5,0,6.4,0.5,9.8,1.5
			C58.3,7.4,67.4,25.2,62,41.8S38.8,67.5,22.2,62.1l1.8-5.5C26.5,57.4,29.2,57.9,32,57.9z"/>
	</g>
	<g>
		<path class="st1" d="M32,57.9c14.3,0,25.9-11.6,25.9-25.9C57.8,17.7,46.3,6.2,32,6.2l0,0V0.4c7,0,12.9,1.9,18.6,6
			c14.1,10.3,17.2,30,7,44.1c-10.3,14.1-30,17.2-44.1,7l3.4-4.6C21.1,56,26.3,57.9,32,57.9z"/>
	</g>
	<g>
		<path class="st1" d="M32,57.9c14.3,0,25.9-11.6,25.9-25.9C57.8,17.7,46.3,6.2,32,6.2l0,0V0.4c7,0,12.9,1.9,18.6,6
			c14.1,10.3,17.2,30,7,44.1c-10.3,14.1-30,17.2-44.1,7l3.4-4.6C21.1,56,26.3,57.9,32,57.9z"/>
	</g>
</g>
<g class="st0">
	<path class="st1" d="M32,57.9c14.3,0,25.8-11.6,25.8-25.9S46.3,6.2,32,6.2l0,0V0.4c14,0,25.7,8.6,30,21.8
		c5.4,16.6-3.7,34.4-20.3,39.8C25.2,67.4,7.3,58.4,1.9,41.8L7.4,40C10.8,50.4,20.5,57.9,32,57.9z"/>
</g>
<g class="st0">
	<path class="st1" d="M6.1,32c0,14.3,11.6,25.9,25.9,25.9S57.9,46.3,57.9,32C57.8,17.7,46.3,6.2,32,6.2V0.4
		c17.4,0,31.6,14.1,31.6,31.6c0,17.4-14.1,31.6-31.6,31.6S0.4,49.5,0.4,32H6.1z"/>
</g>
<g class="st0">
	<path class="st1" d="M1.9,22.2L7.4,24c-0.8,2.5-1.3,5.2-1.3,8c0,14.3,11.6,25.9,25.9,25.9S57.9,46.3,57.9,32
		C57.8,17.7,46.3,6.2,32,6.2V0.4c3.5,0,6.4,0.5,9.8,1.5C58.3,7.4,67.4,25.2,62,41.8S38.8,67.5,22.2,62.1S-3.4,38.8,1.9,22.2z"/>
</g>
<g class="st0">
	<path class="st1" d="M6.4,13.4l4.6,3.4C8,21.1,6.1,26.3,6.1,32c0,14.3,11.6,25.9,25.9,25.9S57.9,46.3,57.9,32S46.3,6.2,32,6.2V0.4
		c7,0,12.9,1.9,18.6,6c14.1,10.3,17.2,30,7,44.1c-10.3,14.1-30,17.2-44.1,7C-0.7,47.3-3.8,27.6,6.4,13.4z"/>
</g>
<g class="st0">
	<path class="st1" d="M13.4,6.5l3.4,4.6C10.3,15.8,6.1,23.4,6.1,32c0,14.3,11.6,25.9,25.9,25.9S57.9,46.3,57.9,32S46.3,6.2,32,6.2
		V0.4c10.5,0,19.4,4.6,25.6,13c10.3,14.1,7.1,33.9-7,44.1c-14.1,10.3-33.9,7.1-44.1-7C-3.8,36.5-0.7,16.7,13.4,6.5z"/>
</g>
<g class="st0">
	<path class="st1" d="M22.2,2L24,7.4C13.6,10.8,6.1,20.5,6.1,32c0,14.3,11.6,25.9,25.9,25.9S57.8,46.3,57.8,32S46.3,6.2,32,6.2V0.4
		c14,0,25.7,8.6,30,21.8c5.4,16.6-3.7,34.4-20.3,39.8C25.2,67.4,7.3,58.4,1.9,41.8C-3.4,25.2,5.6,7.4,22.2,2z"/>
</g>
</svg>
