<?xml version="1.0" encoding="utf-8"?>
<!-- Generator: Adobe Illustrator 24.2.3, SVG Export Plug-In . SVG Version: 6.00 Build 0)  -->
<svg version="1.1" id="Layer_1" xmlns="http://www.w3.org/2000/svg" xmlns:xlink="http://www.w3.org/1999/xlink" x="0px" y="0px"
	 viewBox="0 0 64 64" style="enable-background:new 0 0 64 64;" xml:space="preserve">
<style type="text/css">
	.st0{opacity:0.3;fill:#F38220;enable-background:new    ;}
	.st1{fill:#F38220;}
</style>
<path class="st0" d="M32,0.4C14.6,0.4,0.4,14.6,0.4,32S14.5,63.6,32,63.6c17.4,0,31.6-14.1,31.6-31.6C63.6,14.6,49.4,0.4,32,0.4z
	 M32,57.9C17.7,57.9,6.1,46.3,6.1,32S17.7,6.2,32,6.2S57.8,17.7,57.8,32S46.3,57.9,32,57.9z"/>
<path class="st1" d="M57.6,13.7C51.4,5.2,42,0.5,32,0.6v5.8c10.9,0,21,6.9,24.6,17.9c4.4,13.6-3,28.2-16.6,32.6
	c-10.9,3.6-22.5-0.6-28.9-9.4l-4.6,3.4c10.3,14.1,30,17.2,44.1,7C64.7,47.6,67.8,27.8,57.6,13.7z"/>
</svg>
