<?xml version="1.0" encoding="utf-8"?>
<!-- Generator: Adobe Illustrator 24.2.3, SVG Export Plug-In . SVG Version: 6.00 Build 0)  -->
<svg version="1.1" id="Layer_1" xmlns="http://www.w3.org/2000/svg" xmlns:xlink="http://www.w3.org/1999/xlink" x="0px" y="0px"
	 viewBox="0 0 64 64" style="enable-background:new 0 0 64 64;" xml:space="preserve">
<style type="text/css">
	.st0{fill:#F38220;}
</style>
<path class="st0" d="M48.8,8.8C43.7,5.1,38.3,3.3,32,3.3v5.2c12.9,0,23.4,10.5,23.5,23.4c0,13-10.5,23.5-23.5,23.5
	c-3.8,0-7.3-0.9-10.4-2.4c0-1-0.3-1.9-1-2.7c-1.6-2.2-4.6-2.8-6.8-1.2c-2.2,1.6-2.8,4.6-1.2,6.8c1.5,2,4.2,2.6,6.3,1.5
	c12.4,6.4,27.8,3,36.2-8.6C64.4,36,61.6,18.1,48.8,8.8z"/>
</svg>
