<?xml version="1.0" encoding="utf-8"?>
<!-- Generator: Adobe Illustrator 24.2.1, SVG Export Plug-In . SVG Version: 6.00 Build 0)  -->
<svg version="1.1" id="Layer_1" xmlns="http://www.w3.org/2000/svg" xmlns:xlink="http://www.w3.org/1999/xlink" x="0px" y="0px"
	 viewBox="0 0 64 64" style="enable-background:new 0 0 64 64;" xml:space="preserve">
<style type="text/css">
	.st0{fill:#231F20;}
	.st1{fill:#F39347;}
	.st2{fill:#FFFFFF;}
	.st3{fill:#F38220;}
	.st4{opacity:0.3;}
	.st5{opacity:0.5;}
	.st6{fill:none;}
	.st7{opacity:0.36;}
	.st8{fill:none;stroke:#F38220;stroke-width:0.75;stroke-linecap:round;stroke-miterlimit:10;}
</style>
<path class="st3" d="M0,31.6c-0.1,17.6,14,32,31.6,32.1c17.6,0.1,32-14,32.1-31.6c0.1-17.6-14-32-31.6-32.1C14.5-0.1,0.1,14,0,31.6z
	 M57.5,32.1c-0.1,14.2-11.7,25.6-25.9,25.5C17.5,57.4,6.1,45.8,6.2,31.7S17.9,6.1,32.1,6.2S57.7,17.9,57.5,32.1z"/>
<g>
	<path class="st3" d="M29.2,54.5L15.7,29.6l8.6-0.2l4.4,8l8.4-22.6h9.2L29.2,54.5z"/>
</g>
</svg>
