<?xml version="1.0" encoding="utf-8"?>
<!-- Generator: Adobe Illustrator 24.2.3, SVG Export Plug-In . SVG Version: 6.00 Build 0)  -->
<svg version="1.1" id="Layer_1" xmlns="http://www.w3.org/2000/svg" xmlns:xlink="http://www.w3.org/1999/xlink" x="0px" y="0px"
	 viewBox="0 0 64 64" style="enable-background:new 0 0 64 64;" xml:space="preserve">
<style type="text/css">
	.st0{fill:#F38220;}
</style>
<path class="st0" d="M60.7,31.9C60.6,16.1,47.8,3.3,32,3.3v5.2C45,8.5,55.5,19,55.5,32c0,8.9-5,16.8-12.4,20.7
	c-0.8-0.5-1.8-0.9-2.7-0.9c-2.7,0-5,2.2-5,5c0,2.7,2.2,5,5,5c2.5,0,4.7-2,4.9-4.4C54.8,52.5,60.7,43,60.7,31.9z"/>
<path class="st0" d="M42.7,52.9c0,0-0.1,0-0.1,0.1C42.7,52.9,42.7,52.9,42.7,52.9z"/>
</svg>
