<?xml version="1.0" encoding="utf-8"?>
<!-- Generator: Adobe Illustrator 24.2.3, SVG Export Plug-In . SVG Version: 6.00 Build 0)  -->
<svg version="1.1" id="Layer_1" xmlns="http://www.w3.org/2000/svg" xmlns:xlink="http://www.w3.org/1999/xlink" x="0px" y="0px"
	 viewBox="0 0 64 64" style="enable-background:new 0 0 64 64;" xml:space="preserve">
<style type="text/css">
	.st0{opacity:0.3;fill:#F38220;enable-background:new    ;}
	.st1{fill:#F38220;}
</style>
<path class="st0" d="M32,0.4C14.6,0.4,0.4,14.6,0.4,32S14.5,63.6,32,63.6c17.4,0,31.6-14.1,31.6-31.6C63.6,14.6,49.4,0.4,32,0.4z
	 M32,57.9C17.7,57.9,6.1,46.3,6.1,32S17.7,6.2,32,6.2S57.8,17.7,57.8,32S46.3,57.9,32,57.9z"/>
<g>
	<path class="st1" d="M40,7.4L41.8,2c-3.3-1.1-6.3-1.5-9.8-1.5v5.7C34.8,6.2,37.5,6.6,40,7.4z"/>
</g>
</svg>
