<?xml version="1.0" encoding="utf-8"?>
<!-- Generator: Adobe Illustrator 24.2.3, SVG Export Plug-In . SVG Version: 6.00 Build 0)  -->
<svg version="1.1" id="Layer_1" xmlns="http://www.w3.org/2000/svg" xmlns:xlink="http://www.w3.org/1999/xlink" x="0px" y="0px"
	 viewBox="0 0 64 64" style="enable-background:new 0 0 64 64;" xml:space="preserve">
<style type="text/css">
	.st0{fill:#F38220;}
	.st1{opacity:0.3;fill:#F38220;}
	.st2{fill:none;stroke:#231F20;stroke-width:0.25;stroke-miterlimit:10;}
</style>
<path class="st0" d="M32,3.3C16.2,3.3,3.3,16.1,3.3,31.9c0,15.8,12.8,28.7,28.7,28.7c15.8,0,28.7-12.8,28.7-28.7
	C60.7,16.1,47.8,3.3,32,3.3z M32,55.4c-13,0-23.5-10.5-23.5-23.5C8.5,19,19,8.5,32,8.5S55.5,19,55.5,31.9C55.5,44.9,45,55.4,32,55.4
	z"/>
<g>
	<path class="st0" d="M29.8,51.9L17.9,30l7.6-0.2l3.9,7L36.7,17h8.1L29.8,51.9z"/>
</g>
</svg>
