<?xml version="1.0" encoding="utf-8"?>
<!-- Generator: Adobe Illustrator 24.2.3, SVG Export Plug-In . SVG Version: 6.00 Build 0)  -->
<svg version="1.1" id="Layer_1" xmlns="http://www.w3.org/2000/svg" xmlns:xlink="http://www.w3.org/1999/xlink" x="0px" y="0px"
	 viewBox="0 0 64 64" style="enable-background:new 0 0 64 64;" xml:space="preserve">
<style type="text/css">
	.st0{opacity:0.3;fill:#F38220;enable-background:new    ;}
	.st1{enable-background:new    ;}
	.st2{fill:#F38220;}
</style>
<path class="st0" d="M32,0.4C14.6,0.4,0.4,14.6,0.4,32S14.5,63.6,32,63.6c17.4,0,31.6-14.1,31.6-31.6C63.6,14.6,49.4,0.4,32,0.4z
	 M32,57.9C17.7,57.9,6.1,46.3,6.1,32S17.7,6.2,32,6.2S57.8,17.7,57.8,32S46.3,57.9,32,57.9z"/>
<g class="st1">
	<path class="st2" d="M6.4,13.4l4.6,3.4C8,21.1,6.1,26.3,6.1,32c0,14.3,11.6,25.9,25.9,25.9S57.9,46.3,57.9,32S46.3,6.2,32,6.2V0.4
		c7,0,12.9,1.9,18.6,6c14.1,10.3,17.2,30,7,44.1c-10.3,14.1-30,17.2-44.1,7C-0.7,47.3-3.8,27.6,6.4,13.4z"/>
</g>
</svg>
