<?xml version="1.0" encoding="utf-8"?>
<!-- Generator: Adobe Illustrator 24.2.3, SVG Export Plug-In . SVG Version: 6.00 Build 0)  -->
<svg version="1.1" id="Layer_1" xmlns="http://www.w3.org/2000/svg" xmlns:xlink="http://www.w3.org/1999/xlink" x="0px" y="0px"
	 viewBox="0 0 64 64" style="enable-background:new 0 0 64 64;" xml:space="preserve">
<style type="text/css">
	.st0{fill:#F38220;}
</style>
<path class="st0" d="M40.9,4.7c-3.1-1-5.7-1.4-8.9-1.4v5.2C44.9,8.5,55.4,19,55.6,32c0,13-10.5,23.5-23.5,23.5S8.6,45,8.6,32
	c0-1.1,0.1-2.2,0.2-3.3c0.9-0.3,1.7-0.9,2.4-1.8c1.6-2.3,1-5.4-1.2-7.1c-2.3-1.6-5.4-1-7.1,1.2c-1.5,2.1-1.1,4.9,0.7,6.6
	C1.5,41.2,9.5,54.8,23.2,59.2c15,4.9,31.2-3.3,36.1-18.4C64.2,25.8,56,9.6,40.9,4.7z"/>
</svg>
