<?xml version="1.0" encoding="utf-8"?>
<!-- Generator: Adobe Illustrator 24.2.3, SVG Export Plug-In . SVG Version: 6.00 Build 0)  -->
<svg version="1.1" id="Layer_1" xmlns="http://www.w3.org/2000/svg" xmlns:xlink="http://www.w3.org/1999/xlink" x="0px" y="0px"
	 viewBox="0 0 64 64" style="enable-background:new 0 0 64 64;" xml:space="preserve">
<style type="text/css">
	.st0{opacity:0.3;fill:#F38220;enable-background:new    ;}
	.st1{fill:#F38220;}
	.st2{enable-background:new    ;}
</style>
<path class="st0" d="M32,0.4C14.6,0.4,0.4,14.6,0.4,32S14.5,63.6,32,63.6c17.4,0,31.6-14.1,31.6-31.6C63.6,14.6,49.4,0.4,32,0.4z
	 M32,57.9C17.7,57.9,6.1,46.3,6.1,32S17.7,6.2,32,6.2S57.8,17.7,57.8,32S46.3,57.9,32,57.9z"/>
<path class="st1" d="M130.2,126.9c-17.4,0-31.7-14.1-31.7-31.7c0-17.5,14.2-31.6,31.7-31.6s31.7,14.3,31.7,31.7
	S147.7,126.9,130.2,126.9z M130.2,69.2c-14.3,0-26,11.7-26,26c0,14.4,11.7,26.1,26,26.1s26-11.7,26-26.1
	C156.3,80.9,144.6,69.2,130.2,69.2z"/>
<g class="st2">
	<path class="st1" d="M13.4,6.5l3.4,4.6C10.3,15.8,6.1,23.4,6.1,32c0,14.3,11.6,25.9,25.9,25.9S57.9,46.3,57.9,32S46.3,6.2,32,6.2
		V0.4c10.5,0,19.4,4.6,25.6,13c10.3,14.1,7.1,33.9-7,44.1c-14.1,10.3-33.9,7.1-44.1-7C-3.8,36.5-0.7,16.7,13.4,6.5z"/>
</g>
</svg>
