<?xml version="1.0" encoding="utf-8"?>
<!-- Generator: Adobe Illustrator 24.2.3, SVG Export Plug-In . SVG Version: 6.00 Build 0)  -->
<svg version="1.1" id="Layer_1" xmlns="http://www.w3.org/2000/svg" xmlns:xlink="http://www.w3.org/1999/xlink" x="0px" y="0px"
	 viewBox="0 0 64 64" style="enable-background:new 0 0 64 64;" xml:space="preserve">
<style type="text/css">
	.st0{fill:#F38220;}
</style>
<path class="st0" d="M48.8,8.8C43.7,5.1,38.3,3.3,32,3.3v5.2C44.9,8.5,55.5,19,55.5,32S45,55.5,32,55.5S8.5,45,8.5,32
	c0-3.8,0.9-7.3,2.5-10.4c1,0,2-0.3,2.7-1c2.3-1.6,2.8-4.8,1.1-7.1c-1.6-2.3-4.8-2.8-7.1-1.1C5.6,13.9,5,16.8,6.3,19
	c0,0,0,0.1,0.1,0.1c-6.2,12.3-2.8,27.6,8.7,36c12.8,9.3,30.7,6.5,40-6.3C64.4,36,61.6,18.1,48.8,8.8z"/>
</svg>
