<?xml version="1.0" encoding="utf-8"?>
<!-- Generator: Adobe Illustrator 24.2.3, SVG Export Plug-In . SVG Version: 6.00 Build 0)  -->
<svg version="1.1" id="Layer_1" xmlns="http://www.w3.org/2000/svg" xmlns:xlink="http://www.w3.org/1999/xlink" x="0px" y="0px"
	 viewBox="0 0 64 64" style="enable-background:new 0 0 64 64;" xml:space="preserve">
<style type="text/css">
	.st0{fill:#F38220;}
</style>
<path class="st0" d="M59.3,23.1c-4-12-14.6-19.8-27.3-19.8v5.2c12.9,0,23.5,10.4,23.5,23.4S45,55.4,32,55.4
	c-9.1,0-16.9-5.1-20.8-12.5c0,0,0,0,0.1-0.1c0.5-0.8,0.9-1.8,0.9-2.8c0-2.8-2.3-5.1-5.1-5.1C4.3,34.9,2,37.2,2,40c0,2.6,2,4.8,4.4,5
	c6.3,12.3,20.8,18.6,34.5,14.2C56,54.3,64.2,38.2,59.3,23.1z"/>
</svg>
