<?xml version="1.0" encoding="utf-8"?>
<!-- Generator: Adobe Illustrator 24.2.3, SVG Export Plug-In . SVG Version: 6.00 Build 0)  -->
<svg version="1.1" id="Layer_1" xmlns="http://www.w3.org/2000/svg" xmlns:xlink="http://www.w3.org/1999/xlink" x="0px" y="0px"
	 viewBox="0 0 64 64" style="enable-background:new 0 0 64 64;" xml:space="preserve">
<style type="text/css">
	.st0{fill:#F38220;}
</style>
<path class="st0" d="M13,45.9c0.8,1.1,1.7,2.1,2.7,3c0.3-0.9,0.3-2-0.1-3c-0.9-2.7-3.7-4.1-6.4-3.3c-2.6,1-4,3.7-3.2,6.4
	c0.8,2.5,3.4,3.9,5.9,3.4c-1.1-1.1-2.1-2.3-3-3.5L13,45.9z"/>
<path class="st0" d="M48.8,8.7C43.7,5,38.3,3.3,32,3.3v5.2C45,8.5,55.5,19,55.5,32S45,55.5,32,55.5c-5.2,0-9.9-1.7-13.8-4.5l0,0
	c-2.1-1.5-3.8-3.3-5.2-5.2l-4.2,3.1c1.9,2.6,3.8,4.5,6.3,6.4l0,0c12.8,9.3,30.7,6.5,40-6.3C64.5,36,61.6,18,48.8,8.7z"/>
</svg>
