<?xml version="1.0" encoding="utf-8"?>
<!-- Generator: Adobe Illustrator 24.2.3, SVG Export Plug-In . SVG Version: 6.00 Build 0)  -->
<svg version="1.1" id="Layer_1" xmlns="http://www.w3.org/2000/svg" xmlns:xlink="http://www.w3.org/1999/xlink" x="0px" y="0px"
	 viewBox="0 0 64 64" style="enable-background:new 0 0 64 64;" xml:space="preserve">
<style type="text/css">
	.st0{opacity:0.3;fill:#F38220;enable-background:new    ;}
	.st1{enable-background:new    ;}
	.st2{fill:#F38220;}
</style>
<path class="st0" d="M32,0.4C14.6,0.4,0.4,14.6,0.4,32S14.5,63.6,32,63.6c17.4,0,31.6-14.1,31.6-31.6C63.6,14.6,49.4,0.4,32,0.4z
	 M32,57.9C17.7,57.9,6.1,46.3,6.1,32S17.7,6.2,32,6.2S57.8,17.7,57.8,32S46.3,57.9,32,57.9z"/>
<g class="st1">
	<g>
		<path class="st2" d="M32,0.4v5.7c14.3,0,25.9,11.6,25.9,25.9c0,5.7-1.8,10.9-4.9,15.2l4.6,3.4c4.1-5.6,6-11.6,6-18.6
			C63.6,14.6,49.4,0.4,32,0.4z"/>
	</g>
	<g>
		<path class="st2" d="M32,0.4v5.7c14.3,0,25.9,11.6,25.9,25.9c0,8.6-4.2,16.2-10.7,20.9l3.4,4.6c8.5-6.2,13-15.1,13-25.6
			C63.6,14.6,49.4,0.4,32,0.4z"/>
	</g>
	<g>
		<path class="st2" d="M32,0.4v5.7c14.3,0,25.8,11.6,25.8,25.9c0,11.5-7.5,21.2-17.9,24.6l1.8,5.5C55,57.7,63.6,46,63.6,32
			C63.6,14.6,49.4,0.4,32,0.4z"/>
	</g>
	<g>
		<path class="st2" d="M32,0.4v5.7c14.3,0,25.9,11.6,25.9,25.9S46.3,57.9,32,57.9v5.7c17.4,0,31.6-14.1,31.6-31.6
			C63.6,14.6,49.4,0.4,32,0.4z"/>
	</g>
	<g>
		<path class="st2" d="M32,57.9c14.3,0,25.9-11.6,25.9-25.9C57.8,17.7,46.3,6.2,32,6.2l0,0V0.4c3.5,0,6.4,0.5,9.8,1.5
			C58.3,7.4,67.4,25.2,62,41.8S38.8,67.5,22.2,62.1l1.8-5.5C26.5,57.4,29.2,57.9,32,57.9z"/>
	</g>
	<g>
		<path class="st2" d="M32,57.9c14.3,0,25.9-11.6,25.9-25.9C57.8,17.7,46.3,6.2,32,6.2l0,0V0.4c7,0,12.9,1.9,18.6,6
			c14.1,10.3,17.2,30,7,44.1c-10.3,14.1-30,17.2-44.1,7l3.4-4.6C21.1,56,26.3,57.9,32,57.9z"/>
	</g>
	<g>
		<path class="st2" d="M32,57.9c14.3,0,25.9-11.6,25.9-25.9C57.8,17.7,46.3,6.2,32,6.2l0,0V0.4c7,0,12.9,1.9,18.6,6
			c14.1,10.3,17.2,30,7,44.1c-10.3,14.1-30,17.2-44.1,7l3.4-4.6C21.1,56,26.3,57.9,32,57.9z"/>
	</g>
</g>
</svg>
