<?xml version="1.0" encoding="utf-8"?>
<!-- Generator: Adobe Illustrator 24.2.3, SVG Export Plug-In . SVG Version: 6.00 Build 0)  -->
<svg version="1.1" id="Layer_1" xmlns="http://www.w3.org/2000/svg" xmlns:xlink="http://www.w3.org/1999/xlink" x="0px" y="0px"
	 viewBox="0 0 64 64" style="enable-background:new 0 0 64 64;" xml:space="preserve">
<style type="text/css">
	.st0{fill:#F38220;}
</style>
<path class="st0" d="M55.2,15.1C49.6,7.4,41.5,3.3,32,3.3v5.2c12.9,0,23.5,10.4,23.5,23.4S45,55.4,32,55.4S8.5,44.9,8.5,31.9
	c0-6.3,2.5-12,6.6-16.3c0.9,0.3,1.9,0.3,2.9-0.1c2.7-0.9,4.1-3.7,3.3-6.4c-0.9-2.7-3.7-4.1-6.4-3.3c-2.5,0.8-3.9,3.4-3.4,5.9
	c0,0,0,0.1,0,0.1c-9.7,9.8-11.1,25.5-2.6,37c9.3,12.8,27.2,15.6,40,6.3C61.7,45.8,64.5,27.9,55.2,15.1z"/>
</svg>
