<?xml version="1.0" encoding="utf-8"?>
<!-- Generator: Adobe Illustrator 24.2.3, SVG Export Plug-In . SVG Version: 6.00 Build 0)  -->
<svg version="1.1" id="Layer_1" xmlns="http://www.w3.org/2000/svg" xmlns:xlink="http://www.w3.org/1999/xlink" x="0px" y="0px"
	 viewBox="0 0 64 64" style="enable-background:new 0 0 64 64;" xml:space="preserve">
<style type="text/css">
	.st0{fill:#F38220;}
</style>
<path class="st0" d="M32,3.3v5.2c12.9,0,23.4,10.5,23.5,23.4c0,13-10.5,23.5-23.5,23.5c-11.6,0-21.2-8.4-23.1-19.5c0,0,0,0,0,0
	c0.8-0.6,1.4-1.4,1.7-2.4c0.9-2.7-0.6-5.5-3.3-6.4c-2.7-0.9-5.5,0.6-6.4,3.3c-0.8,2.5,0.4,5.1,2.8,6.2C5.9,50.3,17.8,60.7,32,60.7
	c15.9,0,28.7-12.9,28.7-28.7C60.7,16.1,47.8,3.3,32,3.3z M3.3,32L3.3,32L3.3,32L3.3,32z"/>
</svg>
