<?xml version="1.0" encoding="utf-8"?>
<!-- Generator: Adobe Illustrator 24.2.3, SVG Export Plug-In . SVG Version: 6.00 Build 0)  -->
<svg version="1.1" id="Layer_1" xmlns="http://www.w3.org/2000/svg" xmlns:xlink="http://www.w3.org/1999/xlink" x="0px" y="0px"
	 viewBox="0 0 64 64" style="enable-background:new 0 0 64 64;" xml:space="preserve">
<style type="text/css">
	.st0{opacity:0.3;fill:#F38220;enable-background:new    ;}
	.st1{enable-background:new    ;}
	.st2{fill:#F38220;}
</style>
<path class="st0" d="M32,0.4C14.6,0.4,0.4,14.6,0.4,32S14.5,63.6,32,63.6c17.4,0,31.6-14.1,31.6-31.6C63.6,14.6,49.4,0.4,32,0.4z
	 M32,57.9C17.7,57.9,6.1,46.3,6.1,32S17.7,6.2,32,6.2S57.8,17.7,57.8,32S46.3,57.9,32,57.9z"/>
<g class="st1">
	<path class="st2" d="M1.9,22.2L7.4,24c-0.8,2.5-1.3,5.2-1.3,8c0,14.3,11.6,25.9,25.9,25.9S57.9,46.3,57.9,32
		C57.8,17.7,46.3,6.2,32,6.2V0.4c3.5,0,6.4,0.5,9.8,1.5C58.3,7.4,67.4,25.2,62,41.8S38.8,67.5,22.2,62.1S-3.4,38.8,1.9,22.2z"/>
</g>
</svg>
