<?xml version="1.0" encoding="utf-8"?>
<!-- Generator: Adobe Illustrator 24.2.3, SVG Export Plug-In . SVG Version: 6.00 Build 0)  -->
<svg version="1.1" id="Layer_1" xmlns="http://www.w3.org/2000/svg" xmlns:xlink="http://www.w3.org/1999/xlink" x="0px" y="0px"
	 viewBox="0 0 64 64" style="enable-background:new 0 0 64 64;" xml:space="preserve">
<style type="text/css">
	.st0{fill:#F38220;}
</style>
<path class="st0" d="M40.9,4.7c-3.1-1-5.7-1.4-8.9-1.4v5.2c12.9,0,23.4,10.5,23.5,23.4c0,13-10.5,23.5-23.5,23.5
	c-1.2,0-2.3-0.1-3.4-0.2c-0.3-0.9-0.9-1.6-1.8-2.3c-2.3-1.5-5.3-1-6.9,1.2c-1.5,2.3-1,5.3,1.2,6.9c2.1,1.4,4.8,1.1,6.4-0.7
	c13.7,2.2,27.3-5.8,31.8-19.5C64.2,25.8,56,9.6,40.9,4.7z"/>
</svg>
