<?xml version="1.0" encoding="utf-8"?>
<!-- Generator: Adobe Illustrator 24.2.3, SVG Export Plug-In . SVG Version: 6.00 Build 0)  -->
<svg version="1.1" id="Layer_1" xmlns="http://www.w3.org/2000/svg" xmlns:xlink="http://www.w3.org/1999/xlink" x="0px" y="0px"
	 viewBox="0 0 64 64" style="enable-background:new 0 0 64 64;" xml:space="preserve">
<style type="text/css">
	.st0{fill:#F38220;}
</style>
<path class="st0" d="M60.7,32.1C60.6,16.1,47.8,3.3,32,3.3v5.2C45,8.5,55.5,19,55.5,32c0,3.7-0.9,7.2-2.4,10.3c0,0-0.1,0-0.1,0
	c-1,0-2,0.3-2.8,1c-2.3,1.6-2.8,4.8-1.1,7.1c1.6,2.3,4.8,2.8,7.1,1.1c2.1-1.5,2.7-4.3,1.4-6.5C59.7,41,60.7,36.8,60.7,32.1z
	 M55.1,48.9C55.1,48.9,55.1,48.9,55.1,48.9L55.1,48.9L55.1,48.9z"/>
</svg>
