<?xml version="1.0" encoding="utf-8"?>
<!-- Generator: Adobe Illustrator 24.2.1, SVG Export Plug-In . SVG Version: 6.00 Build 0)  -->
<svg version="1.1" id="Layer_1" xmlns="http://www.w3.org/2000/svg" xmlns:xlink="http://www.w3.org/1999/xlink" x="0px" y="0px"
	 viewBox="0 0 64 64" style="enable-background:new 0 0 64 64;" xml:space="preserve">
<style type="text/css">
	.st0{fill:#231F20;}
	.st1{fill:#F39347;}
	.st2{fill:#FFFFFF;}
	.st3{fill:#F38220;}
	.st4{opacity:0.3;}
	.st5{opacity:0.5;}
	.st6{opacity:0.36;}
	.st7{fill:none;stroke:#F38220;stroke-width:0.75;stroke-linecap:round;stroke-miterlimit:10;}
</style>
<rect x="26.8" y="-217.2" class="st0" width="15" height="15"/>
<path class="st1" d="M-18.8-335.9c0,0.5-0.4,0.9-0.9,0.9H-29c-0.5,0-0.9-0.4-0.9-0.9v-6.5c0-0.5,0.4-0.9,0.9-0.9h9.4
	c0.5,0,0.9,0.4,0.9,0.9V-335.9z"/>
<g>
	<g>
		<path class="st1" d="M-27.6-342.8c0,0-0.1,0-0.3,0c-0.2,0-0.4,0-0.6-0.1c0,0,0-0.1,0-0.1c0,0,0-0.1,0-0.1c0-1,0.1-1.9,0.4-2.7
			c0.3-0.8,0.6-1.5,1.1-2c0.3-0.4,0.7-0.6,1.2-0.8s1-0.3,1.6-0.3c0.5,0,1,0.1,1.5,0.3c0.4,0.2,0.8,0.5,1.1,0.8
			c0.5,0.5,0.8,1.1,1.1,1.9c0.3,0.8,0.4,1.7,0.4,2.6c0,0,0,0.1,0,0.2c0,0.1,0,0.1,0,0.1c-0.1,0-0.2,0-0.4,0c-0.2,0-0.3,0-0.5,0
			c0,0,0-0.1,0-0.1c0,0,0-0.1,0-0.1c0-0.5-0.1-1.1-0.2-1.6c-0.1-0.6-0.3-1-0.5-1.5c-0.3-0.5-0.7-0.9-1.1-1.2c-0.5-0.3-1-0.4-1.5-0.4
			c-0.6,0-1.1,0.1-1.5,0.4c-0.5,0.3-0.8,0.7-1.1,1.2c-0.3,0.5-0.4,1-0.6,1.5c-0.1,0.6-0.2,1.1-0.2,1.7c0,0,0,0.1,0,0.1
			C-27.7-342.9-27.7-342.9-27.6-342.8z"/>
		<path class="st1" d="M-27.4-342.6l-0.3,0c0,0-0.1,0-0.3,0c-0.2,0-0.4,0-0.5-0.1l-0.2,0v-0.4c0-1,0.1-2,0.4-2.8
			c0.3-0.8,0.6-1.5,1.1-2c0.3-0.4,0.8-0.7,1.3-0.9c0.5-0.2,1-0.3,1.7-0.3c0.6,0,1.1,0.1,1.5,0.3c0.5,0.2,0.9,0.5,1.2,0.9
			c0.5,0.5,0.9,1.2,1.2,2c0.3,0.8,0.4,1.7,0.4,2.7v0.5l-0.2,0c-0.1,0-0.2,0-0.3,0c-0.2,0-0.3,0-0.5,0l-0.2,0v-0.5
			c0-0.5-0.1-1-0.2-1.6c-0.1-0.5-0.3-1-0.5-1.4c-0.3-0.5-0.6-0.9-1.1-1.1c-0.4-0.3-0.9-0.4-1.4-0.4c-0.5,0-1,0.1-1.4,0.4
			c-0.4,0.2-0.8,0.6-1.1,1.1c-0.2,0.4-0.4,0.9-0.5,1.5c-0.1,0.5-0.2,1.1-0.2,1.6v0.1c0,0.1,0,0.1,0,0.2L-27.4-342.6z M-28.3-343.1
			c0.1,0,0.2,0,0.4,0c0,0,0,0,0.1,0v-0.1c0-0.6,0.1-1.1,0.2-1.7c0.1-0.6,0.3-1.1,0.6-1.6c0.3-0.6,0.7-1,1.2-1.3
			c0.5-0.3,1-0.4,1.6-0.4c0.6,0,1.1,0.2,1.6,0.5c0.5,0.3,0.9,0.7,1.2,1.3c0.2,0.4,0.4,0.9,0.5,1.5c0.1,0.6,0.2,1.1,0.2,1.7
			c0.1,0,0.2,0,0.3,0c0.1,0,0.1,0,0.2,0v-0.1c0-0.9-0.1-1.8-0.4-2.5c-0.3-0.8-0.6-1.4-1.1-1.9c-0.3-0.3-0.7-0.6-1.1-0.8
			c-0.4-0.2-0.9-0.3-1.4-0.3c-0.6,0-1.1,0.1-1.5,0.3c-0.4,0.2-0.8,0.5-1.1,0.8c-0.5,0.5-0.8,1.1-1,1.9
			C-28.2-345-28.3-344.1-28.3-343.1L-28.3-343.1z"/>
	</g>
</g>
<circle class="st2" cx="-24.3" cy="-340.2" r="0.9"/>
<path class="st2" d="M-24.3-337.2L-24.3-337.2c-0.3,0-0.6-0.3-0.6-0.6v-1.9c0-0.3,0.3-0.6,0.6-0.6l0,0c0.3,0,0.6,0.3,0.6,0.6v1.9
	C-23.7-337.5-24-337.2-24.3-337.2z"/>
<g>
	<path class="st3" d="M-35-217.7c0,0.5-0.4,0.9-0.9,0.9h-9.4c-0.5,0-0.9-0.4-0.9-0.9v-6.5c0-0.5,0.4-0.9,0.9-0.9h9.4
		c0.5,0,0.9,0.4,0.9,0.9V-217.7z"/>
	<g>
		<g>
			<path class="st3" d="M-43.9-224.6c0,0-0.1,0-0.3,0c-0.2,0-0.4,0-0.6-0.1c0,0,0-0.1,0-0.1c0,0,0-0.1,0-0.1c0-1,0.1-1.9,0.4-2.7
				c0.3-0.8,0.6-1.5,1.1-2c0.3-0.4,0.7-0.6,1.2-0.8c0.5-0.2,1-0.3,1.6-0.3c0.5,0,1,0.1,1.5,0.3c0.4,0.2,0.8,0.5,1.1,0.8
				c0.5,0.5,0.8,1.1,1.1,1.9c0.3,0.8,0.4,1.7,0.4,2.6c0,0,0,0.1,0,0.2c0,0.1,0,0.1,0,0.1c-0.1,0-0.2,0-0.4,0c-0.2,0-0.3,0-0.5,0
				c0,0,0-0.1,0-0.1c0,0,0-0.1,0-0.1c0-0.5-0.1-1.1-0.2-1.6c-0.1-0.6-0.3-1-0.5-1.5c-0.3-0.5-0.7-0.9-1.1-1.2
				c-0.5-0.3-1-0.4-1.5-0.4c-0.6,0-1.1,0.1-1.5,0.4c-0.5,0.3-0.8,0.7-1.1,1.2c-0.3,0.5-0.4,1-0.6,1.5c-0.1,0.6-0.2,1.1-0.2,1.7
				c0,0,0,0.1,0,0.1C-43.9-224.7-43.9-224.7-43.9-224.6z"/>
			<path class="st3" d="M-43.6-224.4l-0.3,0c0,0-0.1,0-0.3,0c-0.2,0-0.4,0-0.5-0.1l-0.2,0v-0.4c0-1,0.1-2,0.4-2.8
				c0.3-0.8,0.6-1.5,1.1-2c0.3-0.4,0.8-0.7,1.3-0.9c0.5-0.2,1-0.3,1.7-0.3c0.6,0,1.1,0.1,1.5,0.3c0.5,0.2,0.9,0.5,1.2,0.9
				c0.5,0.5,0.9,1.2,1.2,2c0.3,0.8,0.4,1.7,0.4,2.7v0.5l-0.2,0c-0.1,0-0.2,0-0.3,0c-0.2,0-0.3,0-0.5,0l-0.2,0v-0.5
				c0-0.5-0.1-1-0.2-1.6c-0.1-0.5-0.3-1-0.5-1.4c-0.3-0.5-0.6-0.9-1.1-1.1c-0.4-0.3-0.9-0.4-1.4-0.4c-0.5,0-1,0.1-1.4,0.4
				c-0.4,0.2-0.8,0.6-1.1,1.1c-0.2,0.4-0.4,0.9-0.5,1.5c-0.1,0.5-0.2,1.1-0.2,1.6v0.1c0,0.1,0,0.1,0,0.2L-43.6-224.4z M-44.5-224.9
				c0.1,0,0.2,0,0.4,0c0,0,0,0,0.1,0v-0.1c0-0.6,0.1-1.1,0.2-1.7c0.1-0.6,0.3-1.1,0.6-1.6c0.3-0.6,0.7-1,1.2-1.3
				c0.5-0.3,1-0.4,1.6-0.4c0.6,0,1.1,0.2,1.6,0.5c0.5,0.3,0.9,0.7,1.2,1.3c0.2,0.4,0.4,0.9,0.5,1.5c0.1,0.6,0.2,1.1,0.2,1.7
				c0.1,0,0.2,0,0.3,0c0.1,0,0.1,0,0.2,0v-0.1c0-0.9-0.1-1.8-0.4-2.5c-0.3-0.8-0.6-1.4-1.1-1.9c-0.3-0.3-0.7-0.6-1.1-0.8
				c-0.4-0.2-0.9-0.3-1.4-0.3c-0.6,0-1.1,0.1-1.5,0.3c-0.4,0.2-0.8,0.5-1.1,0.8c-0.5,0.5-0.8,1.1-1,1.9
				C-44.4-226.8-44.5-225.9-44.5-224.9L-44.5-224.9z"/>
		</g>
	</g>
	<circle class="st2" cx="-40.5" cy="-222" r="0.9"/>
	<path class="st2" d="M-40.5-219L-40.5-219c-0.3,0-0.6-0.3-0.6-0.6v-1.9c0-0.3,0.3-0.6,0.6-0.6l0,0c0.3,0,0.6,0.3,0.6,0.6v1.9
		C-39.9-219.3-40.2-219-40.5-219z"/>
</g>
<path class="st3" d="M-14.6-217.7c0,0.5-0.4,0.9-0.9,0.9h-9.4c-0.5,0-0.9-0.4-0.9-0.9v-6.5c0-0.5,0.4-0.9,0.9-0.9h9.4
	c0.5,0,0.9,0.4,0.9,0.9V-217.7z"/>
<g>
	<g>
		<path class="st3" d="M-17.5-228.6c0.2,0.4,0.4,0.9,0.5,1.5c0.3,0,0.6,0,0.9,0c-0.1-0.4-0.2-0.7-0.3-1.1c-0.3-0.8-0.7-1.5-1.1-1.9
			c-0.3-0.3-0.7-0.6-1.1-0.8c-0.4-0.2-0.9-0.3-1.5-0.3c-0.6,0-1.1,0.1-1.6,0.3c-0.5,0.2-0.9,0.5-1.2,0.8c-0.5,0.5-0.8,1.2-1.1,2
			c-0.3,0.8-0.4,3.9-0.4,4.9v0.2c0.2,0,0.4,0,0.6,0.1c0.2,0,0.3,0,0.3,0c0-0.1,0-0.1,0-0.2v-0.1c0-0.6,0.1-3.3,0.2-3.9
			c0.1-0.6,0.3-1.1,0.6-1.5c0.3-0.6,0.7-1,1.1-1.2c0.5-0.3,1-0.4,1.5-0.4c0.5,0,1,0.1,1.5,0.4C-18.2-229.5-17.8-229.1-17.5-228.6z"
			/>
		<path class="st3" d="M-23.2-222.7l-0.3,0c0,0-0.1,0-0.3,0c-0.2,0-0.4,0-0.5-0.1l-0.2,0v-0.4c0-0.9,0.1-4.1,0.4-5
			c0.3-0.8,0.6-1.5,1.1-2c0.3-0.4,0.8-0.7,1.3-0.9c0.5-0.2,1-0.3,1.7-0.3c0.6,0,1.1,0.1,1.5,0.3c0.5,0.2,0.9,0.5,1.2,0.9
			c0.5,0.5,0.9,1.2,1.2,2c0.1,0.4,0.2,0.8,0.3,1.2l0,0.3l-0.3,0c-0.4,0-0.6,0-0.9,0l-0.2,0l0-0.2c-0.1-0.5-0.3-1-0.5-1.4
			c-0.3-0.5-0.6-0.9-1.1-1.1c-0.4-0.3-0.9-0.4-1.4-0.4c-0.5,0-1,0.1-1.4,0.4c-0.4,0.2-0.8,0.6-1.1,1.1c-0.2,0.4-0.4,0.9-0.5,1.5
			c-0.1,0.5-0.2,3.2-0.2,3.8v0.1c0,0.1,0,0.1,0,0.2L-23.2-222.7z M-24.1-223.3c0.1,0,0.2,0,0.4,0c0,0,0,0,0.1,0v-0.1
			c0-0.4,0.1-3.3,0.2-3.9c0.1-0.6,0.3-1.1,0.6-1.6c0.3-0.6,0.7-1,1.2-1.3c0.5-0.3,1-0.4,1.6-0.4c0.6,0,1.1,0.2,1.6,0.5
			c0.5,0.3,0.9,0.7,1.2,1.3l0,0c0.2,0.4,0.4,0.8,0.5,1.3c0.1,0,0.3,0,0.5,0c-0.1-0.3-0.1-0.6-0.2-0.8c-0.3-0.8-0.6-1.4-1.1-1.9
			c-0.3-0.3-0.7-0.6-1.1-0.8c-0.4-0.2-0.9-0.3-1.4-0.3c-0.6,0-1.1,0.1-1.5,0.3c-0.4,0.2-0.8,0.5-1.1,0.8c-0.5,0.5-0.8,1.1-1,1.9
			C-24-227.4-24.1-224.4-24.1-223.3L-24.1-223.3z"/>
	</g>
</g>
<circle class="st2" cx="-20.1" cy="-222" r="0.9"/>
<path class="st2" d="M-20.1-219L-20.1-219c-0.3,0-0.6-0.3-0.6-0.6v-1.9c0-0.3,0.3-0.6,0.6-0.6l0,0c0.3,0,0.6,0.3,0.6,0.6v1.9
	C-19.5-219.3-19.8-219-20.1-219z"/>
<path class="st3" d="M4.2-217.7c0,0.5-0.4,0.9-0.9,0.9H-6c-0.5,0-0.9-0.4-0.9-0.9v-6.5c0-0.5,0.4-0.9,0.9-0.9h9.4
	c0.5,0,0.9,0.4,0.9,0.9V-217.7z"/>
<g>
	<g>
		<path class="st3" d="M1.3-228.7c0.2,0.4,0.4,0.9,0.5,1.5c0.3,0,0.6,0,0.9,0c-0.1-0.4-0.2-0.7-0.3-1.1c-0.3-0.8-0.7-1.5-1.1-1.9
			c-0.3-0.3-0.7-0.6-1.1-0.8c-0.4-0.2-0.9-0.3-1.5-0.3c-0.6,0-1.1,0.1-1.6,0.3c-0.5,0.2-0.9,0.5-1.2,0.8c-0.5,0.5-0.8,1.2-1.1,2
			c-0.3,0.8-0.4,3.9-0.4,4.9v0.2c0.2,0,0.4,0,0.6,0.1c0.2,0,0.3,0,0.3,0c0-0.1,0-0.1,0-0.2v-0.1c0-0.6,0.1-3.3,0.2-3.9
			c0.1-0.6,0.3-1.1,0.6-1.5c0.3-0.6,0.7-1,1.1-1.2c0.5-0.3,1-0.4,1.5-0.4c0.5,0,1,0.1,1.5,0.4C0.6-229.6,1-229.2,1.3-228.7z"/>
		<path class="st3" d="M-4.4-222.8l-0.3,0c0,0-0.1,0-0.3,0c-0.2,0-0.4,0-0.5-0.1l-0.2,0v-0.4c0-0.9,0.1-4.1,0.4-5
			c0.3-0.8,0.6-1.5,1.1-2c0.3-0.4,0.8-0.7,1.3-0.9c0.5-0.2,1-0.3,1.7-0.3c0.6,0,1.1,0.1,1.5,0.3c0.5,0.2,0.9,0.5,1.2,0.9
			c0.5,0.5,0.9,1.2,1.2,2c0.1,0.4,0.2,0.8,0.3,1.2l0,0.3l-0.3,0c-0.4,0-0.6,0-0.9,0l-0.2,0l0-0.2c-0.1-0.5-0.3-1-0.5-1.4
			c-0.3-0.5-0.6-0.9-1.1-1.1c-0.4-0.3-0.9-0.4-1.4-0.4c-0.5,0-1,0.1-1.4,0.4c-0.4,0.2-0.8,0.6-1.1,1.1c-0.2,0.4-0.4,0.9-0.5,1.5
			c-0.1,0.5-0.2,3.2-0.2,3.8v0.1c0,0.1,0,0.1,0,0.2L-4.4-222.8z M-5.3-223.3c0.1,0,0.2,0,0.4,0c0,0,0,0,0.1,0v-0.1
			c0-0.4,0.1-3.3,0.2-3.9c0.1-0.6,0.3-1.1,0.6-1.6c0.3-0.6,0.7-1,1.2-1.3c0.5-0.3,1-0.4,1.6-0.4c0.6,0,1.1,0.2,1.6,0.5
			c0.5,0.3,0.9,0.7,1.2,1.3l0,0c0.2,0.4,0.4,0.8,0.5,1.3c0.1,0,0.3,0,0.5,0c-0.1-0.3-0.1-0.6-0.2-0.8c-0.3-0.8-0.6-1.4-1.1-1.9
			c-0.3-0.3-0.7-0.6-1.1-0.8c-0.4-0.2-0.9-0.3-1.4-0.3c-0.6,0-1.1,0.1-1.5,0.3c-0.4,0.2-0.8,0.5-1.1,0.8c-0.5,0.5-0.8,1.1-1,1.9
			C-5.2-227.5-5.3-224.4-5.3-223.3L-5.3-223.3z"/>
	</g>
</g>
<path class="st3" d="M11-389.8c-4.1,0-7.5,3.3-7.5,7.5c0,1.9,0.7,3.6,1.9,4.9l5.5-11l5.6,11.1c1.2-1.3,1.9-3.1,1.9-5
	C18.5-386.5,15.1-389.8,11-389.8z"/>
<path class="st3" d="M9.5-379.7L9.5-379.7L8.2-377h0l-0.6,1.2c1,0.5,2.2,0.8,3.5,0.8c1.2,0,2.4-0.3,3.4-0.8l-3.4-6.8L9.5-379.7z"/>
<path class="st3" d="M11-395c-7,0-12.6,5.6-12.6,12.6c0,7,5.6,12.6,12.6,12.6c7,0,12.6-5.6,12.6-12.6C23.6-389.4,18-395,11-395z
	 M11-372.2c-5.6,0-10.2-4.6-10.2-10.2c0-5.6,4.6-10.2,10.2-10.2s10.2,4.6,10.2,10.2C21.2-376.8,16.6-372.2,11-372.2z"/>
<g class="st4">
	<path id="XMLID_17_" class="st3" d="M-44.3-304.6l0.4,0.2c0,0.3,0,0.9,0.3,1.1c1.3,0.8,2.5,1.7,3,2.6c1.7,3.1-1.2,6-3.8,5.7
		c1.4-1,1.8-3.1,1.3-5.4c-0.2-0.9-0.5-1.7-1.1-2.6C-44.3-303.4-44.3-303.9-44.3-304.6z"/>
	<path id="XMLID_16_" class="st3" d="M-43.8-307.9l-0.4,1.5c0.5-1.1,1.4-1.9,2.4-2.6c-0.7,0.8-1.4,1.7-1.8,2.5
		c0.7-0.9,1.6-1.5,2.6-1.8c-1.4,1.2-2.4,2.5-3.3,3.8l-0.7-0.3C-44.7-305.8-44.4-306.9-43.8-307.9z"/>
	<path id="XMLID_15_" class="st3" d="M-41.8-309c-0.5,0.5-1.3,1.4-1.8,2.2c-0.4,0.7-0.7,1.3-0.8,1.7c-0.1,0.3-0.5,0.3-0.4-0.2l0,0
		c0.1-0.3,0.4-0.8,0.6-1.3l0.4-1.4c-0.2,0.6-0.4,1.1-0.6,1.8c0,0-0.3,0.6-0.3,0.8c0,0.1,0,0.1-0.1,0.2l0,0c0,0.1-0.1,0.1-0.1,0.2
		c0,0,0,0,0,0c0,0.1,0,0.2,0,0.2c0.1,0.1,0.7,0.3,0.7,0.3c0.8-1.3,1.9-2.6,3.3-3.8c-1,0.3-1.9,0.9-2.6,1.8
		C-43.2-307.3-42.5-308.2-41.8-309z"/>
	<path id="XMLID_14_" class="st3" d="M-44.3-304.6l0.1,0.1c0.8-1.3,1.9-2.6,3.3-3.8c-0.8,0.6-1.8,1.5-2.3,2.1c-0.6,0.7-0.2,0-0.2,0
		s0.3-0.8,0.8-1.2c-0.3,0.1-0.8,0.8-0.9,0.9c0,0-0.4,0.8-0.6,1.5C-44.2-304.9-44.3-304.6-44.3-304.6z"/>
	<path id="XMLID_13_" class="st3" d="M-44.5-304.6l0.9,0.1c-0.3,0.9,0.5,1.5,0.8,1.7c0.6,0.3,1.2,0.7,1.6,1.1c0.9,0.8,1.3,1.9,1.3,3
		c0,1.1-0.5,2.3-1.4,3c-0.8,0.7-2,1-3.1,1c-0.7,0-1.3,0-2-0.3c-1.5-0.5-2.7-1.8-2.8-3.4c-0.1-1.2,0.2-2.2,1.1-3.2
		c0.5-0.5,1.5-1.1,2.2-1.6c0.3-0.2,0.7-0.9,0-2.1l0.1-0.1l1,0.7l-0.9-0.4c0.1,0.1,0.3,0.6,0.3,0.7c0.1,0.4,0.1,0.8,0,0.9
		c-0.4,0.8-1.2,1-1.7,1.4c-0.9,0.8-2,1.4-1.9,3.5c0.1,1.1,0.9,2.3,2.1,2.9c0.7,0.3,1.5,0.5,2.3,0.5c0.7,0,2.1-0.4,2.9-1
		c0.8-0.7,1.3-1.7,1.3-2.7c0-1.1-0.4-2.1-1.2-2.8c-0.5-0.4-1.2-0.9-1.7-1.2c-0.5-0.3-1-1-0.9-1.7L-44.5-304.6z"/>
	<path id="XMLID_12_" class="st3" d="M-44.8-303.1c-0.1,0.5-0.2,1.4-0.6,1.7c-0.2,0.1-0.4,0.3-0.5,0.4c-0.8,0.5-1.5,1-1.9,2.2
		c-0.1,0.3,0,0.5,0.1,0.8c0.2,0.8,0.7,1.6,1.1,2.1c0,0,0.1,0.1,0.1,0.1c0.3,0.4,0.5,0.5,1.8,0.8l0,0.1c-0.8-0.2-1.4-0.4-1.9-0.9
		c0,0-0.1-0.1-0.1-0.1c-0.4-0.5-1-1.3-1.2-2.1c-0.1-0.3-0.1-0.6-0.1-0.9c0.4-1.3,1.1-1.8,1.9-2.3c0.2-0.1,0.4-0.2,0.6-0.4
		C-45.1-301.7-45-302.5-44.8-303.1z"/>
	<path id="XMLID_11_" class="st3" d="M-44.4-301.1c0,0.5,0,0.8,0.1,1.2c0.1,0.2,0.4,0.5,0.5,0.9c0.1,0.4,0.2,0.9,0.2,1.1
		c0,0.3,0,0.9-0.2,1.5c-0.1,0.5-0.3,1-0.7,1.2c-0.4-0.1-0.9-0.2-1.2-0.5c-0.6-0.5-1.1-1.3-1.1-2c-0.1-0.6,0.5-1.4,1.2-1.9
		c0.6-0.4,0.8-0.8,0.9-1.5c-0.2,0.6-0.4,1.1-1,1.4c-0.9,0.5-1.3,1.2-1.3,2c0.1,0.9,0.4,1.6,1.2,2.1c0.3,0.2,0.9,0.5,1.3,0.5v0
		c0.3-0.1,0.6-0.5,0.8-1.1c0.2-0.6,0.2-1.3,0.2-1.7c0-0.3-0.1-0.8-0.3-1.4c-0.1-0.3-0.3-0.6-0.4-0.8
		C-44.4-300.1-44.4-300.6-44.4-301.1z"/>
	<path id="XMLID_10_" class="st3" d="M-44.5-299c0,0.4,0.2,0.8,0.2,1.3c0.1,0.4,0,0.7,0,1c0,0.4-0.1,1-0.3,1.3
		c-0.2-0.1-0.2-0.2-0.3-0.3c-0.1-0.2-0.2-0.4-0.3-0.6c-0.1-0.2-0.1-0.3-0.2-0.5c0-0.3,0-0.8,0.3-1.3
		C-44.7-298.4-44.7-298.5-44.5-299c-0.2,0.5-0.3,0.5-0.6,0.9c-0.3,0.4-0.4,0.9-0.4,1.4c0,0.2,0.1,0.4,0.1,0.6
		c0.1,0.2,0.2,0.4,0.3,0.6c0.2,0.3,0.4,0.4,0.5,0.4h0l0,0v0c0.2-0.2,0.3-0.5,0.4-0.7c0.1-0.3,0.1-0.5,0.1-0.9c0-0.3,0-0.6-0.1-1
		C-44.3-298.2-44.4-298.7-44.5-299z"/>
	<path id="XMLID_9_" class="st3" d="M-44.5-303.5c0,0.5,0.1,1.6,0.2,2c0,0.1,0.4,0.7,0.7,1.5c0.2,0.5,0.2,1,0.3,1.1
		c0.1,0.6,0,1.6-0.2,2.6c-0.1,0.5-0.5,1.2-0.9,1.4l-0.1,0.1c0.2,0,0.8-0.6,1-1.3c0.3-1.2,0.5-1.7,0.3-3c0-0.1-0.1-0.6-0.3-1
		c-0.3-0.7-0.7-1.4-0.8-1.5C-44.3-301.9-44.5-302.9-44.5-303.5z"/>
	<path id="XMLID_8_" class="st3" d="M-44.3-304.3c0,0.6,0,0.8,0.1,1.2c0.1,0.5,0.7,1.1,0.9,1.9c0.5,1.4,0.3,3.3,0,4.8
		c-0.1,0.5-0.7,1.3-1.3,1.5l0.4,0.1c0.2,0,0.9-0.6,1.1-1.3c0.4-1,0.5-2.3,0.3-3.6c0-0.1-0.2-1.3-0.4-1.7c-0.3-0.7-0.8-1.3-0.8-1.5
		C-44.1-303.1-44.3-303.6-44.3-304.3z"/>
	<path id="XMLID_7_" class="st3" d="M-44.6-304.7c0,0,0,0.3,0,0.7c0,0.5,0,1.2,0,2.1c0,0.9,0,2,0,3.1c0,1.2,0,2.4,0,3.7h0
		c0-1.2,0-2.4,0-3.5c0-1.1,0-2.2,0-3s0-1.6,0-2.2S-44.6-304.6-44.6-304.7C-44.6-304.7-44.6-304.7-44.6-304.7
		C-44.6-304.7-44.6-304.7-44.6-304.7c0,0.1,0,0.4,0.1,1c0,0.5,0,1.3,0,2.2c0,0.9,0,1.9,0,3.1c0,1.1,0,2.3,0,3.5c0,0-0.1,0-0.1,0
		c0-1.3,0-2.6,0-3.7c0-1.2,0-2.3,0-3.2c0-0.9,0-1.6,0-2.1C-44.6-304.4-44.6-304.7-44.6-304.7z"/>
</g>
<g>
	<path id="XMLID_22_" class="st3" d="M-28.9-304.6l0.4,0.2c0,0.3,0,0.9,0.3,1.1c1.3,0.8,2.5,1.7,3,2.6c1.7,3.1-1.2,6-3.8,5.7
		c1.4-1,1.8-3.1,1.3-5.4c-0.2-0.9-0.5-1.7-1.1-2.6C-29-303.4-28.9-303.9-28.9-304.6z"/>
	<path id="XMLID_21_" class="st3" d="M-28.4-307.9l-0.4,1.5c0.5-1.1,1.4-1.9,2.4-2.6c-0.7,0.8-1.4,1.7-1.8,2.5
		c0.7-0.9,1.6-1.5,2.6-1.8c-1.4,1.2-2.4,2.5-3.3,3.8l-0.7-0.3C-29.4-305.8-29-306.9-28.4-307.9z"/>
	<path id="XMLID_20_" class="st3" d="M-26.4-309c-0.5,0.5-1.3,1.4-1.8,2.2c-0.4,0.7-0.7,1.3-0.8,1.7c-0.1,0.3-0.5,0.3-0.4-0.2l0,0
		c0.1-0.3,0.4-0.8,0.6-1.3l0.4-1.4c-0.2,0.6-0.4,1.1-0.6,1.8c0,0-0.3,0.6-0.3,0.8c0,0.1,0,0.1-0.1,0.2l0,0c0,0.1-0.1,0.1-0.1,0.2
		c0,0,0,0,0,0c0,0.1,0,0.2,0,0.2c0.1,0.1,0.7,0.3,0.7,0.3c0.8-1.3,1.9-2.6,3.3-3.8c-1,0.3-1.9,0.9-2.6,1.8
		C-27.8-307.3-27.1-308.2-26.4-309z"/>
	<path id="XMLID_19_" class="st3" d="M-29-304.6l0.1,0.1c0.8-1.3,1.9-2.6,3.3-3.8c-0.8,0.6-1.8,1.5-2.3,2.1c-0.6,0.7-0.2,0-0.2,0
		s0.3-0.8,0.8-1.2c-0.3,0.1-0.8,0.8-0.9,0.9c0,0-0.4,0.8-0.6,1.5C-28.9-304.9-29-304.6-29-304.6z"/>
	<path id="XMLID_18_" class="st3" d="M-29.1-304.6l0.9,0.1c-0.3,0.9,0.5,1.5,0.8,1.7c0.6,0.3,1.2,0.7,1.6,1.1c0.9,0.8,1.3,1.9,1.3,3
		c0,1.1-0.5,2.3-1.4,3c-0.8,0.7-2,1-3.1,1c-0.7,0-1.3,0-2-0.3c-1.5-0.5-2.7-1.8-2.8-3.4c-0.1-1.2,0.2-2.2,1.1-3.2
		c0.5-0.5,1.5-1.1,2.2-1.6c0.3-0.2,0.7-0.9,0-2.1l0.1-0.1l1,0.7l-0.9-0.4c0.1,0.1,0.3,0.6,0.3,0.7c0.1,0.4,0.1,0.8,0,0.9
		c-0.4,0.8-1.2,1-1.7,1.4c-0.9,0.8-2,1.4-1.9,3.5c0.1,1.1,0.9,2.3,2.1,2.9c0.7,0.3,1.5,0.5,2.3,0.5c0.7,0,2.1-0.4,2.9-1
		c0.8-0.7,1.3-1.7,1.3-2.7c0-1.1-0.4-2.1-1.2-2.8c-0.5-0.4-1.2-0.9-1.7-1.2c-0.5-0.3-1-1-0.9-1.7L-29.1-304.6z"/>
	<path id="XMLID_6_" class="st3" d="M-29.4-303.1c-0.1,0.5-0.2,1.4-0.6,1.7c-0.2,0.1-0.4,0.3-0.5,0.4c-0.8,0.5-1.5,1-1.9,2.2
		c-0.1,0.3,0,0.5,0.1,0.8c0.2,0.8,0.7,1.6,1.1,2.1c0,0,0.1,0.1,0.1,0.1c0.3,0.4,0.5,0.5,1.8,0.8l0,0.1c-0.8-0.2-1.4-0.4-1.9-0.9
		c0,0-0.1-0.1-0.1-0.1c-0.4-0.5-1-1.3-1.2-2.1c-0.1-0.3-0.1-0.6-0.1-0.9c0.4-1.3,1.1-1.8,1.9-2.3c0.2-0.1,0.4-0.2,0.6-0.4
		C-29.8-301.7-29.6-302.5-29.4-303.1z"/>
	<path id="XMLID_5_" class="st3" d="M-29.1-301.1c0,0.5,0,0.8,0.1,1.2c0.1,0.2,0.4,0.5,0.5,0.9c0.1,0.4,0.2,0.9,0.2,1.1
		c0,0.3,0,0.9-0.2,1.5c-0.1,0.5-0.3,1-0.7,1.2c-0.4-0.1-0.9-0.2-1.2-0.5c-0.6-0.5-1.1-1.3-1.1-2c-0.1-0.6,0.5-1.4,1.2-1.9
		c0.6-0.4,0.8-0.8,0.9-1.5c-0.2,0.6-0.4,1.1-1,1.4c-0.9,0.5-1.3,1.2-1.3,2c0.1,0.9,0.4,1.6,1.2,2.1c0.3,0.2,0.9,0.5,1.3,0.5v0
		c0.3-0.1,0.6-0.5,0.8-1.1c0.2-0.6,0.2-1.3,0.2-1.7c0-0.3-0.1-0.8-0.3-1.4c-0.1-0.3-0.3-0.6-0.4-0.8C-29-300.1-29-300.6-29.1-301.1z
		"/>
	<path id="XMLID_4_" class="st3" d="M-29.1-299c0,0.4,0.2,0.8,0.2,1.3c0.1,0.4,0,0.7,0,1c0,0.4-0.1,1-0.3,1.3
		c-0.2-0.1-0.2-0.2-0.3-0.3c-0.1-0.2-0.2-0.4-0.3-0.6c-0.1-0.2-0.1-0.3-0.2-0.5c0-0.3,0-0.8,0.3-1.3
		C-29.4-298.4-29.3-298.5-29.1-299c-0.2,0.5-0.3,0.5-0.6,0.9c-0.3,0.4-0.4,0.9-0.4,1.4c0,0.2,0.1,0.4,0.1,0.6
		c0.1,0.2,0.2,0.4,0.3,0.6c0.2,0.3,0.4,0.4,0.5,0.4h0l0,0v0c0.2-0.2,0.3-0.5,0.4-0.7c0.1-0.3,0.1-0.5,0.1-0.9c0-0.3,0-0.6-0.1-1
		C-28.9-298.2-29.1-298.7-29.1-299z"/>
	<path id="XMLID_3_" class="st3" d="M-29.1-303.5c0,0.5,0.1,1.6,0.2,2c0,0.1,0.4,0.7,0.7,1.5c0.2,0.5,0.2,1,0.3,1.1
		c0.1,0.6,0,1.6-0.2,2.6c-0.1,0.5-0.5,1.2-0.9,1.4l-0.1,0.1c0.2,0,0.8-0.6,1-1.3c0.3-1.2,0.5-1.7,0.3-3c0-0.1-0.1-0.6-0.3-1
		c-0.3-0.7-0.7-1.4-0.8-1.5C-28.9-301.9-29.1-302.9-29.1-303.5z"/>
	<path id="XMLID_2_" class="st3" d="M-28.9-304.3c0,0.6,0,0.8,0.1,1.2c0.1,0.5,0.7,1.1,0.9,1.9c0.5,1.4,0.3,3.3,0,4.8
		c-0.1,0.5-0.7,1.3-1.3,1.5l0.4,0.1c0.2,0,0.9-0.6,1.1-1.3c0.4-1,0.5-2.3,0.3-3.6c0-0.1-0.2-1.3-0.4-1.7c-0.3-0.7-0.8-1.3-0.8-1.5
		C-28.7-303.1-28.9-303.6-28.9-304.3z"/>
	<path id="XMLID_1_" class="st3" d="M-29.2-304.7c0,0,0,0.3,0,0.7c0,0.5,0,1.2,0,2.1c0,0.9,0,2,0,3.1c0,1.2,0,2.4,0,3.7h0
		c0-1.2,0-2.4,0-3.5c0-1.1,0-2.2,0-3s0-1.6,0-2.2C-29.2-304.2-29.2-304.6-29.2-304.7C-29.2-304.7-29.2-304.7-29.2-304.7
		C-29.2-304.7-29.2-304.7-29.2-304.7c0,0.1,0,0.4,0.1,1c0,0.5,0,1.3,0,2.2c0,0.9,0,1.9,0,3.1c0,1.1,0,2.3,0,3.5c0,0-0.1,0-0.1,0
		c0-1.3,0-2.6,0-3.7c0-1.2,0-2.3,0-3.2c0-0.9,0-1.6,0-2.1C-29.2-304.4-29.2-304.7-29.2-304.7z"/>
</g>
<g class="st5">
	<path id="XMLID_33_" class="st3" d="M32.1,20.2l2,1c-0.2,1.3,0.1,4.1,1.4,4.9c5.7,3.5,11.1,7.4,13.2,11.3
		c7.5,13.6-5.3,26.2-16.4,25c6-4.5,7.8-13.6,5.5-23.6c-0.9-3.9-2.3-7.5-4.9-11.5C31.8,25.4,32.1,22.9,32.1,20.2z"/>
	<path id="XMLID_32_" class="st3" d="M34.2,5.5l-1.7,6.6C34.9,7.5,38.7,4,42.9,0.9c-3.1,3.6-6,7.3-7.7,10.9c2.9-4.1,6.9-6.4,11.4-8
		c-5.9,5.3-10.6,11-14.2,16.7l-2.9-1.2C30,14.7,31.7,10,34.2,5.5z"/>
	<path id="XMLID_31_" class="st3" d="M42.9,0.9c-2.1,2.3-5.8,6.3-7.8,9.7c-1.7,3-2.8,5.6-3.5,7.4c-0.4,1.1-2.1,1.1-1.6-0.8l0-0.1
		c0.6-1.5,1.6-3.6,2.6-5.5l1.5-6.2c-0.8,2.6-1.8,5-2.5,7.7c0,0-1.2,2.7-1.5,3.4c-0.1,0.2-0.2,0.5-0.3,0.7l0,0
		c-0.1,0.3-0.2,0.6-0.3,0.9c0,0,0,0.1,0,0.1c-0.1,0.4-0.1,0.7-0.1,0.7c0.5,0.4,2.8,1.4,2.8,1.4c3.6-5.7,8.3-11.4,14.2-16.7
		c-4.5,1.5-8.4,3.8-11.4,8C37,8.1,39.8,4.5,42.9,0.9z"/>
	<path id="XMLID_30_" class="st3" d="M31.8,20.1l0.5,0.4c3.6-5.7,8.3-11.4,14.2-16.7c-3.4,2.8-8,6.6-9.9,9.2c-2.4,3.2-1,0.2-1,0.2
		s1.3-3.4,3.6-5.5c-1.3,0.6-3.6,3.5-4,4.1c0,0-1.7,3.3-2.7,6.4C32.3,19,31.8,20.1,31.8,20.1z"/>
	<path id="XMLID_29_" class="st3" d="M31.1,19.9l4,0.6c-1.2,4,2.3,6.7,3.5,7.4c2.6,1.4,5.1,2.9,7,4.7c3.7,3.4,5.8,8.2,5.8,13.2
		c0,5-2.3,9.8-6.2,13.1c-3.6,3-8.6,4.3-13.5,4.3c-3,0-5.8-0.1-8.7-1.1c-6.7-2.3-11.7-8-12.1-14.9c-0.4-5.4,0.8-9.5,5-13.8
		c2.2-2.3,6.5-4.8,9.5-6.9c1.5-1,3-3.9,0-9.2l0.6-0.5l4.4,3l-3.7-1.5c0.3,0.5,1.2,2.5,1.4,3.1c0.4,1.7,0.2,3.4-0.1,4.1
		c-1.9,3.4-5.1,4.3-7.5,6.3c-4.1,3.4-8.6,6.1-8.1,15.5c0.2,4.6,3.8,10.2,9.2,12.8c3,1.5,6.5,2.1,10.1,2.3c3.2,0.1,9.2-1.7,12.6-4.5
		c3.5-2.9,5.5-7.4,5.5-12c0-4.6-1.8-9-5.3-12.1c-2-1.8-5.2-4-7.3-5.1c-2-1.2-4.6-4.4-3.7-7.5L31.1,19.9z"/>
	<path id="XMLID_28_" class="st3" d="M29.9,26.7c-0.4,2.1-0.9,5.9-2.7,7.4c-0.8,0.6-1.6,1.1-2.4,1.7c-3.3,2.3-6.6,4.4-8.1,9.8
		c-0.3,1.2,0,2.4,0.2,3.5c0.8,3.3,3.2,6.9,5,9c0,0.1,0.4,0.3,0.4,0.4c1.5,1.8,2,2.3,7.7,3.6l-0.1,0.6c-3.5-0.9-6.3-1.7-8.1-3.8
		c0,0-0.3-0.4-0.3-0.4c-1.9-2.2-4.3-5.9-5.2-9.3c-0.3-1.4-0.6-2.4-0.2-3.9c1.6-5.6,5-7.8,8.4-10.2c0.8-0.5,1.7-1,2.4-1.6
		C28.3,32.5,29.1,29.3,29.9,26.7z"/>
	<path id="XMLID_27_" class="st3" d="M31.3,35.4c0,2.4-0.2,3.6,0.4,5.3c0.4,1,1.6,2.4,2,3.7c0.5,1.8,1.1,3.8,1,5
		c0,1.4-0.1,4-0.7,6.7c-0.5,2.3-1.5,4.2-3.3,5.3c-1.8-0.4-3.9-1-5.2-2.1c-2.4-2.1-4.6-5.7-4.9-8.7c-0.2-2.5,2.1-6.3,5.4-8.1
		c2.8-1.6,3.4-3.4,4-6.4c-0.8,2.6-1.6,4.7-4.3,6.1c-3.9,2-5.8,5.4-5.7,8.6c0.3,4.1,1.9,6.9,5.2,9.2c1.4,1,4,2,5.6,2.3v-0.2
		c1.2-0.2,2.8-2.2,3.6-4.9c0.7-2.4,1-5.6,0.9-7.5c0-1.2-0.6-3.6-1.5-5.9c-0.5-1.2-1.3-2.5-1.8-3.4C31.6,39.5,31.6,37.6,31.3,35.4z"
		/>
	<path id="XMLID_26_" class="st3" d="M31.1,44.5c0,1.6,0.7,3.7,1,5.8c0.2,1.6,0.1,3.1,0.1,4.5c0,1.6-0.6,4.5-1.3,5.9
		c-0.7-0.3-1-0.7-1.4-1.3c-0.6-0.8-0.9-1.6-1.3-2.5c-0.3-0.7-0.6-1.5-0.7-2.4c-0.2-1.4-0.1-3.5,1.4-5.7c1.2-1.7,1.5-1.9,1.9-3.9
		c-0.6,1.8-1,2-2.3,3.5c-1.4,1.7-1.7,4.1-1.7,6.1c0,0.8,0.3,1.7,0.7,2.6c0.4,0.9,0.7,1.8,1.2,2.5c0.8,1.1,1.7,1.8,2.2,1.9h0l0,0
		v-0.1c0.9-1,1.4-2,1.6-3c0.2-1.2,0.3-2.4,0.4-3.8c0.1-1.2,0-2.8-0.3-4.5C32.2,48,31.4,45.9,31.1,44.5z"/>
	<path id="XMLID_25_" class="st3" d="M31.2,24.8c0,2.4,0.2,6.9,0.9,8.6c0.2,0.6,1.9,3.2,3.1,6.4c0.8,2.2,1,4.2,1.2,4.8
		c0.6,2.6-0.1,7-1.1,11.2c-0.5,2.3-2,5.1-3.8,6.2l-0.4,0.6c1,0,3.5-2.5,4.4-5.5c1.5-5.2,2.1-7.5,1.4-13.3c-0.1-0.6-0.3-2.4-1.2-4.5
		c-1.3-3.1-3.1-6-3.4-6.6C31.8,31.8,31.3,27.6,31.2,24.8z"/>
	<path id="XMLID_24_" class="st3" d="M32.1,21.5c-0.1,2.5-0.2,3.4,0.3,5.2c0.5,2,3.1,4.8,4.1,8.1c2,6.3,1.5,14.4,0,20.8
		c-0.6,2.3-3.2,5.5-5.8,6.6l1.9,0.5c1.1,0,3.8-2.6,4.8-5.5c1.7-4.6,2-10,1.3-15.7c0-0.6-1-5.5-1.8-7.5c-1.2-3.1-3.5-5.8-3.7-6.4
		C32.9,26.5,32,24.4,32.1,21.5z"/>
	<path id="XMLID_23_" class="st3" d="M30.6,19.8c0,0,0,1.1,0.1,3.2c0,2.1,0,5.3,0,9.2c0,3.9,0,8.6,0,13.7c0,5.1,0,10.7,0,16.2h0
		c0-5.2,0-10.5,0-15.3c0-4.9,0-9.4,0-13.3s0-7.1,0-9.4c0-2.3,0-3.8,0-4.3C30.7,19.8,30.6,19.8,30.6,19.8c0,0,0.1,0,0.2,0
		c0,0.5,0,1.9,0,4.3c0,2.3,0,5.6,0,9.5c0,3.9,0,8.4,0,13.4c0,4.9,0,10.2,0,15.5c-0.1,0-0.2,0-0.3,0c0-5.6,0-11.1,0-16.3
		c0-5.1,0-9.9,0-13.8c0-3.9,0-7.1,0-9.2C30.6,20.9,30.6,19.8,30.6,19.8z"/>
</g>
<g>
	<g>
		<path class="st3" d="M-19-254.6c-1.6,0-3,0.5-3.2,1.2c-0.1,0.3,0.2,0.6,0.6,0.9l2.5-1.9l1.8,2c0.5-0.2,0.9-0.5,0.9-0.8
			C-16.2-253.9-17.4-254.5-19-254.6z"/>
		<path class="st3" d="M-20.9-252.2c0.4,0.1,0.8,0.2,1.3,0.2c0.5,0,0.9,0,1.3-0.1l-1.1-1.2L-20.9-252.2z"/>
		<path class="st3" d="M-18.9-255.5c-2.7-0.1-5.1,0.9-5.4,2.1c-0.2,1.2,1.8,2.2,4.5,2.3c2.7,0.1,5.1-0.9,5.4-2.1
			S-16.1-255.4-18.9-255.5z M-19.6-251.5c-2.2,0-3.8-0.9-3.6-1.8c0.2-1,2.1-1.7,4.3-1.7s3.8,0.9,3.6,1.8S-17.4-251.5-19.6-251.5z"/>
	</g>
	<g>
		<path class="st3" d="M-20.5-246.9c-3.3,0-5.9-1.3-5.9-3c0-0.9,0.7-1.7,1.9-2.2l0.2,0.4c-1.1,0.5-1.7,1.2-1.7,1.9
			c0,1.4,2.5,2.6,5.5,2.6c2.4,0,4.5-0.7,5.2-1.8l0.3,0.2C-15.8-247.7-18-246.9-20.5-246.9z"/>
		<path class="st3" d="M-20.5-244.9c-3.2,0-5.9-1.4-5.9-3v-2.1h0.4v2.1c0,1.4,2.5,2.6,5.5,2.6s5.5-1.2,5.5-2.6v-1.2h0.4v1.2
			C-14.7-246.3-17.3-244.9-20.5-244.9z"/>
		<g>
			<rect x="-20.7" y="-247.1" class="st3" width="0.4" height="2.1"/>
			<rect x="-19.5" y="-247.1" class="st3" width="0.4" height="2.1"/>
			<rect x="-18.3" y="-247.4" class="st3" width="0.4" height="1.8"/>
			<rect x="-17.1" y="-247.7" class="st3" width="0.4" height="1.8"/>
			<rect x="-15.9" y="-248.3" class="st3" width="0.4" height="1.8"/>
			<rect x="-23.1" y="-247.4" class="st3" width="0.4" height="2.1"/>
			<rect x="-21.9" y="-247.1" class="st3" width="0.4" height="2.1"/>
			<rect x="-25.5" y="-248.3" class="st3" width="0.4" height="1.8"/>
			<rect x="-24.3" y="-247.7" class="st3" width="0.4" height="2.1"/>
		</g>
	</g>
	<g>
		<path class="st3" d="M-19.3-244.2c-1.8,0-3.5-0.4-4.6-1.1l0.2-0.3c1.1,0.7,2.6,1.1,4.4,1.1c3,0,5.5-1.2,5.5-2.6
			c0-0.6-0.5-1.3-1.4-1.8l0.2-0.3c1.1,0.6,1.6,1.3,1.6,2.1C-13.5-245.5-16-244.2-19.3-244.2z"/>
		<path class="st3" d="M-19.3-242.2c-3.2,0-5.9-1.4-5.9-3v-0.6h0.4v0.6c0,1.4,2.5,2.6,5.5,2.6s5.5-1.2,5.5-2.6v-2.1h0.4v2.1
			C-13.5-243.6-16.1-242.2-19.3-242.2z"/>
		<g>
			<rect x="-19.5" y="-244.4" class="st3" width="0.4" height="2.1"/>
			<rect x="-18.3" y="-244.4" class="st3" width="0.4" height="2.1"/>
			<rect x="-17.1" y="-244.7" class="st3" width="0.4" height="1.8"/>
			<rect x="-15.9" y="-245" class="st3" width="0.4" height="1.8"/>
			<rect x="-14.7" y="-245.6" class="st3" width="0.4" height="1.8"/>
			<rect x="-21.9" y="-244.7" class="st3" width="0.4" height="2.1"/>
			<rect x="-20.7" y="-244.4" class="st3" width="0.4" height="2.1"/>
			<rect x="-24.3" y="-245.6" class="st3" width="0.4" height="1.8"/>
			<rect x="-23.1" y="-245" class="st3" width="0.4" height="2.1"/>
		</g>
	</g>
	<g>
		<path class="st3" d="M-19.3-250.2c-3.3,0-5.9-1.3-5.9-3c0-1.7,2.6-3,5.9-3c3.3,0,5.9,1.3,5.9,3C-13.5-251.5-16-250.2-19.3-250.2z
			 M-19.3-255.8c-3,0-5.5,1.2-5.5,2.6c0,1.4,2.5,2.6,5.5,2.6c3,0,5.5-1.2,5.5-2.6C-13.9-254.6-16.4-255.8-19.3-255.8z"/>
		<path class="st3" d="M-19.3-248.2c-3.2,0-5.9-1.4-5.9-3v-2.1h0.4v2.1c0,1.4,2.5,2.6,5.5,2.6s5.5-1.2,5.5-2.6v-2.1h0.4v2.1
			C-13.5-249.6-16.1-248.2-19.3-248.2z"/>
		<g>
			<rect x="-19.5" y="-250.4" class="st3" width="0.4" height="2.1"/>
			<rect x="-18.3" y="-250.4" class="st3" width="0.4" height="2.1"/>
			<rect x="-17.1" y="-250.7" class="st3" width="0.4" height="1.8"/>
			<rect x="-15.9" y="-251" class="st3" width="0.4" height="1.8"/>
			<rect x="-14.7" y="-251.6" class="st3" width="0.4" height="1.8"/>
			<rect x="-21.9" y="-250.7" class="st3" width="0.4" height="2.1"/>
			<rect x="-20.7" y="-250.4" class="st3" width="0.4" height="2.1"/>
			<rect x="-24.3" y="-251.6" class="st3" width="0.4" height="1.8"/>
			<rect x="-23.1" y="-251" class="st3" width="0.4" height="2.1"/>
		</g>
	</g>
</g>
<g>
	<g>
		<path class="st3" d="M-43.3-63.6c-1.6,0-3,0.5-3.2,1.2c-0.1,0.3,0.2,0.6,0.6,0.9l2.5-1.9l1.8,2c0.5-0.2,0.9-0.5,0.9-0.8
			C-40.5-62.9-41.7-63.5-43.3-63.6z"/>
		<path class="st3" d="M-45.2-61.2c0.4,0.1,0.8,0.2,1.3,0.2c0.5,0,0.9,0,1.3-0.1l-1.1-1.2L-45.2-61.2z"/>
		<path class="st3" d="M-43.2-64.5c-2.7-0.1-5.1,0.9-5.4,2.1s1.8,2.2,4.5,2.3c2.7,0.1,5.1-0.9,5.4-2.1
			C-38.4-63.4-40.4-64.4-43.2-64.5z M-43.9-60.5c-2.2,0-3.8-0.9-3.6-1.8c0.2-1,2.1-1.7,4.3-1.7c2.2,0,3.8,0.9,3.6,1.8
			C-39.8-61.2-41.7-60.5-43.9-60.5z"/>
	</g>
	<g>
		<path class="st3" d="M-44.8-55.9c-3.3,0-5.9-1.3-5.9-3c0-0.9,0.7-1.7,1.9-2.2l0.2,0.4c-1.1,0.5-1.7,1.2-1.7,1.9
			c0,1.4,2.5,2.6,5.5,2.6c2.4,0,4.5-0.7,5.2-1.8l0.3,0.2C-40.1-56.7-42.3-55.9-44.8-55.9z"/>
		<path class="st3" d="M-44.8-53.9c-3.2,0-5.9-1.4-5.9-3v-2.1h0.4v2.1c0,1.4,2.5,2.6,5.5,2.6s5.5-1.2,5.5-2.6v-1.2h0.4v1.2
			C-38.9-55.3-41.6-53.9-44.8-53.9z"/>
		<g>
			<rect x="-45" y="-56.1" class="st3" width="0.4" height="2.1"/>
			<rect x="-43.8" y="-56.1" class="st3" width="0.4" height="2.1"/>
			<rect x="-42.6" y="-56.4" class="st3" width="0.4" height="1.8"/>
			<rect x="-41.4" y="-56.7" class="st3" width="0.4" height="1.8"/>
			<rect x="-40.2" y="-57.3" class="st3" width="0.4" height="1.8"/>
			<rect x="-47.4" y="-56.4" class="st3" width="0.4" height="2.1"/>
			<rect x="-46.2" y="-56.1" class="st3" width="0.4" height="2.1"/>
			<rect x="-49.8" y="-57.3" class="st3" width="0.4" height="1.8"/>
			<rect x="-48.6" y="-56.7" class="st3" width="0.4" height="2.1"/>
		</g>
	</g>
	<g>
		<path class="st3" d="M-43.6-53.2c-1.8,0-3.5-0.4-4.6-1.1l0.2-0.3c1.1,0.7,2.6,1.1,4.4,1.1c3,0,5.5-1.2,5.5-2.6
			c0-0.6-0.5-1.3-1.4-1.8l0.2-0.3c1.1,0.6,1.6,1.3,1.6,2.1C-37.8-54.5-40.3-53.2-43.6-53.2z"/>
		<path class="st3" d="M-43.6-51.2c-3.2,0-5.9-1.4-5.9-3v-0.6h0.4v0.6c0,1.4,2.5,2.6,5.5,2.6c3,0,5.5-1.2,5.5-2.6v-2.1h0.4v2.1
			C-37.8-52.6-40.4-51.2-43.6-51.2z"/>
		<g>
			<rect x="-43.8" y="-53.4" class="st3" width="0.4" height="2.1"/>
			<rect x="-42.6" y="-53.4" class="st3" width="0.4" height="2.1"/>
			<rect x="-41.4" y="-53.7" class="st3" width="0.4" height="1.8"/>
			<rect x="-40.2" y="-54" class="st3" width="0.4" height="1.8"/>
			<rect x="-39" y="-54.6" class="st3" width="0.4" height="1.8"/>
			<rect x="-46.2" y="-53.7" class="st3" width="0.4" height="2.1"/>
			<rect x="-45" y="-53.4" class="st3" width="0.4" height="2.1"/>
			<rect x="-48.6" y="-54.6" class="st3" width="0.4" height="1.8"/>
			<rect x="-47.4" y="-54" class="st3" width="0.4" height="2.1"/>
		</g>
	</g>
	<g>
		<path class="st3" d="M-43.6-59.2c-3.3,0-5.9-1.3-5.9-3c0-1.7,2.6-3,5.9-3c3.3,0,5.9,1.3,5.9,3C-37.8-60.5-40.3-59.2-43.6-59.2z
			 M-43.6-64.8c-3,0-5.5,1.2-5.5,2.6c0,1.4,2.5,2.6,5.5,2.6c3,0,5.5-1.2,5.5-2.6C-38.1-63.6-40.7-64.8-43.6-64.8z"/>
		<path class="st3" d="M-43.6-57.2c-3.2,0-5.9-1.4-5.9-3v-2.1h0.4v2.1c0,1.4,2.5,2.6,5.5,2.6c3,0,5.5-1.2,5.5-2.6v-2.1h0.4v2.1
			C-37.8-58.6-40.4-57.2-43.6-57.2z"/>
		<g>
			<rect x="-43.8" y="-59.4" class="st3" width="0.4" height="2.1"/>
			<rect x="-42.6" y="-59.4" class="st3" width="0.4" height="2.1"/>
			<rect x="-41.4" y="-59.7" class="st3" width="0.4" height="1.8"/>
			<rect x="-40.2" y="-60" class="st3" width="0.4" height="1.8"/>
			<rect x="-39" y="-60.6" class="st3" width="0.4" height="1.8"/>
			<rect x="-46.2" y="-59.7" class="st3" width="0.4" height="2.1"/>
			<rect x="-45" y="-59.4" class="st3" width="0.4" height="2.1"/>
			<rect x="-48.6" y="-60.6" class="st3" width="0.4" height="1.8"/>
			<rect x="-47.4" y="-60" class="st3" width="0.4" height="2.1"/>
		</g>
	</g>
</g>
<g>
	<g class="st6">
		<path class="st3" d="M-38.8-254.9c-1.6,0-3,0.5-3.2,1.2c-0.1,0.3,0.2,0.6,0.6,0.9l2.5-1.9l1.8,2c0.5-0.2,0.9-0.5,0.9-0.8
			C-36-254.3-37.1-254.9-38.8-254.9z"/>
		<path class="st3" d="M-40.6-252.5c0.4,0.1,0.8,0.2,1.3,0.2c0.5,0,0.9,0,1.3-0.1l-1.1-1.2L-40.6-252.5z"/>
		<path class="st3" d="M-38.6-255.8c-2.7-0.1-5.1,0.9-5.4,2.1c-0.2,1.2,1.8,2.2,4.5,2.3c2.7,0.1,5.1-0.9,5.4-2.1
			C-33.8-254.7-35.9-255.8-38.6-255.8z M-39.4-251.9c-2.2,0-3.8-0.9-3.6-1.8c0.2-1,2.1-1.7,4.3-1.7c2.2,0,3.8,0.9,3.6,1.8
			S-37.2-251.9-39.4-251.9z"/>
	</g>
	<g class="st6">
		<path class="st3" d="M-40.2-247.2c-3.3,0-5.9-1.3-5.9-3c0-0.9,0.7-1.7,1.9-2.2l0.2,0.4c-1.1,0.5-1.7,1.2-1.7,1.9
			c0,1.4,2.5,2.6,5.5,2.6c2.4,0,4.5-0.7,5.2-1.8l0.3,0.2C-35.5-248.1-37.7-247.2-40.2-247.2z"/>
		<path class="st3" d="M-40.2-245.3c-3.2,0-5.9-1.4-5.9-3v-2.1h0.4v2.1c0,1.4,2.5,2.6,5.5,2.6s5.5-1.2,5.5-2.6v-1.2h0.4v1.2
			C-34.4-246.6-37-245.3-40.2-245.3z"/>
		<g>
			<rect x="-40.4" y="-247.4" class="st3" width="0.4" height="2.1"/>
			<rect x="-39.2" y="-247.4" class="st3" width="0.4" height="2.1"/>
			<rect x="-38" y="-247.7" class="st3" width="0.4" height="1.8"/>
			<rect x="-36.9" y="-248" class="st3" width="0.4" height="1.8"/>
			<rect x="-35.7" y="-248.6" class="st3" width="0.4" height="1.8"/>
			<rect x="-42.8" y="-247.7" class="st3" width="0.4" height="2.1"/>
			<rect x="-41.6" y="-247.4" class="st3" width="0.4" height="2.1"/>
			<rect x="-45.2" y="-248.6" class="st3" width="0.4" height="1.8"/>
			<rect x="-44" y="-248" class="st3" width="0.4" height="2.1"/>
		</g>
	</g>
	<g class="st6">
		<path class="st3" d="M-39.1-244.6c-1.8,0-3.5-0.4-4.6-1.1l0.2-0.3c1.1,0.7,2.6,1.1,4.4,1.1c3,0,5.5-1.2,5.5-2.6
			c0-0.6-0.5-1.3-1.4-1.8l0.2-0.3c1.1,0.6,1.6,1.3,1.6,2.1C-33.2-245.9-35.8-244.6-39.1-244.6z"/>
		<path class="st3" d="M-39-242.6c-3.2,0-5.9-1.4-5.9-3v-0.6h0.4v0.6c0,1.4,2.5,2.6,5.5,2.6s5.5-1.2,5.5-2.6v-2.1h0.4v2.1
			C-33.2-244-35.8-242.6-39-242.6z"/>
		<g>
			<rect x="-39.2" y="-244.7" class="st3" width="0.4" height="2.1"/>
			<rect x="-38" y="-244.7" class="st3" width="0.4" height="2.1"/>
			<rect x="-36.9" y="-245" class="st3" width="0.4" height="1.8"/>
			<rect x="-35.7" y="-245.3" class="st3" width="0.4" height="1.8"/>
			<rect x="-34.5" y="-245.9" class="st3" width="0.4" height="1.8"/>
			<rect x="-41.6" y="-245" class="st3" width="0.4" height="2.1"/>
			<rect x="-40.4" y="-244.7" class="st3" width="0.4" height="2.1"/>
			<rect x="-44" y="-245.9" class="st3" width="0.4" height="1.8"/>
			<rect x="-42.8" y="-245.3" class="st3" width="0.4" height="2.1"/>
		</g>
	</g>
	<g class="st6">
		<path class="st3" d="M-39.1-250.5c-3.3,0-5.9-1.3-5.9-3s2.6-3,5.9-3c3.3,0,5.9,1.3,5.9,3S-35.8-250.5-39.1-250.5z M-39.1-256.2
			c-3,0-5.5,1.2-5.5,2.6s2.5,2.6,5.5,2.6c3,0,5.5-1.2,5.5-2.6S-36.1-256.2-39.1-256.2z"/>
		<path class="st3" d="M-39-248.6c-3.2,0-5.9-1.4-5.9-3v-2.1h0.4v2.1c0,1.4,2.5,2.6,5.5,2.6s5.5-1.2,5.5-2.6v-2.1h0.4v2.1
			C-33.2-249.9-35.8-248.6-39-248.6z"/>
		<g>
			<rect x="-39.2" y="-250.7" class="st3" width="0.4" height="2.1"/>
			<rect x="-38" y="-250.7" class="st3" width="0.4" height="2.1"/>
			<rect x="-36.9" y="-251" class="st3" width="0.4" height="1.8"/>
			<rect x="-35.7" y="-251.3" class="st3" width="0.4" height="1.8"/>
			<rect x="-34.5" y="-251.9" class="st3" width="0.4" height="1.8"/>
			<rect x="-41.6" y="-251" class="st3" width="0.4" height="2.1"/>
			<rect x="-40.4" y="-250.7" class="st3" width="0.4" height="2.1"/>
			<rect x="-44" y="-251.9" class="st3" width="0.4" height="1.8"/>
			<rect x="-42.8" y="-251.3" class="st3" width="0.4" height="2.1"/>
		</g>
	</g>
</g>
<text transform="matrix(1 0 0 1 -63.4814 -296.2982)"><tspan x="0" y="0" style="font-family:'Montserrat-Bold'; font-size:3.4907px;">TOR</tspan><tspan x="-13.5" y="26" style="font-family:'Montserrat-Bold'; font-size:3.4907px;">Connection</tspan><tspan x="-21" y="52" style="font-family:'Montserrat-Bold'; font-size:3.4907px;">Staking (off/on)</tspan><tspan x="-24.6" y="78" style="font-family:'Montserrat-Bold'; font-size:3.4907px;">Locked/Unlocked</tspan><tspan x="-7" y="104" style="font-family:'Montserrat-Bold'; font-size:3.4907px;">Syncing</tspan><tspan x="-5.7" y="130" style="font-family:'Montserrat-Bold'; font-size:3.4907px;">Synced</tspan></text>
<text transform="matrix(1 0 0 1 -96.0404 -139.5467)"><tspan x="0" y="0" style="font-family:'Montserrat-Bold'; font-size:3.4907px;">Transaction types:</tspan><tspan x="21.9" y="21" style="font-family:'Montserrat-Bold'; font-size:3.4907px;">- Send</tspan><tspan x="14.4" y="42" style="font-family:'Montserrat-Bold'; font-size:3.4907px;">- Received</tspan><tspan x="18.7" y="63" style="font-family:'Montserrat-Bold'; font-size:3.4907px;">- In-/out</tspan><tspan x="20.8" y="84" style="font-family:'Montserrat-Bold'; font-size:3.4907px;">- Stake</tspan></text>
<g>
	<ellipse class="st2" cx="-1.4" cy="-220.9" rx="3.1" ry="3"/>
	<g>
		<path class="st3" d="M-1.4-223c-1.1,0-2.1,0.9-2.1,2.1c0,0.5,0.2,1,0.5,1.4l1.5-3l1.5,3.1c0.3-0.4,0.5-0.8,0.5-1.4
			C0.6-222.1-0.3-223-1.4-223z"/>
		<path class="st3" d="M-2.4-219.1c0.3,0.1,0.6,0.2,1,0.2c0.3,0,0.6-0.1,0.9-0.2l-0.9-1.9L-2.4-219.1z"/>
		<path class="st3" d="M-1.4-224.4c-1.9,0-3.5,1.6-3.5,3.5c0,1.9,1.6,3.5,3.5,3.5c1.9,0,3.5-1.6,3.5-3.5
			C2-222.9,0.5-224.4-1.4-224.4z M-1.4-218.1c-1.5,0-2.8-1.3-2.8-2.8c0-1.5,1.3-2.8,2.8-2.8s2.8,1.3,2.8,2.8
			C1.4-219.4,0.1-218.1-1.4-218.1z"/>
	</g>
</g>
<polygon class="st3" points="-50.6,-126.8 -50.6,-123.2 -43.4,-119.6 -50.7,-115.9 -50.7,-112.4 -36.3,-119.7 "/>
<polygon class="st3" points="-36.4,-92.5 -36.3,-96.1 -43.5,-99.7 -36.3,-103.3 -36.3,-106.9 -50.7,-99.6 "/>
<polygon class="st3" points="-50.4,-85.4 -50.4,-82.8 -45.2,-80.2 -50.4,-77.6 -50.4,-75 -40,-80.3 "/>
<polygon class="st3" points="-36.8,-69.7 -36.8,-72.3 -42,-74.9 -36.7,-77.6 -36.7,-80.1 -47.1,-74.9 "/>
<g>
	<g>
		<path class="st3" d="M100.4-175.1c-1.3,0-2.5,0.4-2.6,1c-0.1,0.3,0.1,0.5,0.5,0.7l2.1-1.5l1.5,1.6c0.4-0.2,0.7-0.4,0.8-0.7
			C102.7-174.6,101.7-175.1,100.4-175.1z"/>
		<path class="st3" d="M98.9-173.2c0.3,0.1,0.7,0.1,1.1,0.1c0.4,0,0.8,0,1.1-0.1l-0.9-1L98.9-173.2z"/>
		<path class="st3" d="M100.5-175.9c-2.2,0-4.2,0.7-4.4,1.7c-0.2,1,1.4,1.8,3.7,1.8c2.2,0,4.2-0.7,4.4-1.7S102.7-175.8,100.5-175.9z
			 M99.9-172.7c-1.8,0-3.1-0.7-3-1.5c0.2-0.8,1.7-1.4,3.5-1.4c1.8,0,3.1,0.7,3,1.5C103.2-173.2,101.7-172.6,99.9-172.7z"/>
	</g>
	<g>
		<path class="st3" d="M99.2-168.9c-2.7,0-4.8-1.1-4.8-2.5c0-0.7,0.6-1.4,1.6-1.8l0.1,0.3c-0.9,0.4-1.4,1-1.4,1.5
			c0,1.2,2,2.2,4.5,2.2c1.9,0,3.6-0.6,4.3-1.5l0.3,0.2C103-169.5,101.2-168.9,99.2-168.9z"/>
		<path class="st3" d="M99.2-167.3c-2.6,0-4.8-1.1-4.8-2.5v-1.7h0.3v1.7c0,1.2,2,2.2,4.5,2.2s4.5-1,4.5-2.2v-1h0.3v1
			C104-168.4,101.8-167.3,99.2-167.3z"/>
		<g>
			<rect x="99" y="-169" class="st3" width="0.3" height="1.7"/>
			<rect x="100" y="-169" class="st3" width="0.3" height="1.7"/>
			<rect x="101" y="-169.3" class="st3" width="0.3" height="1.5"/>
			<rect x="101.9" y="-169.5" class="st3" width="0.3" height="1.5"/>
			<rect x="102.9" y="-170" class="st3" width="0.3" height="1.5"/>
			<rect x="97.1" y="-169.3" class="st3" width="0.3" height="1.7"/>
			<rect x="98" y="-169" class="st3" width="0.3" height="1.7"/>
			<rect x="95.1" y="-170" class="st3" width="0.3" height="1.5"/>
			<rect x="96.1" y="-169.5" class="st3" width="0.3" height="1.7"/>
		</g>
	</g>
	<g>
		<path class="st3" d="M100.1-166.7c-1.5,0-2.8-0.3-3.7-0.9l0.2-0.3c0.9,0.6,2.2,0.9,3.6,0.9c2.4,0,4.5-1,4.5-2.2
			c0-0.5-0.4-1-1.2-1.4l0.1-0.3c0.9,0.5,1.3,1.1,1.3,1.7C104.9-167.8,102.8-166.7,100.1-166.7z"/>
		<path class="st3" d="M100.1-165.1c-2.6,0-4.8-1.1-4.8-2.5v-0.5h0.3v0.5c0,1.2,2,2.2,4.5,2.2s4.5-1,4.5-2.2v-1.7h0.3v1.7
			C104.9-166.2,102.8-165.1,100.1-165.1z"/>
		<g>
			<rect x="100" y="-166.8" class="st3" width="0.3" height="1.7"/>
			<rect x="101" y="-166.8" class="st3" width="0.3" height="1.7"/>
			<rect x="101.9" y="-167.1" class="st3" width="0.3" height="1.5"/>
			<rect x="102.9" y="-167.3" class="st3" width="0.3" height="1.5"/>
			<rect x="103.9" y="-167.8" class="st3" width="0.3" height="1.5"/>
			<rect x="98" y="-167.1" class="st3" width="0.3" height="1.7"/>
			<rect x="99" y="-166.8" class="st3" width="0.3" height="1.7"/>
			<rect x="96.1" y="-167.8" class="st3" width="0.3" height="1.5"/>
			<rect x="97.1" y="-167.3" class="st3" width="0.3" height="1.7"/>
		</g>
	</g>
	<g>
		<path class="st3" d="M100.1-171.6c-2.7,0-4.8-1.1-4.8-2.5s2.1-2.5,4.8-2.5c2.7,0,4.8,1.1,4.8,2.5S102.8-171.6,100.1-171.6z
			 M100.1-176.2c-2.4,0-4.5,1-4.5,2.2s2,2.2,4.5,2.2c2.4,0,4.5-1,4.5-2.2S102.6-176.2,100.1-176.2z"/>
		<path class="st3" d="M100.1-170c-2.6,0-4.8-1.1-4.8-2.5v-1.7h0.3v1.7c0,1.2,2,2.2,4.5,2.2s4.5-1,4.5-2.2v-1.7h0.3v1.7
			C104.9-171.1,102.8-170,100.1-170z"/>
		<g>
			<rect x="100" y="-171.7" class="st3" width="0.3" height="1.7"/>
			<rect x="101" y="-171.7" class="st3" width="0.3" height="1.7"/>
			<rect x="101.9" y="-172" class="st3" width="0.3" height="1.5"/>
			<rect x="102.9" y="-172.2" class="st3" width="0.3" height="1.5"/>
			<rect x="103.9" y="-172.7" class="st3" width="0.3" height="1.5"/>
			<rect x="98" y="-172" class="st3" width="0.3" height="1.7"/>
			<rect x="99" y="-171.7" class="st3" width="0.3" height="1.7"/>
			<rect x="96.1" y="-172.7" class="st3" width="0.3" height="1.5"/>
			<rect x="97.1" y="-172.2" class="st3" width="0.3" height="1.7"/>
		</g>
	</g>
	<line class="st7" x1="94.8" y1="-175.1" x2="93" y2="-176.4"/>
	<line class="st7" x1="97" y1="-176.7" x2="96.1" y2="-178.8"/>
	<line class="st7" x1="99.9" y1="-177.3" x2="99.9" y2="-179.5"/>
	<line class="st7" x1="105.3" y1="-175.2" x2="107.2" y2="-176.5"/>
	<line class="st7" x1="103.1" y1="-176.9" x2="104.1" y2="-178.9"/>
</g>
<path class="st3" d="M-109.7-108.7c-0.7-0.9-1.6-1.4-2.7-1.7c-0.6-0.1-1.2-0.2-1.8,0c1.3,1.2,2,2.6,2.2,4.3l1.1,0l-1.6,3.3l-1.7-3.3
	l0.9,0c-0.1-1.6-1.2-3.3-3.1-4.1c-2.1-0.8-4.5,0-5.7,1.8c-1.3,1.8-1.1,4.3,0.4,6c0.8,0.8,1.7,1.3,2.8,1.5c0.5,0.1,1.1,0.1,1.6,0
	c-0.7-0.6-1.3-1.3-1.6-2.2c-0.3-0.7-0.5-1.3-0.6-2.1l-1,0l1.6-3.3l1.7,3.3l-0.9,0c0.2,1.5,1.1,3.2,3.1,4c2,0.8,4.4,0.1,5.7-1.7
	C-108.2-104.5-108.2-107-109.7-108.7z"/>
<g class="st4">
	<g>
		<path class="st3" d="M-43.7-275.9c0.3-0.5,0.8-1,1.4-1.4l-1.3-2.3c-0.9,0.6-1.7,1.4-2.3,2.3L-43.7-275.9z"/>
	</g>
</g>
<g class="st4">
	<g>
		<path class="st3" d="M-39.8-277.9c0.7,0,1.3,0.2,1.8,0.5l1.3-2.3c-0.9-0.5-2-0.8-3.2-0.8V-277.9z"/>
	</g>
</g>
<g class="st4">
	<g>
		<path class="st3" d="M-42-277.4c0.6-0.3,1.2-0.5,1.9-0.5l0-2.7c-1.1,0-2.2,0.3-3.2,0.8L-42-277.4z"/>
	</g>
</g>
<g class="st4">
	<g>
		<path class="st3" d="M-36.3-271.2c-0.3,0.5-0.8,1-1.4,1.4l1.3,2.3c0.9-0.6,1.7-1.4,2.3-2.3L-36.3-271.2z"/>
	</g>
</g>
<g class="st4">
	<g>
		<path class="st3" d="M-43.7-271.2l-2.3,1.3c0.6,0.9,1.4,1.7,2.3,2.3l1.3-2.3C-42.9-270.2-43.3-270.6-43.7-271.2z"/>
	</g>
</g>
<g class="st4">
	<g>
		<path class="st3" d="M-36.3-275.9l2.3-1.3c-0.6-0.9-1.4-1.7-2.3-2.3l-1.3,2.3C-37.1-276.9-36.6-276.4-36.3-275.9z"/>
	</g>
</g>
<g class="st4">
	<g>
		<path class="st3" d="M-44.3-273.7c0-0.7,0.2-1.3,0.5-1.8l-2.3-1.3c-0.5,0.9-0.8,2-0.8,3.2H-44.3z"/>
	</g>
</g>
<g class="st4">
	<g>
		<path class="st3" d="M-35.6-273.3c0,0.7-0.2,1.3-0.5,1.8l2.3,1.3c0.5-0.9,0.8-2,0.8-3.2H-35.6z"/>
	</g>
</g>
<g class="st4">
	<g>
		<path class="st3" d="M-36.1-275.6c0.3,0.6,0.5,1.2,0.5,1.8h2.7c0-1.1-0.3-2.2-0.8-3.2L-36.1-275.6z"/>
	</g>
</g>
<g class="st4">
	<g>
		<path class="st3" d="M-37.9-269.7c-0.6,0.3-1.2,0.5-1.8,0.5v2.7c1.1,0,2.2-0.3,3.2-0.8L-37.9-269.7z"/>
	</g>
</g>
<g class="st4">
	<g>
		<path class="st3" d="M-43.8-271.5c-0.3-0.6-0.5-1.2-0.5-1.8H-47c0,1.1,0.3,2.2,0.8,3.2L-43.8-271.5z"/>
	</g>
</g>
<g class="st4">
	<g>
		<path class="st3" d="M-40.2-269.2c-0.7,0-1.3-0.2-1.8-0.5l-1.3,2.3c0.9,0.5,2,0.8,3.2,0.8V-269.2z"/>
	</g>
</g>
<g class="st4">
	<g>
		<path class="st3" d="M-24.4-275.9c0.3-0.5,0.8-1,1.4-1.4l-1.3-2.3c-0.9,0.6-1.7,1.4-2.3,2.3L-24.4-275.9z"/>
	</g>
</g>
<g>
	<g>
		<path class="st3" d="M-20.6-277.9c0.7,0,1.3,0.2,1.8,0.5l1.3-2.3c-0.9-0.5-2-0.8-3.2-0.8V-277.9z"/>
	</g>
</g>
<g class="st4">
	<g>
		<path class="st3" d="M-22.8-277.4c0.6-0.3,1.2-0.5,1.9-0.5l0-2.7c-1.1,0-2.2,0.3-3.2,0.8L-22.8-277.4z"/>
	</g>
</g>
<g class="st4">
	<g>
		<path class="st3" d="M-17.1-271.2c-0.3,0.5-0.8,1-1.4,1.4l1.3,2.3c0.9-0.6,1.7-1.4,2.3-2.3L-17.1-271.2z"/>
	</g>
</g>
<g class="st4">
	<g>
		<path class="st3" d="M-24.4-271.2l-2.3,1.3c0.6,0.9,1.4,1.7,2.3,2.3l1.3-2.3C-23.6-270.2-24.1-270.6-24.4-271.2z"/>
	</g>
</g>
<g class="st4">
	<g>
		<path class="st3" d="M-17.1-275.9l2.3-1.3c-0.6-0.9-1.4-1.7-2.3-2.3l-1.3,2.3C-17.9-276.9-17.4-276.4-17.1-275.9z"/>
	</g>
</g>
<g class="st4">
	<g>
		<path class="st3" d="M-25.1-273.7c0-0.7,0.2-1.3,0.5-1.8l-2.3-1.3c-0.5,0.9-0.8,2-0.8,3.2H-25.1z"/>
	</g>
</g>
<g class="st4">
	<g>
		<path class="st3" d="M-16.4-273.3c0,0.7-0.2,1.3-0.5,1.8l2.3,1.3c0.5-0.9,0.8-2,0.8-3.2H-16.4z"/>
	</g>
</g>
<g class="st4">
	<g>
		<path class="st3" d="M-16.9-275.6c0.3,0.6,0.5,1.2,0.5,1.8h2.7c0-1.1-0.3-2.2-0.8-3.2L-16.9-275.6z"/>
	</g>
</g>
<g class="st4">
	<g>
		<path class="st3" d="M-18.7-269.7c-0.6,0.3-1.2,0.5-1.8,0.5v2.7c1.1,0,2.2-0.3,3.2-0.8L-18.7-269.7z"/>
	</g>
</g>
<g class="st4">
	<g>
		<path class="st3" d="M-24.6-271.5c-0.3-0.6-0.5-1.2-0.5-1.8h-2.7c0,1.1,0.3,2.2,0.8,3.2L-24.6-271.5z"/>
	</g>
</g>
<g class="st4">
	<g>
		<path class="st3" d="M-20.9-269.2c-0.7,0-1.3-0.2-1.8-0.5l-1.3,2.3c0.9,0.5,2,0.8,3.2,0.8V-269.2z"/>
	</g>
</g>
<g class="st4">
	<g>
		<path class="st3" d="M-6.5-275.9c0.3-0.5,0.8-1,1.4-1.4l-1.3-2.3c-0.9,0.6-1.7,1.4-2.3,2.3L-6.5-275.9z"/>
	</g>
</g>
<g>
	<g>
		<path class="st3" d="M-2.7-277.9c0.7,0,1.3,0.2,1.8,0.5l1.3-2.3c-0.9-0.5-2-0.8-3.2-0.8V-277.9z"/>
	</g>
</g>
<g class="st4">
	<g>
		<path class="st3" d="M-4.9-277.4c0.6-0.3,1.2-0.5,1.9-0.5l0-2.7c-1.1,0-2.2,0.3-3.2,0.8L-4.9-277.4z"/>
	</g>
</g>
<g class="st4">
	<g>
		<path class="st3" d="M0.9-271.2c-0.3,0.5-0.8,1-1.4,1.4l1.3,2.3c0.9-0.6,1.7-1.4,2.3-2.3L0.9-271.2z"/>
	</g>
</g>
<g class="st4">
	<g>
		<path class="st3" d="M-6.5-271.2l-2.3,1.3c0.6,0.9,1.4,1.7,2.3,2.3l1.3-2.3C-5.7-270.2-6.2-270.6-6.5-271.2z"/>
	</g>
</g>
<g>
	<g>
		<path class="st3" d="M0.9-275.9l2.3-1.3c-0.6-0.9-1.4-1.7-2.3-2.3l-1.3,2.3C0-276.9,0.5-276.4,0.9-275.9z"/>
	</g>
</g>
<g class="st4">
	<g>
		<path class="st3" d="M-7.2-273.7c0-0.7,0.2-1.3,0.5-1.8l-2.3-1.3c-0.5,0.9-0.8,2-0.8,3.2H-7.2z"/>
	</g>
</g>
<g class="st4">
	<g>
		<path class="st3" d="M1.5-273.3c0,0.7-0.2,1.3-0.5,1.8l2.3,1.3c0.5-0.9,0.8-2,0.8-3.2H1.5z"/>
	</g>
</g>
<g class="st4">
	<g>
		<path class="st3" d="M1-275.6c0.3,0.6,0.5,1.2,0.5,1.8h2.7c0-1.1-0.3-2.2-0.8-3.2L1-275.6z"/>
	</g>
</g>
<g class="st4">
	<g>
		<path class="st3" d="M-0.8-269.7c-0.6,0.3-1.2,0.5-1.8,0.5v2.7c1.1,0,2.2-0.3,3.2-0.8L-0.8-269.7z"/>
	</g>
</g>
<g class="st4">
	<g>
		<path class="st3" d="M-6.7-271.5c-0.3-0.6-0.5-1.2-0.5-1.8h-2.7c0,1.1,0.3,2.2,0.8,3.2L-6.7-271.5z"/>
	</g>
</g>
<g class="st4">
	<g>
		<path class="st3" d="M-3-269.2c-0.7,0-1.3-0.2-1.8-0.5l-1.3,2.3c0.9,0.5,2,0.8,3.2,0.8V-269.2z"/>
	</g>
</g>
<g class="st4">
	<g>
		<path class="st3" d="M10.1-275.9c0.3-0.5,0.8-1,1.4-1.4l-1.3-2.3c-0.9,0.6-1.7,1.4-2.3,2.3L10.1-275.9z"/>
	</g>
</g>
<g>
	<g>
		<path class="st3" d="M13.9-277.9c0.7,0,1.3,0.2,1.8,0.5l1.3-2.3c-0.9-0.5-2-0.8-3.2-0.8V-277.9z"/>
	</g>
</g>
<g class="st4">
	<g>
		<path class="st3" d="M11.7-277.4c0.6-0.3,1.2-0.5,1.9-0.5l0-2.7c-1.1,0-2.2,0.3-3.2,0.8L11.7-277.4z"/>
	</g>
</g>
<g class="st4">
	<g>
		<path class="st3" d="M17.4-271.2c-0.3,0.5-0.8,1-1.4,1.4l1.3,2.3c0.9-0.6,1.7-1.4,2.3-2.3L17.4-271.2z"/>
	</g>
</g>
<g class="st4">
	<g>
		<path class="st3" d="M10.1-271.2l-2.3,1.3c0.6,0.9,1.4,1.7,2.3,2.3l1.3-2.3C10.9-270.2,10.4-270.6,10.1-271.2z"/>
	</g>
</g>
<g>
	<g>
		<path class="st3" d="M17.4-275.9l2.3-1.3c-0.6-0.9-1.4-1.7-2.3-2.3l-1.3,2.3C16.6-276.9,17.1-276.4,17.4-275.9z"/>
	</g>
</g>
<g class="st4">
	<g>
		<path class="st3" d="M9.4-273.7c0-0.7,0.2-1.3,0.5-1.8l-2.3-1.3c-0.5,0.9-0.8,2-0.8,3.2H9.4z"/>
	</g>
</g>
<g class="st4">
	<g>
		<path class="st3" d="M18.1-273.3c0,0.7-0.2,1.3-0.5,1.8l2.3,1.3c0.5-0.9,0.8-2,0.8-3.2H18.1z"/>
	</g>
</g>
<g>
	<g>
		<path class="st3" d="M17.6-275.6c0.3,0.6,0.5,1.2,0.5,1.8h2.7c0-1.1-0.3-2.2-0.8-3.2L17.6-275.6z"/>
	</g>
</g>
<g class="st4">
	<g>
		<path class="st3" d="M15.8-269.7c-0.6,0.3-1.2,0.5-1.8,0.5v2.7c1.1,0,2.2-0.3,3.2-0.8L15.8-269.7z"/>
	</g>
</g>
<g class="st4">
	<g>
		<path class="st3" d="M9.9-271.5c-0.3-0.6-0.5-1.2-0.5-1.8H6.7c0,1.1,0.3,2.2,0.8,3.2L9.9-271.5z"/>
	</g>
</g>
<g class="st4">
	<g>
		<path class="st3" d="M13.6-269.2c-0.7,0-1.3-0.2-1.8-0.5l-1.3,2.3c0.9,0.5,2,0.8,3.2,0.8V-269.2z"/>
	</g>
</g>
<g class="st4">
	<g>
		<path class="st3" d="M28.7-275.9c0.3-0.5,0.8-1,1.4-1.4l-1.3-2.3c-0.9,0.6-1.7,1.4-2.3,2.3L28.7-275.9z"/>
	</g>
</g>
<g>
	<g>
		<path class="st3" d="M32.6-277.9c0.7,0,1.3,0.2,1.8,0.5l1.3-2.3c-0.9-0.5-2-0.8-3.2-0.8V-277.9z"/>
	</g>
</g>
<g class="st4">
	<g>
		<path class="st3" d="M30.4-277.4c0.6-0.3,1.2-0.5,1.9-0.5l0-2.7c-1.1,0-2.2,0.3-3.2,0.8L30.4-277.4z"/>
	</g>
</g>
<g class="st4">
	<g>
		<path class="st3" d="M36.1-271.2c-0.3,0.5-0.8,1-1.4,1.4l1.3,2.3c0.9-0.6,1.7-1.4,2.3-2.3L36.1-271.2z"/>
	</g>
</g>
<g class="st4">
	<g>
		<path class="st3" d="M28.7-271.2l-2.3,1.3c0.6,0.9,1.4,1.7,2.3,2.3l1.3-2.3C29.5-270.2,29.1-270.6,28.7-271.2z"/>
	</g>
</g>
<g>
	<g>
		<path class="st3" d="M36.1-275.9l2.3-1.3c-0.6-0.9-1.4-1.7-2.3-2.3l-1.3,2.3C35.3-276.9,35.8-276.4,36.1-275.9z"/>
	</g>
</g>
<g class="st4">
	<g>
		<path class="st3" d="M28-273.7c0-0.7,0.2-1.3,0.5-1.8l-2.3-1.3c-0.5,0.9-0.8,2-0.8,3.2H28z"/>
	</g>
</g>
<g>
	<g>
		<path class="st3" d="M36.8-273.3c0,0.7-0.2,1.3-0.5,1.8l2.3,1.3c0.5-0.9,0.8-2,0.8-3.2H36.8z"/>
	</g>
</g>
<g>
	<g>
		<path class="st3" d="M36.3-275.6c0.3,0.6,0.5,1.2,0.5,1.8h2.7c0-1.1-0.3-2.2-0.8-3.2L36.3-275.6z"/>
	</g>
</g>
<g class="st4">
	<g>
		<path class="st3" d="M34.4-269.7c-0.6,0.3-1.2,0.5-1.8,0.5v2.7c1.1,0,2.2-0.3,3.2-0.8L34.4-269.7z"/>
	</g>
</g>
<g class="st4">
	<g>
		<path class="st3" d="M28.5-271.5c-0.3-0.6-0.5-1.2-0.5-1.8h-2.7c0,1.1,0.3,2.2,0.8,3.2L28.5-271.5z"/>
	</g>
</g>
<g class="st4">
	<g>
		<path class="st3" d="M32.2-269.2c-0.7,0-1.3-0.2-1.8-0.5l-1.3,2.3c0.9,0.5,2,0.8,3.2,0.8V-269.2z"/>
	</g>
</g>
<g class="st4">
	<g>
		<path class="st3" d="M47.9-275.9c0.3-0.5,0.8-1,1.4-1.4l-1.3-2.3c-0.9,0.6-1.7,1.4-2.3,2.3L47.9-275.9z"/>
	</g>
</g>
<g>
	<g>
		<path class="st3" d="M51.8-277.9c0.7,0,1.3,0.2,1.8,0.5l1.3-2.3c-0.9-0.5-2-0.8-3.2-0.8V-277.9z"/>
	</g>
</g>
<g class="st4">
	<g>
		<path class="st3" d="M49.6-277.4c0.6-0.3,1.2-0.5,1.9-0.5l0-2.7c-1.1,0-2.2,0.3-3.2,0.8L49.6-277.4z"/>
	</g>
</g>
<g>
	<g>
		<path class="st3" d="M55.3-271.2c-0.3,0.5-0.8,1-1.4,1.4l1.3,2.3c0.9-0.6,1.7-1.4,2.3-2.3L55.3-271.2z"/>
	</g>
</g>
<g class="st4">
	<g>
		<path class="st3" d="M47.9-271.2l-2.3,1.3c0.6,0.9,1.4,1.7,2.3,2.3l1.3-2.3C48.7-270.2,48.3-270.6,47.9-271.2z"/>
	</g>
</g>
<g>
	<g>
		<path class="st3" d="M55.3-275.9l2.3-1.3c-0.6-0.9-1.4-1.7-2.3-2.3l-1.3,2.3C54.5-276.9,55-276.4,55.3-275.9z"/>
	</g>
</g>
<g class="st4">
	<g>
		<path class="st3" d="M47.3-273.7c0-0.7,0.2-1.3,0.5-1.8l-2.3-1.3c-0.5,0.9-0.8,2-0.8,3.2H47.3z"/>
	</g>
</g>
<g>
	<g>
		<path class="st3" d="M56-273.3c0,0.7-0.2,1.3-0.5,1.8l2.3,1.3c0.5-0.9,0.8-2,0.8-3.2H56z"/>
	</g>
</g>
<g>
	<g>
		<path class="st3" d="M55.5-275.6c0.3,0.6,0.5,1.2,0.5,1.8h2.7c0-1.1-0.3-2.2-0.8-3.2L55.5-275.6z"/>
	</g>
</g>
<g class="st4">
	<g>
		<path class="st3" d="M53.7-269.7c-0.6,0.3-1.2,0.5-1.8,0.5v2.7c1.1,0,2.2-0.3,3.2-0.8L53.7-269.7z"/>
	</g>
</g>
<g class="st4">
	<g>
		<path class="st3" d="M47.7-271.5c-0.3-0.6-0.5-1.2-0.5-1.8h-2.7c0,1.1,0.3,2.2,0.8,3.2L47.7-271.5z"/>
	</g>
</g>
<g class="st4">
	<g>
		<path class="st3" d="M51.4-269.2c-0.7,0-1.3-0.2-1.8-0.5l-1.3,2.3c0.9,0.5,2,0.8,3.2,0.8V-269.2z"/>
	</g>
</g>
<g class="st4">
	<g>
		<path class="st3" d="M65.8-275.9c0.3-0.5,0.8-1,1.4-1.4l-1.3-2.3c-0.9,0.6-1.7,1.4-2.3,2.3L65.8-275.9z"/>
	</g>
</g>
<g>
	<g>
		<path class="st3" d="M69.7-277.9c0.7,0,1.3,0.2,1.8,0.5l1.3-2.3c-0.9-0.5-2-0.8-3.2-0.8V-277.9z"/>
	</g>
</g>
<g class="st4">
	<g>
		<path class="st3" d="M67.5-277.4c0.6-0.3,1.2-0.5,1.9-0.5l0-2.7c-1.1,0-2.2,0.3-3.2,0.8L67.5-277.4z"/>
	</g>
</g>
<g>
	<g>
		<path class="st3" d="M73.2-271.2c-0.3,0.5-0.8,1-1.4,1.4l1.3,2.3c0.9-0.6,1.7-1.4,2.3-2.3L73.2-271.2z"/>
	</g>
</g>
<g class="st4">
	<g>
		<path class="st3" d="M65.8-271.2l-2.3,1.3c0.6,0.9,1.4,1.7,2.3,2.3l1.3-2.3C66.6-270.2,66.2-270.6,65.8-271.2z"/>
	</g>
</g>
<g>
	<g>
		<path class="st3" d="M73.2-275.9l2.3-1.3c-0.6-0.9-1.4-1.7-2.3-2.3l-1.3,2.3C72.4-276.9,72.9-276.4,73.2-275.9z"/>
	</g>
</g>
<g class="st4">
	<g>
		<path class="st3" d="M65.2-273.7c0-0.7,0.2-1.3,0.5-1.8l-2.3-1.3c-0.5,0.9-0.8,2-0.8,3.2H65.2z"/>
	</g>
</g>
<g>
	<g>
		<path class="st3" d="M73.9-273.3c0,0.7-0.2,1.3-0.5,1.8l2.3,1.3c0.5-0.9,0.8-2,0.8-3.2H73.9z"/>
	</g>
</g>
<g>
	<g>
		<path class="st3" d="M73.4-275.6c0.3,0.6,0.5,1.2,0.5,1.8h2.7c0-1.1-0.3-2.2-0.8-3.2L73.4-275.6z"/>
	</g>
</g>
<g>
	<g>
		<path class="st3" d="M71.6-269.7c-0.6,0.3-1.2,0.5-1.8,0.5v2.7c1.1,0,2.2-0.3,3.2-0.8L71.6-269.7z"/>
	</g>
</g>
<g class="st4">
	<g>
		<path class="st3" d="M65.7-271.5c-0.3-0.6-0.5-1.2-0.5-1.8h-2.7c0,1.1,0.3,2.2,0.8,3.2L65.7-271.5z"/>
	</g>
</g>
<g class="st4">
	<g>
		<path class="st3" d="M69.3-269.2c-0.7,0-1.3-0.2-1.8-0.5l-1.3,2.3c0.9,0.5,2,0.8,3.2,0.8V-269.2z"/>
	</g>
</g>
<g class="st4">
	<g>
		<path class="st3" d="M83.7-275.9c0.3-0.5,0.8-1,1.4-1.4l-1.3-2.3c-0.9,0.6-1.7,1.4-2.3,2.3L83.7-275.9z"/>
	</g>
</g>
<g>
	<g>
		<path class="st3" d="M87.6-277.9c0.7,0,1.3,0.2,1.8,0.5l1.3-2.3c-0.9-0.5-2-0.8-3.2-0.8V-277.9z"/>
	</g>
</g>
<g class="st4">
	<g>
		<path class="st3" d="M85.4-277.4c0.6-0.3,1.2-0.5,1.9-0.5l0-2.7c-1.1,0-2.2,0.3-3.2,0.8L85.4-277.4z"/>
	</g>
</g>
<g>
	<g>
		<path class="st3" d="M91.1-271.2c-0.3,0.5-0.8,1-1.4,1.4l1.3,2.3c0.9-0.6,1.7-1.4,2.3-2.3L91.1-271.2z"/>
	</g>
</g>
<g class="st4">
	<g>
		<path class="st3" d="M83.7-271.2l-2.3,1.3c0.6,0.9,1.4,1.7,2.3,2.3l1.3-2.3C84.5-270.2,84.1-270.6,83.7-271.2z"/>
	</g>
</g>
<g>
	<g>
		<path class="st3" d="M91.1-275.9l2.3-1.3c-0.6-0.9-1.4-1.7-2.3-2.3l-1.3,2.3C90.3-276.9,90.8-276.4,91.1-275.9z"/>
	</g>
</g>
<g class="st4">
	<g>
		<path class="st3" d="M83.1-273.7c0-0.7,0.2-1.3,0.5-1.8l-2.3-1.3c-0.5,0.9-0.8,2-0.8,3.2H83.1z"/>
	</g>
</g>
<g>
	<g>
		<path class="st3" d="M91.8-273.3c0,0.7-0.2,1.3-0.5,1.8l2.3,1.3c0.5-0.9,0.8-2,0.8-3.2H91.8z"/>
	</g>
</g>
<g>
	<g>
		<path class="st3" d="M91.3-275.6c0.3,0.6,0.5,1.2,0.5,1.8h2.7c0-1.1-0.3-2.2-0.8-3.2L91.3-275.6z"/>
	</g>
</g>
<g>
	<g>
		<path class="st3" d="M89.5-269.7c-0.6,0.3-1.2,0.5-1.8,0.5v2.7c1.1,0,2.2-0.3,3.2-0.8L89.5-269.7z"/>
	</g>
</g>
<g class="st4">
	<g>
		<path class="st3" d="M83.6-271.5c-0.3-0.6-0.5-1.2-0.5-1.8h-2.7c0,1.1,0.3,2.2,0.8,3.2L83.6-271.5z"/>
	</g>
</g>
<g>
	<g>
		<path class="st3" d="M87.3-269.2c-0.7,0-1.3-0.2-1.8-0.5l-1.3,2.3c0.9,0.5,2,0.8,3.2,0.8V-269.2z"/>
	</g>
</g>
<g class="st4">
	<g>
		<path class="st3" d="M25.1-295c0.3-0.5,0.8-1,1.4-1.4l-1.3-2.3c-0.9,0.6-1.7,1.4-2.3,2.3L25.1-295z"/>
	</g>
</g>
<g>
	<g>
		<path class="st3" d="M28.9-297c0.7,0,1.3,0.2,1.8,0.5l1.3-2.3c-0.9-0.5-2-0.8-3.2-0.8V-297z"/>
	</g>
</g>
<g class="st4">
	<g>
		<path class="st3" d="M26.7-296.5c0.6-0.3,1.2-0.5,1.9-0.5l0-2.7c-1.1,0-2.2,0.3-3.2,0.8L26.7-296.5z"/>
	</g>
</g>
<g>
	<g>
		<path class="st3" d="M32.4-290.3c-0.3,0.5-0.8,1-1.4,1.4l1.3,2.3c0.9-0.6,1.7-1.4,2.3-2.3L32.4-290.3z"/>
	</g>
</g>
<g>
	<g>
		<path class="st3" d="M25.1-290.3l-2.3,1.3c0.6,0.9,1.4,1.7,2.3,2.3l1.3-2.3C25.9-289.3,25.4-289.8,25.1-290.3z"/>
	</g>
</g>
<g>
	<g>
		<path class="st3" d="M32.4-295l2.3-1.3c-0.6-0.9-1.4-1.7-2.3-2.3l-1.3,2.3C31.6-296,32.1-295.5,32.4-295z"/>
	</g>
</g>
<g class="st4">
	<g>
		<path class="st3" d="M24.4-292.8c0-0.7,0.2-1.3,0.5-1.8l-2.3-1.3c-0.5,0.9-0.8,2-0.8,3.2H24.4z"/>
	</g>
</g>
<g>
	<g>
		<path class="st3" d="M33.1-292.5c0,0.7-0.2,1.3-0.5,1.8l2.3,1.3c0.5-0.9,0.8-2,0.8-3.2H33.1z"/>
	</g>
</g>
<g>
	<g>
		<path class="st3" d="M32.6-294.7c0.3,0.6,0.5,1.2,0.5,1.8h2.7c0-1.1-0.3-2.2-0.8-3.2L32.6-294.7z"/>
	</g>
</g>
<g>
	<g>
		<path class="st3" d="M30.8-288.8c-0.6,0.3-1.2,0.5-1.8,0.5v2.7c1.1,0,2.2-0.3,3.2-0.8L30.8-288.8z"/>
	</g>
</g>
<g class="st4">
	<g>
		<path class="st3" d="M24.9-290.6c-0.3-0.6-0.5-1.2-0.5-1.8h-2.7c0,1.1,0.3,2.2,0.8,3.2L24.9-290.6z"/>
	</g>
</g>
<g>
	<g>
		<path class="st3" d="M28.6-288.3c-0.7,0-1.3-0.2-1.8-0.5l-1.3,2.3c0.9,0.5,2,0.8,3.2,0.8V-288.3z"/>
	</g>
</g>
<g class="st4">
	<g>
		<path class="st3" d="M43.7-295c0.3-0.5,0.8-1,1.4-1.4l-1.3-2.3c-0.9,0.6-1.7,1.4-2.3,2.3L43.7-295z"/>
	</g>
</g>
<g>
	<g>
		<path class="st3" d="M47.6-297c0.7,0,1.3,0.2,1.8,0.5l1.3-2.3c-0.9-0.5-2-0.8-3.2-0.8V-297z"/>
	</g>
</g>
<g class="st4">
	<g>
		<path class="st3" d="M45.4-296.5c0.6-0.3,1.2-0.5,1.9-0.5l0-2.7c-1.1,0-2.2,0.3-3.2,0.8L45.4-296.5z"/>
	</g>
</g>
<g>
	<g>
		<path class="st3" d="M51.1-290.3c-0.3,0.5-0.8,1-1.4,1.4l1.3,2.3c0.9-0.6,1.7-1.4,2.3-2.3L51.1-290.3z"/>
	</g>
</g>
<g>
	<g>
		<path class="st3" d="M43.7-290.3l-2.3,1.3c0.6,0.9,1.4,1.7,2.3,2.3l1.3-2.3C44.5-289.3,44.1-289.8,43.7-290.3z"/>
	</g>
</g>
<g>
	<g>
		<path class="st3" d="M51.1-295l2.3-1.3c-0.6-0.9-1.4-1.7-2.3-2.3l-1.3,2.3C50.3-296,50.8-295.5,51.1-295z"/>
	</g>
</g>
<g class="st4">
	<g>
		<path class="st3" d="M43-292.8c0-0.7,0.2-1.3,0.5-1.8l-2.3-1.3c-0.5,0.9-0.8,2-0.8,3.2H43z"/>
	</g>
</g>
<g>
	<g>
		<path class="st3" d="M51.8-292.5c0,0.7-0.2,1.3-0.5,1.8l2.3,1.3c0.5-0.9,0.8-2,0.8-3.2H51.8z"/>
	</g>
</g>
<g>
	<g>
		<path class="st3" d="M51.3-294.7c0.3,0.6,0.5,1.2,0.5,1.8h2.7c0-1.1-0.3-2.2-0.8-3.2L51.3-294.7z"/>
	</g>
</g>
<g>
	<g>
		<path class="st3" d="M49.4-288.8c-0.6,0.3-1.2,0.5-1.8,0.5v2.7c1.1,0,2.2-0.3,3.2-0.8L49.4-288.8z"/>
	</g>
</g>
<g>
	<g>
		<path class="st3" d="M43.5-290.6c-0.3-0.6-0.5-1.2-0.5-1.8h-2.7c0,1.1,0.3,2.2,0.8,3.2L43.5-290.6z"/>
	</g>
</g>
<g>
	<g>
		<path class="st3" d="M47.2-288.3c-0.7,0-1.3-0.2-1.8-0.5l-1.3,2.3c0.9,0.5,2,0.8,3.2,0.8V-288.3z"/>
	</g>
</g>
<g class="st4">
	<g>
		<path class="st3" d="M62.9-295c0.3-0.5,0.8-1,1.4-1.4l-1.3-2.3c-0.9,0.6-1.7,1.4-2.3,2.3L62.9-295z"/>
	</g>
</g>
<g>
	<g>
		<path class="st3" d="M66.8-297c0.7,0,1.3,0.2,1.8,0.5l1.3-2.3c-0.9-0.5-2-0.8-3.2-0.8V-297z"/>
	</g>
</g>
<g class="st4">
	<g>
		<path class="st3" d="M64.6-296.5c0.6-0.3,1.2-0.5,1.9-0.5l0-2.7c-1.1,0-2.2,0.3-3.2,0.8L64.6-296.5z"/>
	</g>
</g>
<g>
	<g>
		<path class="st3" d="M70.3-290.3c-0.3,0.5-0.8,1-1.4,1.4l1.3,2.3c0.9-0.6,1.7-1.4,2.3-2.3L70.3-290.3z"/>
	</g>
</g>
<g>
	<g>
		<path class="st3" d="M62.9-290.3l-2.3,1.3c0.6,0.9,1.4,1.7,2.3,2.3l1.3-2.3C63.7-289.3,63.3-289.8,62.9-290.3z"/>
	</g>
</g>
<g>
	<g>
		<path class="st3" d="M70.3-295l2.3-1.3c-0.6-0.9-1.4-1.7-2.3-2.3l-1.3,2.3C69.5-296,70-295.5,70.3-295z"/>
	</g>
</g>
<g>
	<g>
		<path class="st3" d="M62.3-292.8c0-0.7,0.2-1.3,0.5-1.8l-2.3-1.3c-0.5,0.9-0.8,2-0.8,3.2H62.3z"/>
	</g>
</g>
<g>
	<g>
		<path class="st3" d="M71-292.5c0,0.7-0.2,1.3-0.5,1.8l2.3,1.3c0.5-0.9,0.8-2,0.8-3.2H71z"/>
	</g>
</g>
<g>
	<g>
		<path class="st3" d="M70.5-294.7c0.3,0.6,0.5,1.2,0.5,1.8h2.7c0-1.1-0.3-2.2-0.8-3.2L70.5-294.7z"/>
	</g>
</g>
<g>
	<g>
		<path class="st3" d="M68.7-288.8c-0.6,0.3-1.2,0.5-1.8,0.5v2.7c1.1,0,2.2-0.3,3.2-0.8L68.7-288.8z"/>
	</g>
</g>
<g>
	<g>
		<path class="st3" d="M62.7-290.6c-0.3-0.6-0.5-1.2-0.5-1.8h-2.7c0,1.1,0.3,2.2,0.8,3.2L62.7-290.6z"/>
	</g>
</g>
<g>
	<g>
		<path class="st3" d="M66.4-288.3c-0.7,0-1.3-0.2-1.8-0.5l-1.3,2.3c0.9,0.5,2,0.8,3.2,0.8V-288.3z"/>
	</g>
</g>
<g>
	<g>
		<path class="st3" d="M80.8-295c0.3-0.5,0.8-1,1.4-1.4l-1.3-2.3c-0.9,0.6-1.7,1.4-2.3,2.3L80.8-295z"/>
	</g>
</g>
<g>
	<g>
		<path class="st3" d="M84.7-297c0.7,0,1.3,0.2,1.8,0.5l1.3-2.3c-0.9-0.5-2-0.8-3.2-0.8V-297z"/>
	</g>
</g>
<g class="st4">
	<g>
		<path class="st3" d="M82.5-296.5c0.6-0.3,1.2-0.5,1.9-0.5l0-2.7c-1.1,0-2.2,0.3-3.2,0.8L82.5-296.5z"/>
	</g>
</g>
<g>
	<g>
		<path class="st3" d="M88.2-290.3c-0.3,0.5-0.8,1-1.4,1.4l1.3,2.3c0.9-0.6,1.7-1.4,2.3-2.3L88.2-290.3z"/>
	</g>
</g>
<g>
	<g>
		<path class="st3" d="M80.8-290.3l-2.3,1.3c0.6,0.9,1.4,1.7,2.3,2.3l1.3-2.3C81.6-289.3,81.2-289.8,80.8-290.3z"/>
	</g>
</g>
<g>
	<g>
		<path class="st3" d="M88.2-295l2.3-1.3c-0.6-0.9-1.4-1.7-2.3-2.3l-1.3,2.3C87.4-296,87.9-295.5,88.2-295z"/>
	</g>
</g>
<g>
	<g>
		<path class="st3" d="M80.2-292.8c0-0.7,0.2-1.3,0.5-1.8l-2.3-1.3c-0.5,0.9-0.8,2-0.8,3.2H80.2z"/>
	</g>
</g>
<g>
	<g>
		<path class="st3" d="M88.9-292.5c0,0.7-0.2,1.3-0.5,1.8l2.3,1.3c0.5-0.9,0.8-2,0.8-3.2H88.9z"/>
	</g>
</g>
<g>
	<g>
		<path class="st3" d="M88.4-294.7c0.3,0.6,0.5,1.2,0.5,1.8h2.7c0-1.1-0.3-2.2-0.8-3.2L88.4-294.7z"/>
	</g>
</g>
<g>
	<g>
		<path class="st3" d="M86.6-288.8c-0.6,0.3-1.2,0.5-1.8,0.5v2.7c1.1,0,2.2-0.3,3.2-0.8L86.6-288.8z"/>
	</g>
</g>
<g>
	<g>
		<path class="st3" d="M80.7-290.6c-0.3-0.6-0.5-1.2-0.5-1.8h-2.7c0,1.1,0.3,2.2,0.8,3.2L80.7-290.6z"/>
	</g>
</g>
<g>
	<g>
		<path class="st3" d="M84.3-288.3c-0.7,0-1.3-0.2-1.8-0.5l-1.3,2.3c0.9,0.5,2,0.8,3.2,0.8V-288.3z"/>
	</g>
</g>
<g>
	<g>
		<path class="st3" d="M98.7-295c0.3-0.5,0.8-1,1.4-1.4l-1.3-2.3c-0.9,0.6-1.7,1.4-2.3,2.3L98.7-295z"/>
	</g>
</g>
<g>
	<g>
		<path class="st3" d="M102.6-297c0.7,0,1.3,0.2,1.8,0.5l1.3-2.3c-0.9-0.5-2-0.8-3.2-0.8V-297z"/>
	</g>
</g>
<g>
	<g>
		<path class="st3" d="M100.4-296.5c0.6-0.3,1.2-0.5,1.9-0.5l0-2.7c-1.1,0-2.2,0.3-3.2,0.8L100.4-296.5z"/>
	</g>
</g>
<g>
	<g>
		<path class="st3" d="M106.1-290.3c-0.3,0.5-0.8,1-1.4,1.4l1.3,2.3c0.9-0.6,1.7-1.4,2.3-2.3L106.1-290.3z"/>
	</g>
</g>
<g>
	<g>
		<path class="st3" d="M98.7-290.3l-2.3,1.3c0.6,0.9,1.4,1.7,2.3,2.3l1.3-2.3C99.5-289.3,99.1-289.8,98.7-290.3z"/>
	</g>
</g>
<g>
	<g>
		<path class="st3" d="M106.1-295l2.3-1.3c-0.6-0.9-1.4-1.7-2.3-2.3l-1.3,2.3C105.3-296,105.8-295.5,106.1-295z"/>
	</g>
</g>
<g>
	<g>
		<path class="st3" d="M98.1-292.8c0-0.7,0.2-1.3,0.5-1.8l-2.3-1.3c-0.5,0.9-0.8,2-0.8,3.2H98.1z"/>
	</g>
</g>
<g>
	<g>
		<path class="st3" d="M106.8-292.5c0,0.7-0.2,1.3-0.5,1.8l2.3,1.3c0.5-0.9,0.8-2,0.8-3.2H106.8z"/>
	</g>
</g>
<g>
	<g>
		<path class="st3" d="M106.3-294.7c0.3,0.6,0.5,1.2,0.5,1.8h2.7c0-1.1-0.3-2.2-0.8-3.2L106.3-294.7z"/>
	</g>
</g>
<g>
	<g>
		<path class="st3" d="M104.5-288.8c-0.6,0.3-1.2,0.5-1.8,0.5v2.7c1.1,0,2.2-0.3,3.2-0.8L104.5-288.8z"/>
	</g>
</g>
<g>
	<g>
		<path class="st3" d="M98.6-290.6c-0.3-0.6-0.5-1.2-0.5-1.8h-2.7c0,1.1,0.3,2.2,0.8,3.2L98.6-290.6z"/>
	</g>
</g>
<g>
	<g>
		<path class="st3" d="M102.3-288.3c-0.7,0-1.3-0.2-1.8-0.5l-1.3,2.3c0.9,0.5,2,0.8,3.2,0.8V-288.3z"/>
	</g>
</g>
<g>
	<path class="st1" d="M-41.1-161.6l-4.6-8.5l2.9-0.1l1.5,2.7l2.9-7.7h3.1L-41.1-161.6z"/>
</g>
<path class="st3" d="M200.2,3c-16.4,0-29.7,13.3-29.7,29.7c0,16.4,13.3,29.7,29.7,29.7c16.4,0,29.7-13.3,29.7-29.7
	C229.9,16.3,216.6,3,200.2,3z M200.2,56.6c-13.2,0-23.9-10.7-23.9-23.9S187,8.8,200.2,8.8c13.2,0,23.9,10.7,23.9,23.9
	S213.4,56.6,200.2,56.6z"/>
<path class="st3" d="M88.1,31.6c-0.1,17.6,14,32,31.6,32.1c17.6,0.1,32-14,32.1-31.6c0.1-17.6-14-32-31.6-32.1
	C102.6-0.1,88.3,14,88.1,31.6z M145.7,32.1c-0.1,14.2-11.7,25.6-25.9,25.5c-14.2-0.1-25.6-11.7-25.5-25.9
	c0.1-14.2,11.7-25.6,25.9-25.5S145.8,17.9,145.7,32.1z"/>
<g>
	<path class="st3" d="M117.3,54.5l-13.5-24.9l8.6-0.2l4.4,8l8.4-22.6h9.2L117.3,54.5z"/>
</g>
<g>
	<path class="st3" d="M170.8,109.1l-11.7-21.6l7.5-0.2l3.8,6.9l7.3-19.6h7.9L170.8,109.1z"/>
</g>
<circle class="st3" cx="21.1" cy="-209.8" r="1.9"/>
</svg>
