<?xml version="1.0" encoding="utf-8"?>
<!-- Generator: Adobe Illustrator 24.2.3, SVG Export Plug-In . SVG Version: 6.00 Build 0)  -->
<svg version="1.1" id="Layer_1" xmlns="http://www.w3.org/2000/svg" xmlns:xlink="http://www.w3.org/1999/xlink" x="0px" y="0px"
	 viewBox="0 0 64 64" style="enable-background:new 0 0 64 64;" xml:space="preserve">
<style type="text/css">
	.st0{fill:#F38220;}
</style>
<g>
	<path class="st0" d="M34.1,57.4c-2.7,0.2-5.4,0-8.2-0.6C12.2,53.4,3.8,39.6,7.2,25.9c1.6-6.3,5.4-11.5,10.4-15l-7.2-2.1
		C6,12.9,2.7,18.2,1.2,24.4c-4.2,17,6.3,34.2,23.3,38.4c3.9,1,7.8,1.1,11.6,0.7L34.1,57.4z"/>
	<path class="st0" d="M27.6,6.8C31,6.2,34.5,6.3,38,7.1C51.8,10.5,60.2,24.4,56.8,38c-1.7,6.8-5.9,12.3-11.5,15.7l5.8,3.5
		C56.7,53,61,46.8,62.8,39.4C67,22.4,56.5,5.2,39.5,1c-4.6-1-9.3-1-13.7-0.1L27.6,6.8z"/>
</g>
<path class="st0" d="M41.6,60.7h0.1L55.7,62c0.6,0,0.9-0.6,0.6-1.1l-9.3-14.8c0-0.2-0.2-0.4-0.4-0.4c-0.4-0.1-0.7,0.1-0.8,0.5
	L41,59.9C40.9,60.2,41.2,60.7,41.6,60.7z"/>
<path class="st0" d="M5.9,5.5l9.7,13.6c0.1,0.1,0.2,0.2,0.5,0.2c0.3,0.1,0.7-0.1,0.8-0.6l3.8-13.2c0.1-0.3-0.2-0.8-0.6-0.8H20
	L6.5,4.4C5.9,4.4,5.6,5.1,5.9,5.5z"/>
<path class="st0" d="M31.9,13.4c-10.4,0-18.8,8.4-18.8,18.8c0,4.7,1.8,9.1,4.7,12.4l13.9-27.8l14.1,28c3-3.3,4.8-7.7,4.8-12.6
	C50.7,21.9,42.3,13.4,31.9,13.4z"/>
<path class="st0" d="M28.1,39.1L28.1,39.1l-3.4,6.7l0,0l-1.5,3c2.6,1.4,5.6,2.1,8.7,2.1s5.9-0.7,8.5-2l-8.7-17.1L28.1,39.1z"/>
</svg>
