<?xml version="1.0" encoding="utf-8"?>
<!-- Generator: Adobe Illustrator 24.2.3, SVG Export Plug-In . SVG Version: 6.00 Build 0)  -->
<svg version="1.1" id="Layer_1" xmlns="http://www.w3.org/2000/svg" xmlns:xlink="http://www.w3.org/1999/xlink" x="0px" y="0px"
	 viewBox="0 0 64 64" style="enable-background:new 0 0 64 64;" xml:space="preserve">
<style type="text/css">
	.st0{fill-rule:evenodd;clip-rule:evenodd;fill:#F38220;}
	.st1{fill:#FFFFFF;}
	.st2{fill:#F38220;}
</style>
<path class="st0" d="M51.2,25.3L51.2,25.3H13.8c-1.3,0-2.4-0.6-2.4-1.4c0-0.7,1.1-1.4,2.4-1.4h37.4V19c0-2.6-2.1-4.5-4.7-4.2
	l-34.6,3.9C9.3,19,7.2,21.4,7.2,24v1.1v7.1v5.1v15.1V55c0,3.9,3.2,7.1,7.1,7.1h36c3.9,0,7.1-3.2,7.1-7.1V32.3
	C57.4,28.7,54.7,25.7,51.2,25.3z M49.8,47.4c-2,0-3.7-1.7-3.7-3.7s1.7-3.7,3.7-3.7s3.7,1.7,3.7,3.7C53.5,45.8,51.8,47.4,49.8,47.4z"
	/>
<g>
	<circle class="st1" cx="32.1" cy="17.7" r="13.8"/>
	<g>
		<path class="st2" d="M31.4,7.8c-5.3,0.1-9.5,4.4-9.5,9.8c0,2.4,0.9,4.7,2.5,6.3l6.9-14.3l7.3,14.2c1.5-1.7,2.4-4,2.4-6.5
			C41.1,11.9,36.6,7.6,31.4,7.8z"/>
		<path class="st2" d="M29.7,20.9L29.7,20.9l-1.6,3.5l0,0l-0.7,1.6c1.3,0.7,2.8,1.1,4.4,1.1c1.6,0,3.1-0.4,4.3-1.1l-4.7-8.8
			L29.7,20.9z"/>
		<path class="st2" d="M31.3,1.1c-8.9,0.1-16.2,7.5-16,16.6c0.1,8.9,7.5,16.2,16.6,16c8.9-0.1,16.2-7.5,16-16.6
			C47.6,8,40.3,1,31.3,1.1z M31.7,30.4c-7.2,0.1-13.2-5.6-13.4-12.8C18.2,10.3,24,4.3,31.2,4.2S44.4,9.8,44.5,17
			C44.8,24.3,38.9,30.4,31.7,30.4z"/>
	</g>
</g>
<rect x="14.2" y="25.3" class="st0" width="31.9" height="12.3"/>
<rect x="13.5" y="25.6" class="st0" width="38.9" height="12.4"/>
</svg>
